<?xml version="1.0" encoding="UTF-8" standalone="no"?>
<!-- Created with Inkscape (http://www.inkscape.org/) -->

<svg
   xmlns:dc="http://purl.org/dc/elements/1.1/"
   xmlns:cc="http://creativecommons.org/ns#"
   xmlns:rdf="http://www.w3.org/1999/02/22-rdf-syntax-ns#"
   xmlns:svg="http://www.w3.org/2000/svg"
   xmlns="http://www.w3.org/2000/svg"
   xmlns:sodipodi="http://sodipodi.sourceforge.net/DTD/sodipodi-0.dtd"
   xmlns:inkscape="http://www.inkscape.org/namespaces/inkscape"
   id="svg2"
   version="1.1"
   inkscape:version="0.91 r13725"
   xml:space="preserve"
   width="690.63806"
   height="344.47525"
   viewBox="0 0 690.63806 344.47525"
   sodipodi:docname="4c_chromosomes.svg"><metadata
     id="metadata8"><rdf:RDF><cc:Work
         rdf:about=""><dc:format>image/svg+xml</dc:format><dc:type
           rdf:resource="http://purl.org/dc/dcmitype/StillImage" /><dc:title></dc:title></cc:Work></rdf:RDF></metadata><defs
     id="defs6"><clipPath
       clipPathUnits="userSpaceOnUse"
       id="clipPath18"><path
         d="M 0,0 576,0 576,324 0,324 0,0 Z"
         id="path20"
         inkscape:connector-curvature="0" /></clipPath><clipPath
       clipPathUnits="userSpaceOnUse"
       id="clipPath28"><path
         d="m 49.56,37.28 512.04,0 0,272.32 -512.04,0 0,-272.32 z"
         id="path30"
         inkscape:connector-curvature="0" /></clipPath><clipPath
       clipPathUnits="userSpaceOnUse"
       id="clipPath268"><path
         d="M 0,0 576,0 576,324 0,324 0,0 Z"
         id="path270"
         inkscape:connector-curvature="0" /></clipPath></defs><sodipodi:namedview
     pagecolor="#ffffff"
     bordercolor="#666666"
     borderopacity="1"
     objecttolerance="10"
     gridtolerance="10"
     guidetolerance="10"
     inkscape:pageopacity="0"
     inkscape:pageshadow="2"
     inkscape:window-width="1688"
     inkscape:window-height="1028"
     id="namedview4"
     showgrid="false"
     fit-margin-top="1"
     fit-margin-left="1"
     fit-margin-right="1"
     fit-margin-bottom="1"
     inkscape:zoom="1.6961014"
     inkscape:cx="439.65303"
     inkscape:cy="172.23762"
     inkscape:window-x="1380"
     inkscape:window-y="1050"
     inkscape:window-maximized="0"
     inkscape:current-layer="g266" /><g
     id="g10"
     inkscape:groupmode="layer"
     inkscape:label="4c_chromosomes"
     transform="matrix(1.25,0,0,-1.25,-12.361914,388)"><g
       id="g12" /><g
       id="g14" /><g
       id="g24"><g
         id="g26"
         clip-path="url(#clipPath28)"><path
           d="m 49.56,37.28 512.04,0 0,272.32 -512.04,0 0,-272.32 z"
           style="fill:#ffffff;fill-opacity:1;fill-rule:nonzero;stroke:none"
           id="path32"
           inkscape:connector-curvature="0" /><path
           d="m 49.56,78.84 512.04,0"
           style="fill:none;stroke:#fafafa;stroke-width:1.05999994;stroke-linecap:butt;stroke-linejoin:round;stroke-miterlimit:10;stroke-dasharray:none;stroke-opacity:1"
           id="path34"
           inkscape:connector-curvature="0" /><path
           d="m 49.56,137.21 512.04,0"
           style="fill:none;stroke:#fafafa;stroke-width:1.05999994;stroke-linecap:butt;stroke-linejoin:round;stroke-miterlimit:10;stroke-dasharray:none;stroke-opacity:1"
           id="path36"
           inkscape:connector-curvature="0" /><path
           d="m 49.56,195.58 512.04,0"
           style="fill:none;stroke:#fafafa;stroke-width:1.05999994;stroke-linecap:butt;stroke-linejoin:round;stroke-miterlimit:10;stroke-dasharray:none;stroke-opacity:1"
           id="path38"
           inkscape:connector-curvature="0" /><path
           d="m 49.56,253.95 512.04,0"
           style="fill:none;stroke:#fafafa;stroke-width:1.05999994;stroke-linecap:butt;stroke-linejoin:round;stroke-miterlimit:10;stroke-dasharray:none;stroke-opacity:1"
           id="path40"
           inkscape:connector-curvature="0" /><path
           d="m 49.56,49.66 512.04,0"
           style="fill:none;stroke:#e5e5e5;stroke-width:0.43000001;stroke-linecap:butt;stroke-linejoin:round;stroke-miterlimit:10;stroke-dasharray:none;stroke-opacity:1"
           id="path42"
           inkscape:connector-curvature="0" /><path
           d="m 49.56,108.03 512.04,0"
           style="fill:none;stroke:#e5e5e5;stroke-width:0.43000001;stroke-linecap:butt;stroke-linejoin:round;stroke-miterlimit:10;stroke-dasharray:none;stroke-opacity:1"
           id="path44"
           inkscape:connector-curvature="0" /><path
           d="m 49.56,166.4 512.04,0"
           style="fill:none;stroke:#e5e5e5;stroke-width:0.43000001;stroke-linecap:butt;stroke-linejoin:round;stroke-miterlimit:10;stroke-dasharray:none;stroke-opacity:1"
           id="path46"
           inkscape:connector-curvature="0" /><path
           d="m 49.56,224.76 512.04,0"
           style="fill:none;stroke:#e5e5e5;stroke-width:0.43000001;stroke-linecap:butt;stroke-linejoin:round;stroke-miterlimit:10;stroke-dasharray:none;stroke-opacity:1"
           id="path48"
           inkscape:connector-curvature="0" /><path
           d="m 49.56,283.13 512.04,0"
           style="fill:none;stroke:#e5e5e5;stroke-width:0.43000001;stroke-linecap:butt;stroke-linejoin:round;stroke-miterlimit:10;stroke-dasharray:none;stroke-opacity:1"
           id="path50"
           inkscape:connector-curvature="0" /><path
           d="m 53.19,49.66 5.43,0 0,85.24 -5.43,0 0,-85.24 z"
           style="fill:#a6cee3;fill-opacity:1;fill-rule:nonzero;stroke:none"
           id="path94"
           inkscape:connector-curvature="0" /><path
           d="m 58.62,49.66 5.43,0 0,83.56 -5.43,0 0,-83.56 z"
           style="fill:#1f78b4;fill-opacity:1;fill-rule:nonzero;stroke:none"
           id="path96"
           inkscape:connector-curvature="0" /><path
           d="m 69.49,49.66 5.43,0 0,70.73 -5.43,0 0,-70.73 z"
           style="fill:#33a02c;fill-opacity:1;fill-rule:nonzero;stroke:none"
           id="path98"
           inkscape:connector-curvature="0" /><path
           d="m 64.05,49.66 5.43,0 0,67.31 -5.43,0 0,-67.31 z"
           style="fill:#b2df8a;fill-opacity:1;fill-rule:nonzero;stroke:none"
           id="path100"
           inkscape:connector-curvature="0" /><path
           d="m 77.34,49.66 5.43,0 0,89.16 -5.43,0 0,-89.16 z"
           style="fill:#a6cee3;fill-opacity:1;fill-rule:nonzero;stroke:none"
           id="path102"
           inkscape:connector-curvature="0" /><path
           d="m 82.77,49.66 5.43,0 0,82.88 -5.43,0 0,-82.88 z"
           style="fill:#1f78b4;fill-opacity:1;fill-rule:nonzero;stroke:none"
           id="path104"
           inkscape:connector-curvature="0" /><path
           d="m 93.64,49.66 5.43,0 0,81.7 -5.43,0 0,-81.7 z"
           style="fill:#33a02c;fill-opacity:1;fill-rule:nonzero;stroke:none"
           id="path106"
           inkscape:connector-curvature="0" /><path
           d="m 88.21,49.66 5.43,0 0,73.92 -5.43,0 0,-73.92 z"
           style="fill:#b2df8a;fill-opacity:1;fill-rule:nonzero;stroke:none"
           id="path108"
           inkscape:connector-curvature="0" /><path
           d="m 101.49,49.66 5.43,0 0,72.41 -5.43,0 0,-72.41 z"
           style="fill:#a6cee3;fill-opacity:1;fill-rule:nonzero;stroke:none"
           id="path110"
           inkscape:connector-curvature="0" /><path
           d="m 106.93,49.66 5.43,0 0,73.77 -5.43,0 0,-73.77 z"
           style="fill:#1f78b4;fill-opacity:1;fill-rule:nonzero;stroke:none"
           id="path112"
           inkscape:connector-curvature="0" /><path
           d="m 117.79,49.66 5.43,0 0,64.74 -5.43,0 0,-64.74 z"
           style="fill:#33a02c;fill-opacity:1;fill-rule:nonzero;stroke:none"
           id="path114"
           inkscape:connector-curvature="0" /><path
           d="m 112.36,49.66 5.43,0 0,53.81 -5.43,0 0,-53.81 z"
           style="fill:#b2df8a;fill-opacity:1;fill-rule:nonzero;stroke:none"
           id="path116"
           inkscape:connector-curvature="0" /><path
           d="m 125.64,49.66 5.43,0 0,59.81 -5.43,0 0,-59.81 z"
           style="fill:#a6cee3;fill-opacity:1;fill-rule:nonzero;stroke:none"
           id="path118"
           inkscape:connector-curvature="0" /><path
           d="m 131.08,49.66 5.43,0 0,62.06 -5.43,0 0,-62.06 z"
           style="fill:#1f78b4;fill-opacity:1;fill-rule:nonzero;stroke:none"
           id="path120"
           inkscape:connector-curvature="0" /><path
           d="m 141.95,49.66 5.43,0 0,52.4 -5.43,0 0,-52.4 z"
           style="fill:#33a02c;fill-opacity:1;fill-rule:nonzero;stroke:none"
           id="path122"
           inkscape:connector-curvature="0" /><path
           d="m 136.51,49.66 5.43,0 0,63.63 -5.43,0 0,-63.63 z"
           style="fill:#b2df8a;fill-opacity:1;fill-rule:nonzero;stroke:none"
           id="path124"
           inkscape:connector-curvature="0" /><path
           d="m 149.8,49.66 5.43,0 0,108.51 -5.43,0 0,-108.51 z"
           style="fill:#a6cee3;fill-opacity:1;fill-rule:nonzero;stroke:none"
           id="path126"
           inkscape:connector-curvature="0" /><path
           d="m 155.23,49.66 5.43,0 0,131.07 -5.43,0 0,-131.07 z"
           style="fill:#1f78b4;fill-opacity:1;fill-rule:nonzero;stroke:none"
           id="path128"
           inkscape:connector-curvature="0" /><path
           d="m 166.1,49.66 5.43,0 0,247.56 -5.43,0 0,-247.56 z"
           style="fill:#33a02c;fill-opacity:1;fill-rule:nonzero;stroke:none"
           id="path130"
           inkscape:connector-curvature="0" /><path
           d="m 160.67,49.66 5.43,0 0,224.66 -5.43,0 0,-224.66 z"
           style="fill:#b2df8a;fill-opacity:1;fill-rule:nonzero;stroke:none"
           id="path132"
           inkscape:connector-curvature="0" /><path
           d="m 173.95,49.66 5.43,0 0,65.98 -5.43,0 0,-65.98 z"
           style="fill:#a6cee3;fill-opacity:1;fill-rule:nonzero;stroke:none"
           id="path134"
           inkscape:connector-curvature="0" /><path
           d="m 179.38,49.66 5.43,0 0,65.94 -5.43,0 0,-65.94 z"
           style="fill:#1f78b4;fill-opacity:1;fill-rule:nonzero;stroke:none"
           id="path136"
           inkscape:connector-curvature="0" /><path
           d="m 190.25,49.66 5.43,0 0,60.32 -5.43,0 0,-60.32 z"
           style="fill:#33a02c;fill-opacity:1;fill-rule:nonzero;stroke:none"
           id="path138"
           inkscape:connector-curvature="0" /><path
           d="m 184.82,49.66 5.43,0 0,58.67 -5.43,0 0,-58.67 z"
           style="fill:#b2df8a;fill-opacity:1;fill-rule:nonzero;stroke:none"
           id="path140"
           inkscape:connector-curvature="0" /><path
           d="m 198.1,49.66 5.43,0 0,47.67 -5.43,0 0,-47.67 z"
           style="fill:#a6cee3;fill-opacity:1;fill-rule:nonzero;stroke:none"
           id="path142"
           inkscape:connector-curvature="0" /><path
           d="m 203.54,49.66 5.43,0 0,46.13 -5.43,0 0,-46.13 z"
           style="fill:#1f78b4;fill-opacity:1;fill-rule:nonzero;stroke:none"
           id="path144"
           inkscape:connector-curvature="0" /><path
           d="m 214.4,49.66 5.43,0 0,39.67 -5.43,0 0,-39.67 z"
           style="fill:#33a02c;fill-opacity:1;fill-rule:nonzero;stroke:none"
           id="path146"
           inkscape:connector-curvature="0" /><path
           d="m 208.97,49.66 5.43,0 0,48.02 -5.43,0 0,-48.02 z"
           style="fill:#b2df8a;fill-opacity:1;fill-rule:nonzero;stroke:none"
           id="path148"
           inkscape:connector-curvature="0" /><path
           d="m 222.25,49.66 5.43,0 0,54.59 -5.43,0 0,-54.59 z"
           style="fill:#a6cee3;fill-opacity:1;fill-rule:nonzero;stroke:none"
           id="path150"
           inkscape:connector-curvature="0" /><path
           d="m 227.69,49.66 5.43,0 0,55.16 -5.43,0 0,-55.16 z"
           style="fill:#1f78b4;fill-opacity:1;fill-rule:nonzero;stroke:none"
           id="path152"
           inkscape:connector-curvature="0" /><path
           d="m 238.56,49.66 5.43,0 0,49.63 -5.43,0 0,-49.63 z"
           style="fill:#33a02c;fill-opacity:1;fill-rule:nonzero;stroke:none"
           id="path154"
           inkscape:connector-curvature="0" /><path
           d="m 233.12,49.66 5.43,0 0,50.08 -5.43,0 0,-50.08 z"
           style="fill:#b2df8a;fill-opacity:1;fill-rule:nonzero;stroke:none"
           id="path156"
           inkscape:connector-curvature="0" /><path
           d="m 246.41,49.66 5.43,0 0,54.93 -5.43,0 0,-54.93 z"
           style="fill:#a6cee3;fill-opacity:1;fill-rule:nonzero;stroke:none"
           id="path158"
           inkscape:connector-curvature="0" /><path
           d="m 251.84,49.66 5.43,0 0,45.44 -5.43,0 0,-45.44 z"
           style="fill:#1f78b4;fill-opacity:1;fill-rule:nonzero;stroke:none"
           id="path160"
           inkscape:connector-curvature="0" /><path
           d="m 262.71,49.66 5.43,0 0,43.84 -5.43,0 0,-43.84 z"
           style="fill:#33a02c;fill-opacity:1;fill-rule:nonzero;stroke:none"
           id="path162"
           inkscape:connector-curvature="0" /><path
           d="m 257.28,49.66 5.43,0 0,48.88 -5.43,0 0,-48.88 z"
           style="fill:#b2df8a;fill-opacity:1;fill-rule:nonzero;stroke:none"
           id="path164"
           inkscape:connector-curvature="0" /><path
           d="m 270.56,49.66 5.43,0 0,61.1 -5.43,0 0,-61.1 z"
           style="fill:#a6cee3;fill-opacity:1;fill-rule:nonzero;stroke:none"
           id="path166"
           inkscape:connector-curvature="0" /><path
           d="m 275.99,49.66 5.43,0 0,59.22 -5.43,0 0,-59.22 z"
           style="fill:#1f78b4;fill-opacity:1;fill-rule:nonzero;stroke:none"
           id="path168"
           inkscape:connector-curvature="0" /><path
           d="m 286.86,49.66 5.43,0 0,55.61 -5.43,0 0,-55.61 z"
           style="fill:#33a02c;fill-opacity:1;fill-rule:nonzero;stroke:none"
           id="path170"
           inkscape:connector-curvature="0" /><path
           d="m 281.43,49.66 5.43,0 0,48.19 -5.43,0 0,-48.19 z"
           style="fill:#b2df8a;fill-opacity:1;fill-rule:nonzero;stroke:none"
           id="path172"
           inkscape:connector-curvature="0" /><path
           d="m 294.71,49.66 5.43,0 0,53.24 -5.43,0 0,-53.24 z"
           style="fill:#a6cee3;fill-opacity:1;fill-rule:nonzero;stroke:none"
           id="path174"
           inkscape:connector-curvature="0" /><path
           d="m 300.15,49.66 5.43,0 0,47.96 -5.43,0 0,-47.96 z"
           style="fill:#1f78b4;fill-opacity:1;fill-rule:nonzero;stroke:none"
           id="path176"
           inkscape:connector-curvature="0" /><path
           d="m 311.02,49.66 5.43,0 0,39.54 -5.43,0 0,-39.54 z"
           style="fill:#33a02c;fill-opacity:1;fill-rule:nonzero;stroke:none"
           id="path178"
           inkscape:connector-curvature="0" /><path
           d="m 305.58,49.66 5.43,0 0,54.96 -5.43,0 0,-54.96 z"
           style="fill:#b2df8a;fill-opacity:1;fill-rule:nonzero;stroke:none"
           id="path180"
           inkscape:connector-curvature="0" /><path
           d="m 318.87,49.66 5.43,0 0,46.42 -5.43,0 0,-46.42 z"
           style="fill:#a6cee3;fill-opacity:1;fill-rule:nonzero;stroke:none"
           id="path182"
           inkscape:connector-curvature="0" /><path
           d="m 324.3,49.66 5.43,0 0,45.27 -5.43,0 0,-45.27 z"
           style="fill:#1f78b4;fill-opacity:1;fill-rule:nonzero;stroke:none"
           id="path184"
           inkscape:connector-curvature="0" /><path
           d="m 335.17,49.66 5.43,0 0,48.33 -5.43,0 0,-48.33 z"
           style="fill:#33a02c;fill-opacity:1;fill-rule:nonzero;stroke:none"
           id="path186"
           inkscape:connector-curvature="0" /><path
           d="m 329.73,49.66 5.43,0 0,43.61 -5.43,0 0,-43.61 z"
           style="fill:#b2df8a;fill-opacity:1;fill-rule:nonzero;stroke:none"
           id="path188"
           inkscape:connector-curvature="0" /><path
           d="m 343.02,49.66 5.43,0 0,57.65 -5.43,0 0,-57.65 z"
           style="fill:#a6cee3;fill-opacity:1;fill-rule:nonzero;stroke:none"
           id="path190"
           inkscape:connector-curvature="0" /><path
           d="m 348.45,49.66 5.43,0 0,52.53 -5.43,0 0,-52.53 z"
           style="fill:#1f78b4;fill-opacity:1;fill-rule:nonzero;stroke:none"
           id="path192"
           inkscape:connector-curvature="0" /><path
           d="m 359.32,49.66 5.43,0 0,42.09 -5.43,0 0,-42.09 z"
           style="fill:#33a02c;fill-opacity:1;fill-rule:nonzero;stroke:none"
           id="path194"
           inkscape:connector-curvature="0" /><path
           d="m 353.89,49.66 5.43,0 0,47.81 -5.43,0 0,-47.81 z"
           style="fill:#b2df8a;fill-opacity:1;fill-rule:nonzero;stroke:none"
           id="path196"
           inkscape:connector-curvature="0" /><path
           d="m 367.17,49.66 5.43,0 0,44.59 -5.43,0 0,-44.59 z"
           style="fill:#a6cee3;fill-opacity:1;fill-rule:nonzero;stroke:none"
           id="path198"
           inkscape:connector-curvature="0" /><path
           d="m 372.61,49.66 5.43,0 0,44.49 -5.43,0 0,-44.49 z"
           style="fill:#1f78b4;fill-opacity:1;fill-rule:nonzero;stroke:none"
           id="path200"
           inkscape:connector-curvature="0" /><path
           d="m 383.47,49.66 5.43,0 0,39.34 -5.43,0 0,-39.34 z"
           style="fill:#33a02c;fill-opacity:1;fill-rule:nonzero;stroke:none"
           id="path202"
           inkscape:connector-curvature="0" /><path
           d="m 378.04,49.66 5.43,0 0,47.89 -5.43,0 0,-47.89 z"
           style="fill:#b2df8a;fill-opacity:1;fill-rule:nonzero;stroke:none"
           id="path204"
           inkscape:connector-curvature="0" /><path
           d="m 391.32,49.66 5.43,0 0,45.54 -5.43,0 0,-45.54 z"
           style="fill:#a6cee3;fill-opacity:1;fill-rule:nonzero;stroke:none"
           id="path206"
           inkscape:connector-curvature="0" /><path
           d="m 396.76,49.66 5.43,0 0,52.56 -5.43,0 0,-52.56 z"
           style="fill:#1f78b4;fill-opacity:1;fill-rule:nonzero;stroke:none"
           id="path208"
           inkscape:connector-curvature="0" /><path
           d="m 407.63,49.66 5.43,0 0,38.63 -5.43,0 0,-38.63 z"
           style="fill:#33a02c;fill-opacity:1;fill-rule:nonzero;stroke:none"
           id="path210"
           inkscape:connector-curvature="0" /><path
           d="m 402.19,49.66 5.43,0 0,42.87 -5.43,0 0,-42.87 z"
           style="fill:#b2df8a;fill-opacity:1;fill-rule:nonzero;stroke:none"
           id="path212"
           inkscape:connector-curvature="0" /><path
           d="m 415.48,49.66 5.43,0 0,51.05 -5.43,0 0,-51.05 z"
           style="fill:#a6cee3;fill-opacity:1;fill-rule:nonzero;stroke:none"
           id="path214"
           inkscape:connector-curvature="0" /><path
           d="m 420.91,49.66 5.43,0 0,54.3 -5.43,0 0,-54.3 z"
           style="fill:#1f78b4;fill-opacity:1;fill-rule:nonzero;stroke:none"
           id="path216"
           inkscape:connector-curvature="0" /><path
           d="m 431.78,49.66 5.43,0 0,46.85 -5.43,0 0,-46.85 z"
           style="fill:#33a02c;fill-opacity:1;fill-rule:nonzero;stroke:none"
           id="path218"
           inkscape:connector-curvature="0" /><path
           d="m 426.34,49.66 5.43,0 0,39.82 -5.43,0 0,-39.82 z"
           style="fill:#b2df8a;fill-opacity:1;fill-rule:nonzero;stroke:none"
           id="path220"
           inkscape:connector-curvature="0" /><path
           d="m 439.63,49.66 5.43,0 0,38.04 -5.43,0 0,-38.04 z"
           style="fill:#a6cee3;fill-opacity:1;fill-rule:nonzero;stroke:none"
           id="path222"
           inkscape:connector-curvature="0" /><path
           d="m 445.06,49.66 5.43,0 0,43.16 -5.43,0 0,-43.16 z"
           style="fill:#1f78b4;fill-opacity:1;fill-rule:nonzero;stroke:none"
           id="path224"
           inkscape:connector-curvature="0" /><path
           d="m 455.93,49.66 5.43,0 0,34.68 -5.43,0 0,-34.68 z"
           style="fill:#33a02c;fill-opacity:1;fill-rule:nonzero;stroke:none"
           id="path226"
           inkscape:connector-curvature="0" /><path
           d="m 450.5,49.66 5.43,0 0,39.1 -5.43,0 0,-39.1 z"
           style="fill:#b2df8a;fill-opacity:1;fill-rule:nonzero;stroke:none"
           id="path228"
           inkscape:connector-curvature="0" /><path
           d="m 463.78,49.66 5.43,0 0,38.46 -5.43,0 0,-38.46 z"
           style="fill:#a6cee3;fill-opacity:1;fill-rule:nonzero;stroke:none"
           id="path230"
           inkscape:connector-curvature="0" /><path
           d="m 469.22,49.66 5.43,0 0,39.67 -5.43,0 0,-39.67 z"
           style="fill:#1f78b4;fill-opacity:1;fill-rule:nonzero;stroke:none"
           id="path232"
           inkscape:connector-curvature="0" /><path
           d="m 480.08,49.66 5.43,0 0,32.28 -5.43,0 0,-32.28 z"
           style="fill:#33a02c;fill-opacity:1;fill-rule:nonzero;stroke:none"
           id="path234"
           inkscape:connector-curvature="0" /><path
           d="m 474.65,49.66 5.43,0 0,35.33 -5.43,0 0,-35.33 z"
           style="fill:#b2df8a;fill-opacity:1;fill-rule:nonzero;stroke:none"
           id="path236"
           inkscape:connector-curvature="0" /><path
           d="m 487.93,49.66 5.43,0 0,29.71 -5.43,0 0,-29.71 z"
           style="fill:#a6cee3;fill-opacity:1;fill-rule:nonzero;stroke:none"
           id="path238"
           inkscape:connector-curvature="0" /><path
           d="m 493.37,49.66 5.43,0 0,25.81 -5.43,0 0,-25.81 z"
           style="fill:#1f78b4;fill-opacity:1;fill-rule:nonzero;stroke:none"
           id="path240"
           inkscape:connector-curvature="0" /><path
           d="m 504.24,49.66 5.43,0 0,22.43 -5.43,0 0,-22.43 z"
           style="fill:#33a02c;fill-opacity:1;fill-rule:nonzero;stroke:none"
           id="path242"
           inkscape:connector-curvature="0" /><path
           d="m 498.8,49.66 5.43,0 0,28.16 -5.43,0 0,-28.16 z"
           style="fill:#b2df8a;fill-opacity:1;fill-rule:nonzero;stroke:none"
           id="path244"
           inkscape:connector-curvature="0" /><path
           d="m 512.09,49.66 5.43,0 0,62.86 -5.43,0 0,-62.86 z"
           style="fill:#a6cee3;fill-opacity:1;fill-rule:nonzero;stroke:none"
           id="path246"
           inkscape:connector-curvature="0" /><path
           d="m 517.52,49.66 5.43,0 0,55.88 -5.43,0 0,-55.88 z"
           style="fill:#1f78b4;fill-opacity:1;fill-rule:nonzero;stroke:none"
           id="path248"
           inkscape:connector-curvature="0" /><path
           d="m 528.39,49.66 5.43,0 0,56.6 -5.43,0 0,-56.6 z"
           style="fill:#33a02c;fill-opacity:1;fill-rule:nonzero;stroke:none"
           id="path250"
           inkscape:connector-curvature="0" /><path
           d="m 522.96,49.66 5.43,0 0,50.19 -5.43,0 0,-50.19 z"
           style="fill:#b2df8a;fill-opacity:1;fill-rule:nonzero;stroke:none"
           id="path252"
           inkscape:connector-curvature="0" /><path
           d="m 536.24,49.66 5.43,0 0,0.42 -5.43,0 0,-0.42 z"
           style="fill:#a6cee3;fill-opacity:1;fill-rule:nonzero;stroke:none"
           id="path254"
           inkscape:connector-curvature="0" /><path
           d="m 541.67,49.66 5.43,0 0,0.5 -5.43,0 0,-0.5 z"
           style="fill:#1f78b4;fill-opacity:1;fill-rule:nonzero;stroke:none"
           id="path256"
           inkscape:connector-curvature="0" /><path
           d="m 552.54,49.66 5.43,0 0,0.38 -5.43,0 0,-0.38 z"
           style="fill:#33a02c;fill-opacity:1;fill-rule:nonzero;stroke:none"
           id="path258"
           inkscape:connector-curvature="0" /><path
           d="m 547.11,49.66 5.43,0 0,0.44 -5.43,0 0,-0.44 z"
           style="fill:#b2df8a;fill-opacity:1;fill-rule:nonzero;stroke:none"
           id="path260"
           inkscape:connector-curvature="0" /></g></g><g
       id="g264"><g
         id="g266"
         clip-path="url(#clipPath268)"><text
           transform="matrix(1,0,0,-1,23.02,46.07)"
           style="font-variant:normal;font-weight:normal;font-size:10px;font-family:Helvetica;-inkscape-font-specification:Helvetica;writing-mode:lr-tb;fill:#000000;fill-opacity:1;fill-rule:nonzero;stroke:none"
           id="text272"><tspan
             x="0 5.5599999 8.3400002 13.9"
             y="0"
             sodipodi:role="line"
             id="tspan274">0.00</tspan></text>
<text
           transform="matrix(1,0,0,-1,23.02,104.44)"
           style="font-variant:normal;font-weight:normal;font-size:10px;font-family:Helvetica;-inkscape-font-specification:Helvetica;writing-mode:lr-tb;fill:#000000;fill-opacity:1;fill-rule:nonzero;stroke:none"
           id="text276"><tspan
             x="0 5.5599999 8.3400002 13.9"
             y="0"
             sodipodi:role="line"
             id="tspan278">0.05</tspan></text>
<text
           transform="matrix(1,0,0,-1,23.02,162.81)"
           style="font-variant:normal;font-weight:normal;font-size:10px;font-family:Helvetica;-inkscape-font-specification:Helvetica;writing-mode:lr-tb;fill:#000000;fill-opacity:1;fill-rule:nonzero;stroke:none"
           id="text280"><tspan
             x="0 5.5599999 8.3400002 13.9"
             y="0"
             sodipodi:role="line"
             id="tspan282">0.10</tspan></text>
<text
           transform="matrix(1,0,0,-1,23.02,221.17)"
           style="font-variant:normal;font-weight:normal;font-size:10px;font-family:Helvetica;-inkscape-font-specification:Helvetica;writing-mode:lr-tb;fill:#000000;fill-opacity:1;fill-rule:nonzero;stroke:none"
           id="text284"><tspan
             x="0 5.5599999 8.3400002 13.9"
             y="0"
             sodipodi:role="line"
             id="tspan286">0.15</tspan></text>
<text
           transform="matrix(1,0,0,-1,23.02,279.54)"
           style="font-variant:normal;font-weight:normal;font-size:10px;font-family:Helvetica;-inkscape-font-specification:Helvetica;writing-mode:lr-tb;fill:#000000;fill-opacity:1;fill-rule:nonzero;stroke:none"
           id="text288"><tspan
             x="0 5.5599999 8.3400002 13.9"
             y="0"
             sodipodi:role="line"
             id="tspan290">0.20</tspan></text>
<path
           d="m 45.31,49.66 4.25,0"
           style="fill:none;stroke:#000000;stroke-width:1.05999994;stroke-linecap:butt;stroke-linejoin:round;stroke-miterlimit:10;stroke-dasharray:none;stroke-opacity:1"
           id="path292"
           inkscape:connector-curvature="0" /><path
           d="m 45.31,108.03 4.25,0"
           style="fill:none;stroke:#000000;stroke-width:1.05999994;stroke-linecap:butt;stroke-linejoin:round;stroke-miterlimit:10;stroke-dasharray:none;stroke-opacity:1"
           id="path294"
           inkscape:connector-curvature="0" /><path
           d="m 45.31,166.4 4.25,0"
           style="fill:none;stroke:#000000;stroke-width:1.05999994;stroke-linecap:butt;stroke-linejoin:round;stroke-miterlimit:10;stroke-dasharray:none;stroke-opacity:1"
           id="path296"
           inkscape:connector-curvature="0" /><path
           d="m 45.31,224.76 4.25,0"
           style="fill:none;stroke:#000000;stroke-width:1.05999994;stroke-linecap:butt;stroke-linejoin:round;stroke-miterlimit:10;stroke-dasharray:none;stroke-opacity:1"
           id="path298"
           inkscape:connector-curvature="0" /><path
           d="m 45.31,283.13 4.25,0"
           style="fill:none;stroke:#000000;stroke-width:1.05999994;stroke-linecap:butt;stroke-linejoin:round;stroke-miterlimit:10;stroke-dasharray:none;stroke-opacity:1"
           id="path300"
           inkscape:connector-curvature="0" /><path
           d="m 64.05,45.83 0,4.25"
           style="fill:none;stroke:#000000;stroke-width:1.05999994;stroke-linecap:butt;stroke-linejoin:round;stroke-miterlimit:10;stroke-dasharray:none;stroke-opacity:1"
           id="path302"
           inkscape:connector-curvature="0" /><path
           d="m 88.21,45.83 0,4.25"
           style="fill:none;stroke:#000000;stroke-width:1.05999994;stroke-linecap:butt;stroke-linejoin:round;stroke-miterlimit:10;stroke-dasharray:none;stroke-opacity:1"
           id="path304"
           inkscape:connector-curvature="0" /><path
           d="m 112.36,45.83 0,4.25"
           style="fill:none;stroke:#000000;stroke-width:1.05999994;stroke-linecap:butt;stroke-linejoin:round;stroke-miterlimit:10;stroke-dasharray:none;stroke-opacity:1"
           id="path306"
           inkscape:connector-curvature="0" /><path
           d="m 136.51,45.83 0,4.25"
           style="fill:none;stroke:#000000;stroke-width:1.05999994;stroke-linecap:butt;stroke-linejoin:round;stroke-miterlimit:10;stroke-dasharray:none;stroke-opacity:1"
           id="path308"
           inkscape:connector-curvature="0" /><path
           d="m 160.67,45.83 0,4.25"
           style="fill:none;stroke:#000000;stroke-width:1.05999994;stroke-linecap:butt;stroke-linejoin:round;stroke-miterlimit:10;stroke-dasharray:none;stroke-opacity:1"
           id="path310"
           inkscape:connector-curvature="0" /><path
           d="m 184.82,45.83 0,4.25"
           style="fill:none;stroke:#000000;stroke-width:1.05999994;stroke-linecap:butt;stroke-linejoin:round;stroke-miterlimit:10;stroke-dasharray:none;stroke-opacity:1"
           id="path312"
           inkscape:connector-curvature="0" /><path
           d="m 208.97,45.83 0,4.25"
           style="fill:none;stroke:#000000;stroke-width:1.05999994;stroke-linecap:butt;stroke-linejoin:round;stroke-miterlimit:10;stroke-dasharray:none;stroke-opacity:1"
           id="path314"
           inkscape:connector-curvature="0" /><path
           d="m 233.12,45.83 0,4.25"
           style="fill:none;stroke:#000000;stroke-width:1.05999994;stroke-linecap:butt;stroke-linejoin:round;stroke-miterlimit:10;stroke-dasharray:none;stroke-opacity:1"
           id="path316"
           inkscape:connector-curvature="0" /><path
           d="m 257.28,45.83 0,4.25"
           style="fill:none;stroke:#000000;stroke-width:1.05999994;stroke-linecap:butt;stroke-linejoin:round;stroke-miterlimit:10;stroke-dasharray:none;stroke-opacity:1"
           id="path318"
           inkscape:connector-curvature="0" /><path
           d="m 281.43,45.83 0,4.25"
           style="fill:none;stroke:#000000;stroke-width:1.05999994;stroke-linecap:butt;stroke-linejoin:round;stroke-miterlimit:10;stroke-dasharray:none;stroke-opacity:1"
           id="path320"
           inkscape:connector-curvature="0" /><path
           d="m 305.58,45.83 0,4.25"
           style="fill:none;stroke:#000000;stroke-width:1.05999994;stroke-linecap:butt;stroke-linejoin:round;stroke-miterlimit:10;stroke-dasharray:none;stroke-opacity:1"
           id="path322"
           inkscape:connector-curvature="0" /><path
           d="m 329.73,45.83 0,4.25"
           style="fill:none;stroke:#000000;stroke-width:1.05999994;stroke-linecap:butt;stroke-linejoin:round;stroke-miterlimit:10;stroke-dasharray:none;stroke-opacity:1"
           id="path324"
           inkscape:connector-curvature="0" /><path
           d="m 353.89,45.83 0,4.25"
           style="fill:none;stroke:#000000;stroke-width:1.05999994;stroke-linecap:butt;stroke-linejoin:round;stroke-miterlimit:10;stroke-dasharray:none;stroke-opacity:1"
           id="path326"
           inkscape:connector-curvature="0" /><path
           d="m 378.04,45.83 0,4.25"
           style="fill:none;stroke:#000000;stroke-width:1.05999994;stroke-linecap:butt;stroke-linejoin:round;stroke-miterlimit:10;stroke-dasharray:none;stroke-opacity:1"
           id="path328"
           inkscape:connector-curvature="0" /><path
           d="m 402.19,45.83 0,4.25"
           style="fill:none;stroke:#000000;stroke-width:1.05999994;stroke-linecap:butt;stroke-linejoin:round;stroke-miterlimit:10;stroke-dasharray:none;stroke-opacity:1"
           id="path330"
           inkscape:connector-curvature="0" /><path
           d="m 426.34,45.83 0,4.25"
           style="fill:none;stroke:#000000;stroke-width:1.05999994;stroke-linecap:butt;stroke-linejoin:round;stroke-miterlimit:10;stroke-dasharray:none;stroke-opacity:1"
           id="path332"
           inkscape:connector-curvature="0" /><path
           d="m 450.5,45.83 0,4.25"
           style="fill:none;stroke:#000000;stroke-width:1.05999994;stroke-linecap:butt;stroke-linejoin:round;stroke-miterlimit:10;stroke-dasharray:none;stroke-opacity:1"
           id="path334"
           inkscape:connector-curvature="0" /><path
           d="m 474.65,45.83 0,4.25"
           style="fill:none;stroke:#000000;stroke-width:1.05999994;stroke-linecap:butt;stroke-linejoin:round;stroke-miterlimit:10;stroke-dasharray:none;stroke-opacity:1"
           id="path336"
           inkscape:connector-curvature="0" /><path
           d="m 498.8,45.83 0,4.25"
           style="fill:none;stroke:#000000;stroke-width:1.05999994;stroke-linecap:butt;stroke-linejoin:round;stroke-miterlimit:10;stroke-dasharray:none;stroke-opacity:1"
           id="path338"
           inkscape:connector-curvature="0" /><path
           d="m 522.96,45.83 0,4.25"
           style="fill:none;stroke:#000000;stroke-width:1.05999994;stroke-linecap:butt;stroke-linejoin:round;stroke-miterlimit:10;stroke-dasharray:none;stroke-opacity:1"
           id="path340"
           inkscape:connector-curvature="0" /><path
           d="m 547.11,45.83 0,4.25"
           style="fill:none;stroke:#000000;stroke-width:1.05999994;stroke-linecap:butt;stroke-linejoin:round;stroke-miterlimit:10;stroke-dasharray:none;stroke-opacity:1"
           id="path342"
           inkscape:connector-curvature="0" /><text
           transform="scale(1,-1)"
           style="font-variant:normal;font-weight:normal;font-size:10px;font-family:Helvetica;-inkscape-font-specification:Helvetica;writing-mode:lr-tb;fill:#000000;fill-opacity:1;fill-rule:nonzero;stroke:none"
           id="text344"
           x="61.27"
           y="-35.82"><tspan
             x="61.27"
             y="-35.82"
             id="tspan346">1</tspan></text>
<text
           transform="scale(1,-1)"
           style="font-variant:normal;font-weight:normal;font-size:10px;font-family:Helvetica;-inkscape-font-specification:Helvetica;writing-mode:lr-tb;fill:#000000;fill-opacity:1;fill-rule:nonzero;stroke:none"
           id="text348"
           x="85.43"
           y="-35.82"><tspan
             x="85.43"
             y="-35.82"
             id="tspan350">2</tspan></text>
<text
           transform="scale(1,-1)"
           style="font-variant:normal;font-weight:normal;font-size:10px;font-family:Helvetica;-inkscape-font-specification:Helvetica;writing-mode:lr-tb;fill:#000000;fill-opacity:1;fill-rule:nonzero;stroke:none"
           id="text352"
           x="109.58"
           y="-35.82"><tspan
             x="109.58"
             y="-35.82"
             id="tspan354">3</tspan></text>
<text
           transform="scale(1,-1)"
           style="font-variant:normal;font-weight:normal;font-size:10px;font-family:Helvetica;-inkscape-font-specification:Helvetica;writing-mode:lr-tb;fill:#000000;fill-opacity:1;fill-rule:nonzero;stroke:none"
           id="text356"
           x="133.73"
           y="-35.82"><tspan
             x="133.73"
             y="-35.82"
             id="tspan358">4</tspan></text>
<text
           transform="scale(1,-1)"
           style="font-variant:normal;font-weight:normal;font-size:10px;font-family:Helvetica;-inkscape-font-specification:Helvetica;writing-mode:lr-tb;fill:#000000;fill-opacity:1;fill-rule:nonzero;stroke:none"
           id="text360"
           x="157.89"
           y="-35.82"><tspan
             x="157.89"
             y="-35.82"
             id="tspan362">5</tspan></text>
<text
           transform="scale(1,-1)"
           style="font-variant:normal;font-weight:normal;font-size:10px;font-family:Helvetica;-inkscape-font-specification:Helvetica;writing-mode:lr-tb;fill:#000000;fill-opacity:1;fill-rule:nonzero;stroke:none"
           id="text364"
           x="182.03999"
           y="-35.82"><tspan
             x="182.03999"
             y="-35.82"
             id="tspan366">6</tspan></text>
<text
           transform="scale(1,-1)"
           style="font-variant:normal;font-weight:normal;font-size:10px;font-family:Helvetica;-inkscape-font-specification:Helvetica;writing-mode:lr-tb;fill:#000000;fill-opacity:1;fill-rule:nonzero;stroke:none"
           id="text368"
           x="206.19"
           y="-35.82"><tspan
             x="206.19"
             y="-35.82"
             id="tspan370">7</tspan></text>
<text
           transform="scale(1,-1)"
           style="font-variant:normal;font-weight:normal;font-size:10px;font-family:Helvetica;-inkscape-font-specification:Helvetica;writing-mode:lr-tb;fill:#000000;fill-opacity:1;fill-rule:nonzero;stroke:none"
           id="text372"
           x="230.34"
           y="-35.82"><tspan
             x="230.34"
             y="-35.82"
             id="tspan374">8</tspan></text>
<text
           transform="scale(1,-1)"
           style="font-variant:normal;font-weight:normal;font-size:10px;font-family:Helvetica;-inkscape-font-specification:Helvetica;writing-mode:lr-tb;fill:#000000;fill-opacity:1;fill-rule:nonzero;stroke:none"
           id="text376"
           x="254.5"
           y="-35.82"><tspan
             x="254.5"
             y="-35.82"
             id="tspan378">9</tspan></text>
<text
           transform="scale(1,-1)"
           style="font-variant:normal;font-weight:normal;font-size:10px;font-family:Helvetica;-inkscape-font-specification:Helvetica;writing-mode:lr-tb;fill:#000000;fill-opacity:1;fill-rule:nonzero;stroke:none"
           id="text380"
           x="275.87"
           y="-35.82"><tspan
             x="275.87 281.42999"
             y="-35.82"
             sodipodi:role="line"
             id="tspan382">10</tspan></text>
<text
           transform="scale(1,-1)"
           style="font-variant:normal;font-weight:normal;font-size:10px;font-family:Helvetica;-inkscape-font-specification:Helvetica;writing-mode:lr-tb;fill:#000000;fill-opacity:1;fill-rule:nonzero;stroke:none"
           id="text384"
           x="300.01999"
           y="-35.82"><tspan
             x="300.01999 305.57999"
             y="-35.82"
             sodipodi:role="line"
             id="tspan386">11</tspan></text>
<text
           transform="scale(1,-1)"
           style="font-variant:normal;font-weight:normal;font-size:10px;font-family:Helvetica;-inkscape-font-specification:Helvetica;writing-mode:lr-tb;fill:#000000;fill-opacity:1;fill-rule:nonzero;stroke:none"
           id="text388"
           x="324.17001"
           y="-35.82"><tspan
             x="324.17001 329.73001"
             y="-35.82"
             sodipodi:role="line"
             id="tspan390">12</tspan></text>
<text
           transform="scale(1,-1)"
           style="font-variant:normal;font-weight:normal;font-size:10px;font-family:Helvetica;-inkscape-font-specification:Helvetica;writing-mode:lr-tb;fill:#000000;fill-opacity:1;fill-rule:nonzero;stroke:none"
           id="text392"
           x="348.32999"
           y="-35.82"><tspan
             x="348.32999 353.89001"
             y="-35.82"
             sodipodi:role="line"
             id="tspan394">13</tspan></text>
<text
           transform="scale(1,-1)"
           style="font-variant:normal;font-weight:normal;font-size:10px;font-family:Helvetica;-inkscape-font-specification:Helvetica;writing-mode:lr-tb;fill:#000000;fill-opacity:1;fill-rule:nonzero;stroke:none"
           id="text396"
           x="372.48001"
           y="-35.82"><tspan
             x="372.48001 378.04001"
             y="-35.82"
             sodipodi:role="line"
             id="tspan398">14</tspan></text>
<text
           transform="scale(1,-1)"
           style="font-variant:normal;font-weight:normal;font-size:10px;font-family:Helvetica;-inkscape-font-specification:Helvetica;writing-mode:lr-tb;fill:#000000;fill-opacity:1;fill-rule:nonzero;stroke:none"
           id="text400"
           x="396.63"
           y="-35.82"><tspan
             x="396.63 402.19"
             y="-35.82"
             sodipodi:role="line"
             id="tspan402">15</tspan></text>
<text
           transform="scale(1,-1)"
           style="font-variant:normal;font-weight:normal;font-size:10px;font-family:Helvetica;-inkscape-font-specification:Helvetica;writing-mode:lr-tb;fill:#000000;fill-opacity:1;fill-rule:nonzero;stroke:none"
           id="text404"
           x="420.78"
           y="-35.82"><tspan
             x="420.78 426.34"
             y="-35.82"
             sodipodi:role="line"
             id="tspan406">16</tspan></text>
<text
           transform="scale(1,-1)"
           style="font-variant:normal;font-weight:normal;font-size:10px;font-family:Helvetica;-inkscape-font-specification:Helvetica;writing-mode:lr-tb;fill:#000000;fill-opacity:1;fill-rule:nonzero;stroke:none"
           id="text408"
           x="444.94"
           y="-35.82"><tspan
             x="444.94 450.5"
             y="-35.82"
             sodipodi:role="line"
             id="tspan410">17</tspan></text>
<text
           transform="scale(1,-1)"
           style="font-variant:normal;font-weight:normal;font-size:10px;font-family:Helvetica;-inkscape-font-specification:Helvetica;writing-mode:lr-tb;fill:#000000;fill-opacity:1;fill-rule:nonzero;stroke:none"
           id="text412"
           x="469.09"
           y="-35.82"><tspan
             x="469.09 474.64999"
             y="-35.82"
             sodipodi:role="line"
             id="tspan414">18</tspan></text>
<text
           transform="scale(1,-1)"
           style="font-variant:normal;font-weight:normal;font-size:10px;font-family:Helvetica;-inkscape-font-specification:Helvetica;writing-mode:lr-tb;fill:#000000;fill-opacity:1;fill-rule:nonzero;stroke:none"
           id="text416"
           x="493.23999"
           y="-35.82"><tspan
             x="493.23999 498.79999"
             y="-35.82"
             sodipodi:role="line"
             id="tspan418">19</tspan></text>
<text
           transform="scale(1,-1)"
           style="font-variant:normal;font-weight:normal;font-size:10px;font-family:Helvetica;-inkscape-font-specification:Helvetica;writing-mode:lr-tb;fill:#000000;fill-opacity:1;fill-rule:nonzero;stroke:none"
           id="text420"
           x="519.62"
           y="-35.82"><tspan
             x="519.62"
             y="-35.82"
             id="tspan422">X</tspan></text>
<text
           transform="scale(1,-1)"
           style="font-variant:normal;font-weight:normal;font-size:10px;font-family:Helvetica;-inkscape-font-specification:Helvetica;writing-mode:lr-tb;fill:#000000;fill-opacity:1;fill-rule:nonzero;stroke:none"
           id="text424"
           x="543.77002"
           y="-35.82"><tspan
             x="543.77002"
             y="-35.82"
             id="tspan426">Y</tspan></text>
<text
           transform="matrix(0,1,1,0,19.42,52.15)"
           style="font-variant:normal;font-weight:normal;font-size:12px;font-family:Helvetica;-inkscape-font-specification:Helvetica;writing-mode:lr-tb;fill:#000000;fill-opacity:1;fill-rule:nonzero;stroke:none"
           id="text428"><tspan
             x="0 8.0039997 12 18.672001 25.344 32.015999 36.492001 39.827999 42.492001 49.164001 55.835999 59.172001 65.844002 69.18 72.515999 82.512001 89.183998 95.856003 102.528 109.2 115.872 119.208 123.204 129.87601 136.548 143.22 149.22 152.556 159.228 165.89999 169.896 173.23199 179.23199 185.90401 189.89999 196.57201 206.56799 213.24001 219.24001 225.912 235.908"
             y="0"
             sodipodi:role="line"
             id="tspan430">Proportion of mapped reads per chromosome</tspan></text>
<text
           transform="matrix(1,0,0,-1,454.5,206.26)"
           style="font-variant:normal;font-weight:normal;font-size:10px;font-family:Helvetica;-inkscape-font-specification:Helvetica;writing-mode:lr-tb;fill:#000000;fill-opacity:1;fill-rule:nonzero;stroke:none"
           id="text466"><tspan
             sodipodi:role="line"
             id="tspan468"
             x="0"
             y="0" /></text>
<g
           id="g4604"><text
             y="-285.85004"
             x="470.26013"
             id="text434"
             style="font-variant:normal;font-weight:bold;font-size:10px;font-family:Helvetica;-inkscape-font-specification:Helvetica-Bold;writing-mode:lr-tb;fill:#000000;fill-opacity:1;fill-rule:nonzero;stroke:none"
             transform="scale(1,-1)"><tspan
               id="tspan436"
               sodipodi:role="line"
               y="-285.85004"
               x="470.26013 476.93011 482.49014 488.60013 494.16013 498.05014 500.83014 509.72012 515.28003 521.38995">Experiment</tspan></text>
<path
             inkscape:connector-curvature="0"
             id="path438"
             style="fill:#ffffff;fill-opacity:1;fill-rule:nonzero;stroke:#cccccc;stroke-width:1.05999994;stroke-linecap:round;stroke-linejoin:round;stroke-miterlimit:10;stroke-dasharray:none;stroke-opacity:1"
             d="m 470.26,264.25 17.28,0 0,17.28 -17.28,0 0,-17.28 z" /><path
             inkscape:connector-curvature="0"
             id="path440"
             style="fill:#a6cee3;fill-opacity:1;fill-rule:nonzero;stroke:none"
             d="m 470.26,264.25 17.28,0 0,17.28 -17.28,0 0,-17.28 z" /><path
             inkscape:connector-curvature="0"
             id="path442"
             style="fill:#ffffff;fill-opacity:1;fill-rule:nonzero;stroke:#cccccc;stroke-width:1.05999994;stroke-linecap:round;stroke-linejoin:round;stroke-miterlimit:10;stroke-dasharray:none;stroke-opacity:1"
             d="m 470.26,246.97 17.28,0 0,17.28 -17.28,0 0,-17.28 z" /><path
             inkscape:connector-curvature="0"
             id="path444"
             style="fill:#1f78b4;fill-opacity:1;fill-rule:nonzero;stroke:none"
             d="m 470.26,246.97 17.28,0 0,17.28 -17.28,0 0,-17.28 z" /><path
             inkscape:connector-curvature="0"
             id="path446"
             style="fill:#ffffff;fill-opacity:1;fill-rule:nonzero;stroke:#cccccc;stroke-width:1.05999994;stroke-linecap:round;stroke-linejoin:round;stroke-miterlimit:10;stroke-dasharray:none;stroke-opacity:1"
             d="m 470.26,229.69 17.28,0 0,17.28 -17.28,0 0,-17.28 z" /><path
             inkscape:connector-curvature="0"
             id="path448"
             style="fill:#b2df8a;fill-opacity:1;fill-rule:nonzero;stroke:none"
             d="m 470.26,229.69 17.28,0 0,17.28 -17.28,0 0,-17.28 z" /><path
             inkscape:connector-curvature="0"
             id="path450"
             style="fill:#ffffff;fill-opacity:1;fill-rule:nonzero;stroke:#cccccc;stroke-width:1.05999994;stroke-linecap:round;stroke-linejoin:round;stroke-miterlimit:10;stroke-dasharray:none;stroke-opacity:1"
             d="m 470.26,212.41 17.28,0 0,17.28 -17.28,0 0,-17.28 z" /><path
             inkscape:connector-curvature="0"
             id="path452"
             style="fill:#33a02c;fill-opacity:1;fill-rule:nonzero;stroke:none"
             d="m 470.26,212.41 17.28,0 0,17.28 -17.28,0 0,-17.28 z" /><text
             y="-269.30005"
             x="489.70013"
             id="text454"
             style="font-variant:normal;font-weight:normal;font-size:10px;font-family:Helvetica;-inkscape-font-specification:Helvetica;writing-mode:lr-tb;fill:#000000;fill-opacity:1;fill-rule:nonzero;stroke:none"
             transform="scale(1,-1)"><tspan
               y="-269.30005"
               x="489.70013"
               id="tspan456"
               sodipodi:role="line">TSA+ (18h)</tspan></text>
<text
             y="-252.02005"
             x="489.70013"
             id="text458"
             style="font-variant:normal;font-weight:normal;font-size:10px;font-family:Helvetica;-inkscape-font-specification:Helvetica;writing-mode:lr-tb;fill:#000000;fill-opacity:1;fill-rule:nonzero;stroke:none"
             transform="scale(1,-1)"><tspan
               y="-252.02005"
               x="489.70013"
               id="tspan460"
               sodipodi:role="line">TSA+ (24h)</tspan></text>
<text
             y="-234.41998"
             x="489.70013"
             transform="scale(1,-1)"
             style="font-variant:normal;font-weight:normal;font-size:10px;font-family:Helvetica;-inkscape-font-specification:Helvetica;writing-mode:lr-tb;fill:#000000;fill-opacity:1;fill-rule:nonzero;stroke:none"
             id="text4596"><tspan
               sodipodi:role="line"
               id="tspan4598"
               x="489.70013"
               y="-234.41998">TSA- (HaeIII)</tspan></text>
<text
             id="text4600"
             style="font-variant:normal;font-weight:normal;font-size:10px;font-family:Helvetica;-inkscape-font-specification:Helvetica;writing-mode:lr-tb;fill:#000000;fill-opacity:1;fill-rule:nonzero;stroke:none"
             transform="scale(1,-1)"
             x="489.70013"
             y="-216.81992"><tspan
               y="-216.81992"
               x="489.70013"
               id="tspan4602"
               sodipodi:role="line">TSA- (MlucI)</tspan></text>
</g></g></g></g></svg>