<?xml version="1.0" encoding="UTF-8" standalone="no"?>
<!-- Created with Inkscape (http://www.inkscape.org/) -->

<svg
   xmlns:dc="http://purl.org/dc/elements/1.1/"
   xmlns:cc="http://creativecommons.org/ns#"
   xmlns:rdf="http://www.w3.org/1999/02/22-rdf-syntax-ns#"
   xmlns:svg="http://www.w3.org/2000/svg"
   xmlns="http://www.w3.org/2000/svg"
   xmlns:xlink="http://www.w3.org/1999/xlink"
   xmlns:sodipodi="http://sodipodi.sourceforge.net/DTD/sodipodi-0.dtd"
   xmlns:inkscape="http://www.inkscape.org/namespaces/inkscape"
   width="90.876373mm"
   height="78.141815mm"
   viewBox="0 0 322.0029 276.88045"
   id="svg2"
   version="1.1"
   inkscape:version="0.91 r13725"
   sodipodi:docname="genome_org.svg">
  <defs
     id="defs4">
    <linearGradient
       id="linearGradient4773"
       inkscape:collect="always">
      <stop
         id="stop4775"
         offset="0"
         style="stop-color:#ffffff;stop-opacity:1" />
      <stop
         id="stop4777"
         offset="1"
         style="stop-color:#dde9af;stop-opacity:0.86274511" />
    </linearGradient>
    <linearGradient
       inkscape:collect="always"
       id="linearGradient4725">
      <stop
         style="stop-color:#ffffff;stop-opacity:1"
         offset="0"
         id="stop4727" />
      <stop
         style="stop-color:#b9cdec;stop-opacity:0.85882354"
         offset="1"
         id="stop4729" />
    </linearGradient>
    <marker
       inkscape:stockid="StopM"
       orient="auto"
       refY="0.0"
       refX="0.0"
       id="marker4637"
       style="overflow:visible"
       inkscape:isstock="true">
      <path
         id="path4639"
         d="M 0.0,5.65 L 0.0,-5.65"
         style="fill:none;fill-opacity:0.75;fill-rule:evenodd;stroke:#999999;stroke-width:1pt;stroke-opacity:1"
         transform="scale(0.4)" />
    </marker>
    <marker
       inkscape:stockid="StopM"
       orient="auto"
       refY="0.0"
       refX="0.0"
       id="StopM"
       style="overflow:visible"
       inkscape:isstock="true">
      <path
         id="path4517"
         d="M 0.0,5.65 L 0.0,-5.65"
         style="fill:none;fill-opacity:0.75;fill-rule:evenodd;stroke:#999999;stroke-width:1pt;stroke-opacity:1"
         transform="scale(0.4)" />
    </marker>
    <marker
       inkscape:stockid="Torso"
       orient="auto"
       refY="0.0"
       refX="0.0"
       id="Torso"
       style="overflow:visible"
       inkscape:isstock="true">
      <g
         id="g4557"
         transform="scale(0.7)"
         style="stroke:#999999;stroke-opacity:1;fill:#999999;fill-opacity:1">
        <path
           id="path4559"
           d="M -4.7792281,-3.2395420 C -2.4288541,-2.8736027 0.52103922,-1.3019943 0.25792722,0.38794346 C -0.0051877922,2.0778819 -2.2126741,2.6176539 -4.5630471,2.2517169 C -6.9134221,1.8857769 -8.5210350,0.75201414 -8.2579220,-0.93792336 C -7.9948090,-2.6278615 -7.1296041,-3.6054813 -4.7792281,-3.2395420 z "
           style="fill:#999999;fill-opacity:1;fill-rule:evenodd;stroke:#999999;stroke-width:1.25;stroke-opacity:1" />
        <path
           id="path4561"
           d="M 4.4598789,0.088665736 C -2.5564571,-4.3783320 5.2248769,-3.9061806 -0.84829578,-8.7197331"
           style="fill:#999999;fill-opacity:1;fill-rule:evenodd;stroke:#999999;stroke-width:1pt;stroke-opacity:1" />
        <path
           id="path4563"
           d="M 4.9298719,0.057520736 C -1.3872731,1.7494689 1.8027579,5.4782079 -4.9448731,7.5462725"
           style="fill:#999999;fill-opacity:1;fill-rule:evenodd;stroke:#999999;stroke-width:1pt;stroke-opacity:1" />
        <rect
           id="rect4565"
           transform="matrix(0.527536,-0.849533,0.887668,0.460484,0,0)"
           y="-1.7408575"
           x="-10.391706"
           height="2.7608147"
           width="2.6366582"
           style="fill-rule:evenodd;stroke-width:1pt;stroke:#999999;stroke-opacity:1;fill:#999999;fill-opacity:1" />
        <rect
           id="rect4567"
           transform="matrix(0.671205,-0.741272,0.790802,0.612072,0,0)"
           y="-7.9629307"
           x="4.9587269"
           height="2.8614161"
           width="2.7327356"
           style="fill-rule:evenodd;stroke-width:1pt;stroke:#999999;stroke-opacity:1;fill:#999999;fill-opacity:1" />
        <path
           id="path4569"
           transform="matrix(0,-1.109517,1.109517,0,25.96648,19.71619)"
           d="M 16.779951 -28.685045 A 0.60731727 0.60731727 0 1 0 15.565317,-28.685045 A 0.60731727 0.60731727 0 1 0 16.779951 -28.685045 z"
           style="fill:#999999;fill-opacity:1;fill-rule:evenodd;stroke:#999999;stroke-width:1pt;stroke-opacity:1" />
        <path
           id="path4571"
           transform="matrix(0,-1.109517,1.109517,0,26.82450,16.99126)"
           d="M 16.779951 -28.685045 A 0.60731727 0.60731727 0 1 0 15.565317,-28.685045 A 0.60731727 0.60731727 0 1 0 16.779951 -28.685045 z"
           style="fill:#999999;fill-opacity:1;fill-rule:evenodd;stroke:#999999;stroke-width:1pt;stroke-opacity:1" />
      </g>
    </marker>
    <marker
       inkscape:stockid="Legs"
       orient="auto"
       refY="0.0"
       refX="0.0"
       id="Legs"
       style="overflow:visible"
       inkscape:isstock="true">
      <g
         id="g4544"
         transform="scale(-0.7)"
         style="stroke:#999999;stroke-opacity:1;fill:#999999;fill-opacity:1">
        <g
           id="g4546"
           transform="matrix(0,-1.000000,-1.000000,0,20.70862,21.31391)"
           style="stroke:#999999;stroke-opacity:1;fill:#999999;fill-opacity:1">
          <path
             id="path4548"
             d="M 21.221250,20.675360 C 14.311099,25.396517 18.766725,27.282204 15.380179,34.118595"
             style="fill:#999999;fill-opacity:1;fill-rule:evenodd;stroke:#999999;stroke-width:1pt;stroke-opacity:1" />
          <path
             id="path4550"
             d="M 21.398110,20.548120 C 20.037601,28.895644 24.934182,29.318060 25.903151,34.373078"
             style="fill:#999999;fill-opacity:1;fill-rule:evenodd;stroke:#999999;stroke-width:1pt;stroke-opacity:1" />
        </g>
        <path
           id="path4552"
           d="M -14.090070,-6.7318716 L -15.012238,-2.6884886 L -11.049487,-3.9115586 L -14.090070,-6.7318716 z "
           style="fill:#999999;fill-rule:evenodd;stroke-width:1pt;stroke:#999999;stroke-opacity:1;fill-opacity:1" />
        <path
           id="path4554"
           d="M -15.215679,4.5567534 L -13.341552,8.2563664 L -11.074678,4.7835114 L -15.215679,4.5567534 z "
           style="fill:#999999;fill-rule:evenodd;stroke-width:1pt;stroke:#999999;stroke-opacity:1;fill-opacity:1" />
      </g>
    </marker>
    <marker
       inkscape:stockid="StopL"
       orient="auto"
       refY="0.0"
       refX="0.0"
       id="StopL"
       style="overflow:visible"
       inkscape:isstock="true">
      <path
         id="path4514"
         d="M 0.0,5.65 L 0.0,-5.65"
         style="fill:none;fill-opacity:0.75;fill-rule:evenodd;stroke:#999999;stroke-width:1pt;stroke-opacity:1"
         transform="scale(0.8)" />
    </marker>
    <marker
       inkscape:stockid="StopS"
       orient="auto"
       refY="0.0"
       refX="0.0"
       id="StopS"
       style="overflow:visible"
       inkscape:isstock="true">
      <path
         id="path4520"
         d="M 0.0,5.65 L 0.0,-5.65"
         style="fill:none;fill-opacity:0.75;fill-rule:evenodd;stroke:#999999;stroke-width:1pt;stroke-opacity:1"
         transform="scale(0.2)" />
    </marker>
    <marker
       inkscape:stockid="CurveOut"
       orient="auto"
       refY="0.0"
       refX="0.0"
       id="CurveOut"
       style="overflow:visible"
       inkscape:isstock="true">
      <path
         id="path4532"
         d="M -5.4129913,-5.0456926 C -2.6529913,-5.0456926 -0.41299131,-2.8056926 -0.41299131,-0.045692580 C -0.41299131,2.7143074 -2.6529913,4.9543074 -5.4129913,4.9543074"
         style="fill:none;fill-rule:evenodd;stroke:#999999;stroke-width:1pt;stroke-opacity:1"
         transform="scale(0.6)" />
    </marker>
    <marker
       inkscape:stockid="RazorWire"
       id="RazorWire"
       refX="0"
       refY="0"
       orient="auto"
       style="overflow:visible"
       inkscape:isstock="true">
      <path
         id="path4577"
         transform="scale(0.8,0.8)"
         style="fill:#999999;fill-opacity:1;fill-rule:evenodd;stroke:#999999;stroke-width:0.1pt;stroke-opacity:1"
         d="M 0.022727273,-0.74009011 L 0.022727273,0.69740989 L -7.7585227,3.0099099 L 10.678977,3.0099099 L 3.4914773,0.69740989 L 3.4914773,-0.74009011 L 10.741477,-2.8963401 L -7.7272727,-2.8963401 L 0.022727273,-0.74009011 z " />
    </marker>
    <marker
       style="overflow:visible"
       inkscape:stockid="InfiniteLineStart"
       id="InfiniteLineStart"
       refX="0"
       refY="0"
       orient="auto"
       inkscape:isstock="true">
      <g
         id="g4589"
         style="fill:#999999;stroke:#999999;stroke-opacity:1;fill-opacity:1"
         transform="translate(-13,0)">
        <circle
           id="circle4591"
           r="0.8"
           cy="0"
           cx="3"
           style="stroke:#999999;stroke-opacity:1;fill:#999999;fill-opacity:1" />
        <circle
           id="circle4593"
           r="0.8"
           cy="0"
           cx="6.5"
           style="stroke:#999999;stroke-opacity:1;fill:#999999;fill-opacity:1" />
        <circle
           id="circle4595"
           r="0.8"
           cy="0"
           cx="10"
           style="stroke:#999999;stroke-opacity:1;fill:#999999;fill-opacity:1" />
      </g>
    </marker>
    <marker
       style="overflow:visible"
       inkscape:stockid="InfiniteLineEnd"
       id="InfiniteLineEnd"
       refX="0"
       refY="0"
       orient="auto"
       inkscape:isstock="true">
      <g
         id="g4580"
         style="fill:#999999;stroke:#999999;stroke-opacity:1;fill-opacity:1">
        <circle
           id="circle4582"
           r="0.8"
           cy="0"
           cx="3"
           style="stroke:#999999;stroke-opacity:1;fill:#999999;fill-opacity:1" />
        <circle
           id="circle4584"
           r="0.8"
           cy="0"
           cx="6.5"
           style="stroke:#999999;stroke-opacity:1;fill:#999999;fill-opacity:1" />
        <circle
           id="circle4586"
           r="0.8"
           cy="0"
           cx="10"
           style="stroke:#999999;stroke-opacity:1;fill:#999999;fill-opacity:1" />
      </g>
    </marker>
    <marker
       inkscape:stockid="DotS"
       orient="auto"
       refY="0"
       refX="0"
       id="DotS"
       style="overflow:visible"
       inkscape:isstock="true">
      <path
         id="path4441"
         d="m -2.5,-1 c 0,2.76 -2.24,5 -5,5 -2.76,0 -5,-2.24 -5,-5 0,-2.76 2.24,-5 5,-5 2.76,0 5,2.24 5,5 z"
         style="fill:#000000;fill-opacity:1;fill-rule:evenodd;stroke:#000000;stroke-width:1pt;stroke-opacity:1"
         transform="matrix(0.2,0,0,0.2,1.48,0.2)"
         inkscape:connector-curvature="0" />
    </marker>
    <clipPath
       clipPathUnits="userSpaceOnUse"
       id="clipPath4215">
      <path
         d="m 238.60412,537.02545 a 44.349468,44.349468 0 0 1 -44.27884,44.34941 44.349468,44.349468 0 0 1 -44.41987,-44.20815 44.349468,44.349468 0 0 1 44.13735,-44.49022 44.349468,44.349468 0 0 1 44.56046,44.06644"
         sodipodi:open="true"
         sodipodi:end="6.2768149"
         sodipodi:start="0"
         sodipodi:ry="44.349468"
         sodipodi:rx="44.349468"
         sodipodi:cy="537.02545"
         sodipodi:cx="194.25465"
         sodipodi:type="arc"
         id="path4217"
         style="opacity:1;fill:#dde9af;fill-opacity:0.86263733;fill-rule:nonzero;stroke:none;stroke-width:0.5;stroke-linecap:round;stroke-linejoin:round;stroke-miterlimit:10;stroke-dasharray:none;stroke-dashoffset:0;stroke-opacity:1" />
    </clipPath>
    <clipPath
       clipPathUnits="userSpaceOnUse"
       id="clipPath4746">
      <path
         d="m 204.024,542.4754 a 13.42927,10.640346 0 0 1 -13.40789,10.64033 13.42927,10.640346 0 0 1 -13.45059,-10.60644 13.42927,10.640346 0 0 1 13.36504,-10.67411 13.42927,10.640346 0 0 1 13.49316,10.57244"
         sodipodi:open="true"
         sodipodi:end="6.2768149"
         sodipodi:start="0"
         sodipodi:ry="10.640346"
         sodipodi:rx="13.42927"
         sodipodi:cy="542.4754"
         sodipodi:cx="190.59473"
         sodipodi:type="arc"
         id="path4748"
         style="opacity:0.48900003;fill:#b3b3b3;fill-opacity:1;fill-rule:nonzero;stroke:none;stroke-width:1.5;stroke-linecap:round;stroke-linejoin:round;stroke-miterlimit:4;stroke-dasharray:none;stroke-dashoffset:0;stroke-opacity:1" />
    </clipPath>
    <radialGradient
       inkscape:collect="always"
       xlink:href="#linearGradient4725"
       id="radialGradient4731"
       cx="104.55235"
       cy="499.90033"
       fx="104.55235"
       fy="499.90033"
       r="35.118355"
       gradientUnits="userSpaceOnUse" />
    <radialGradient
       inkscape:collect="always"
       xlink:href="#linearGradient4725"
       id="radialGradient4755"
       cx="112.78011"
       cy="557.89575"
       fx="112.78011"
       fy="557.89575"
       r="30.904152"
       gradientUnits="userSpaceOnUse" />
    <radialGradient
       inkscape:collect="always"
       xlink:href="#linearGradient4725"
       id="radialGradient4763"
       cx="132.04503"
       cy="611.677"
       fx="132.04503"
       fy="611.677"
       r="30.904152"
       gradientUnits="userSpaceOnUse" />
    <radialGradient
       inkscape:collect="always"
       xlink:href="#linearGradient4773"
       id="radialGradient4771"
       cx="194.05399"
       cy="537.6275"
       fx="194.05399"
       fy="537.6275"
       r="40.737293"
       gradientUnits="userSpaceOnUse" />
    <radialGradient
       inkscape:collect="always"
       xlink:href="#linearGradient4773"
       id="radialGradient4785"
       cx="191.24452"
       cy="591.00739"
       fx="191.24452"
       fy="591.00739"
       r="17.860195"
       gradientUnits="userSpaceOnUse" />
  </defs>
  <sodipodi:namedview
     id="base"
     pagecolor="#ffffff"
     bordercolor="#666666"
     borderopacity="1.0"
     inkscape:pageopacity="0.0"
     inkscape:pageshadow="2"
     inkscape:zoom="2.5889134"
     inkscape:cx="152.95993"
     inkscape:cy="86.140418"
     inkscape:document-units="px"
     inkscape:current-layer="layer1"
     showgrid="false"
     inkscape:window-width="1680"
     inkscape:window-height="1028"
     inkscape:window-x="1380"
     inkscape:window-y="1050"
     inkscape:window-maximized="1"
     fit-margin-top="1"
     fit-margin-left="1"
     fit-margin-right="1"
     fit-margin-bottom="1" />
  <metadata
     id="metadata7">
    <rdf:RDF>
      <cc:Work
         rdf:about="">
        <dc:format>image/svg+xml</dc:format>
        <dc:type
           rdf:resource="http://purl.org/dc/dcmitype/StillImage" />
        <dc:title></dc:title>
      </cc:Work>
    </rdf:RDF>
  </metadata>
  <g
     inkscape:label="Layer 1"
     inkscape:groupmode="layer"
     id="layer1"
     transform="translate(-43.890691,-432.76947)">
    <g
       id="g4759"
       transform="translate(-22,0)">
      <g
         id="g4178">
        <path
           style="opacity:1;fill:url(#radialGradient4731);fill-opacity:1;fill-rule:nonzero;stroke:none;stroke-width:0.5;stroke-linecap:round;stroke-linejoin:round;stroke-miterlimit:10;stroke-dasharray:none;stroke-dashoffset:0;stroke-opacity:1"
           id="path4144"
           sodipodi:type="arc"
           sodipodi:cx="104.55235"
           sodipodi:cy="499.90033"
           sodipodi:rx="35.118355"
           sodipodi:ry="35.118355"
           sodipodi:start="0"
           sodipodi:end="6.2768149"
           sodipodi:open="true"
           d="M 139.67071,499.90033 A 35.118355,35.118355 0 0 1 104.60828,535.01864 35.118355,35.118355 0 0 1 69.434176,500.01219 35.118355,35.118355 0 0 1 104.38456,464.78238 35.118355,35.118355 0 0 1 139.67,499.67661" />
        <path
           style="opacity:1;fill:url(#radialGradient4763);fill-opacity:1.0;fill-rule:nonzero;stroke:none;stroke-width:0.5;stroke-linecap:round;stroke-linejoin:round;stroke-miterlimit:10;stroke-dasharray:none;stroke-dashoffset:0;stroke-opacity:1"
           id="path4146"
           sodipodi:type="arc"
           sodipodi:cx="132.04503"
           sodipodi:cy="611.677"
           sodipodi:rx="30.904152"
           sodipodi:ry="30.904152"
           sodipodi:start="0"
           sodipodi:end="6.2768149"
           sodipodi:open="true"
           d="m 162.94918,611.677 a 30.904152,30.904152 0 0 1 -30.85493,30.90411 30.904152,30.904152 0 0 1 -30.95322,-30.80567 30.904152,30.904152 0 0 1 30.75635,-31.00224 30.904152,30.904152 0 0 1 31.05117,30.70693" />
        <path
           d="m 143.68427,557.89575 a 30.904152,30.904152 0 0 1 -30.85494,30.90411 30.904152,30.904152 0 0 1 -30.953212,-30.80567 30.904152,30.904152 0 0 1 30.756342,-31.00224 30.904152,30.904152 0 0 1 31.05118,30.70693"
           sodipodi:open="true"
           sodipodi:end="6.2768149"
           sodipodi:start="0"
           sodipodi:ry="30.904152"
           sodipodi:rx="30.904152"
           sodipodi:cy="557.89575"
           sodipodi:cx="112.78011"
           sodipodi:type="arc"
           id="path4148"
           style="opacity:1;fill:url(#radialGradient4755);fill-opacity:1.0;fill-rule:nonzero;stroke:none;stroke-width:0.5;stroke-linecap:round;stroke-linejoin:round;stroke-miterlimit:10;stroke-dasharray:none;stroke-dashoffset:0;stroke-opacity:1" />
        <path
           style="opacity:1;fill:url(#radialGradient4785);fill-opacity:1.0;fill-rule:nonzero;stroke:none;stroke-width:0.5;stroke-linecap:round;stroke-linejoin:round;stroke-miterlimit:10;stroke-dasharray:none;stroke-dashoffset:0;stroke-opacity:1"
           id="path4152"
           sodipodi:type="arc"
           sodipodi:cx="191.24452"
           sodipodi:cy="591.00739"
           sodipodi:rx="17.860195"
           sodipodi:ry="17.860195"
           sodipodi:start="0"
           sodipodi:end="6.2768149"
           sodipodi:open="true"
           d="m 209.10472,591.00739 a 17.860195,17.860195 0 0 1 -17.83175,17.86017 17.860195,17.860195 0 0 1 -17.88855,-17.80329 17.860195,17.860195 0 0 1 17.77477,-17.91688 17.860195,17.860195 0 0 1 17.94516,17.74622" />
        <path
           d="m 234.79128,537.6275 a 40.737293,40.737293 0 0 1 -40.67242,40.73724 40.737293,40.737293 0 0 1 -40.80196,-40.60748 40.737293,40.737293 0 0 1 40.54245,-40.86659 40.737293,40.737293 0 0 1 40.9311,40.47732"
           sodipodi:open="true"
           sodipodi:end="6.2768149"
           sodipodi:start="0"
           sodipodi:ry="40.737293"
           sodipodi:rx="40.737293"
           sodipodi:cy="537.6275"
           sodipodi:cx="194.05399"
           sodipodi:type="arc"
           id="path4150"
           style="opacity:1;fill:url(#radialGradient4771);fill-opacity:1.0;fill-rule:nonzero;stroke:none;stroke-width:0.5;stroke-linecap:round;stroke-linejoin:round;stroke-miterlimit:10;stroke-dasharray:none;stroke-dashoffset:0;stroke-opacity:1" />
        <path
           style="fill:none;fill-rule:evenodd;stroke:#999999;stroke-width:1px;stroke-linecap:butt;stroke-linejoin:miter;stroke-opacity:1;marker-end:url(#marker4637);marker-start:url(#StopM)"
           d="m 132.93921,436.94534 c -6.29385,0.34624 -12.87832,-1.04711 -18.90946,1.14603 -2.24436,0.81613 -4.14425,2.57452 -6.30315,3.43808 -0.35469,0.14188 -0.82818,-0.2119 -1.14603,0 -2.6544,1.7696 -1.77635,4.87068 -2.29205,7.44918 -0.20172,1.00862 -0.94431,1.85646 -1.14603,2.86507 -1.22795,6.13974 2.58689,17.74678 0,22.92056 -0.29169,0.58338 -6.760576,10.54542 -8.022193,8.02219 -0.835075,-1.67015 3.24548,-4.71091 4.584111,-5.15713 0.144731,-0.0482 7.951502,0.50232 6.303152,-1.14602 -1.02879,-1.0288 -2.68497,1.75176 -2.86507,2.29205 -1.80485,5.41455 6.00954,8.0222 -4.011096,8.0222 -0.764018,0 -1.608696,0.34168 -2.292055,0 -0.842772,-0.42139 0.816451,-2.1822 1.146027,-2.29206 2.373824,-0.79128 4.618384,-1.96195 6.876164,-2.86507 0.40695,-0.16278 2.51954,0.34553 2.86507,0 0.22884,-0.22883 0.0557,-3.95543 0,-4.0111 -1.3506,-1.3506 -2.87571,-2.58388 -4.58411,-3.43808 -1.40878,-0.70439 -3.10387,-0.60776 -4.58411,-1.14603 -1.316518,-0.47873 -3.226578,-2.29205 -4.58411,-2.29205 -0.397205,0 -1.577957,3.72025 -1.146028,4.58411 0.812354,1.62471 8.306398,6.51631 10.314248,8.02219 0.59773,0.4483 2.48497,0.76593 2.86507,1.14603 1.40882,1.40882 0.92075,6.9888 0,7.44918 -0.60054,0.30027 -2.20197,0 -2.86507,0 -0.57301,0 -1.31386,0.40518 -1.71904,0 -1.562465,-1.56246 -5.590258,-0.86626 -5.730139,-1.14603 -0.611215,-1.22243 0.611215,-3.36168 0,-4.58411 -0.138516,-0.27703 -1.941786,-0.0952 -2.292055,-1.14603 -1.932954,-5.79886 3.097673,-4.58411 -8.595208,-4.58411 -0.124768,0 -5.008609,-0.50928 -5.730138,0.57302 -0.263208,0.39481 0,3.7237 0,4.01109 0,7.33788 2.860561,5.15262 6.876166,9.16823 0.405182,0.40518 -0.181203,1.17543 0,1.71904 0.543452,1.63035 1.719041,1.2853 1.719041,3.43808 0,0.76402 0.191005,0.57301 -0.573014,0.57301 -3.415028,0 -1.439299,-4.48635 -1.146027,-4.58411 4.540848,-1.51361 4.58411,1.17456 4.58411,4.58411 0,0.57302 0.317851,1.24227 0,1.71905 -0.2119,0.31785 -0.783621,-0.12081 -1.146027,0 -0.512519,0.17084 -0.66282,0.90442 -1.146028,1.14602 -1.406985,0.7035 -4.964281,0.003 -5.730138,-1.14602 -0.167446,-0.25117 0,-2.16735 0,-2.29206 0,-5.54236 3.581818,-3.79646 7.44918,-5.73014 0.883328,-0.44166 -0.202896,-3.90965 -2.292056,-2.86507 -1.229669,0.61484 -0.02637,0.62576 -0.573014,1.71904 -1.114343,2.22869 -2.039153,4.09425 -2.292055,6.87617 -0.09989,1.09877 0.783231,9.95145 -1.719041,7.44918 -0.151681,-0.15168 0,-1.48309 0,-1.71904 0,-4.45691 0.895692,-5.73014 5.157124,-5.73014 0.764019,0 1.751813,-0.54024 2.292055,0 0.46139,0.46139 2.258472,3.37092 2.86507,4.58411 0.229205,0.45841 -0.229206,1.26063 0,1.71904 0.120802,0.24161 0.843135,0.57302 0.573014,0.57302 -0.06976,0 0.114148,-5.04298 0,-5.15713 -0.405182,-0.40518 -1.146028,0 -1.719042,0 -0.601975,0 -1.786239,-0.1686 -2.292055,0 -1.225392,0.40847 -1.725059,5.14509 -1.146028,6.30315 0.101652,0.20331 5.41296,0.15859 5.730138,0 0.38201,-0.191 0.271009,-0.84402 0.573014,-1.14602 0.558276,-0.55828 3.168642,-0.86521 4.011097,-1.14603 3.347936,-1.11598 17.854846,0 21.774526,0 5.20041,0 9.16822,-1.2805 9.16822,4.58411 0,1.88643 -0.6438,2.91226 -2.29205,4.0111 -0.47678,0.31785 -1.17544,-0.18121 -1.71905,0 -4.28693,1.42897 -7.68318,1.01704 -9.16822,-3.43809 -1.04675,-3.14026 0.31312,-4.74066 2.29206,-5.73013 0.76402,-0.38201 2.10105,0.382 2.86507,0 0.15988,-0.0799 0.074,-3.71507 0,-4.0111 -0.67117,-2.68465 -7.37954,-4.08074 -8.59521,-2.86507 -1.1626,1.16259 1.02716,10.30713 1.71904,11.46028 0.48665,0.81108 2.90006,1.64905 2.29206,2.86506 -0.4738,0.9476 -0.46855,0.40365 -1.14603,0.57302 -3.47449,0.86862 -3.6472,1.03738 -4.0111,-1.14603 -0.1256,-0.75362 -0.4238,-1.65635 0,-2.29205 0.77846,-1.16769 2.73133,-2.92618 4.0111,-3.43809 3.72515,-1.49006 4.17017,2.38784 5.73014,-2.29205 0.24332,-0.72997 1.0207,-1.39668 0.57301,-2.29206 -0.35983,-0.71966 -1.14603,1.9386 -1.14603,3.43809 0,2.52367 2.00845,7.30447 1.71905,7.44917 -2.15639,1.0782 -7.28899,0 -9.74124,0 -0.57301,0 -1.31386,0.40519 -1.71904,0 -0.40518,-0.40518 0.31785,-1.24226 0,-1.71904 -0.76402,-1.14602 -1.71904,0.19101 -1.71904,-1.71904 0,-1.00612 13.03541,-0.14304 14.32534,-0.57301 4.42586,-1.47529 0.48034,-8.40985 -2.29205,-2.86507 -0.89329,1.78657 1.33938,6.68281 0,8.02219 -0.4691,0.4691 -10.75266,8.35934 -11.46028,8.59521 -4.7423,1.58077 -12.606304,-1.47411 -12.606304,3.43808 0,0.77028 -0.338172,2.76174 0,3.43809 0.702566,1.40513 7.542114,0.57301 9.741234,0.57301 0.19101,0 0.57302,-0.191 0.57302,0 0,0.191 -0.57302,0.191 -0.57302,0 0,-0.27012 0.33141,-0.45221 0.57302,-0.57301 1.78686,-0.89344 2.77435,-5.03769 2.29205,-7.44918 -1.44744,-7.23719 -17.730211,0.90934 -16.044387,3.43808 1.0937,1.64055 4.698138,0.74477 6.303157,1.14603 1.98623,0.49656 -0.39041,3.80331 -1.146032,2.29205 -2.208822,-4.41764 4.444132,-7.34419 6.876162,-9.16822 0.55095,-0.41321 1.23208,-0.65906 1.71905,-1.14603 0.13506,-0.13506 -0.19101,-0.57301 0,-0.57301 0.97393,0 -0.57302,1.89113 -0.57302,2.86507 0,0.54673 1.15181,3.7217 0.57302,4.0111 -0.66195,0.33097 -4.48477,1.02125 -5.15713,0.57301 -1.34885,-0.89923 -2.22076,-3.9398 -3.438082,-5.15713 -0.342451,-0.34245 -1.146028,0.61936 -1.146028,-0.57301 0,-0.191 0.402174,0.0854 0.573014,0 3.076066,-1.53803 -5.363096,0.68245 2.865066,-1.14603 0.74006,-0.16445 14.34959,-2.26781 14.89836,-1.71904 0.37224,0.37224 3.37883,7.21214 3.43809,7.44918 0.16469,0.65878 -0.29419,1.70368 0,2.29206 0.17084,0.34168 0.97518,-0.34168 1.14602,0 0.51252,0.45202 -0.25626,1.20652 0,1.71904 0.53972,1.07944 2.53333,0.84444 3.43809,1.14603 1.0709,0.35696 1.75461,1.75461 2.29205,2.29205 2.38282,2.38282 7.55205,2.29206 10.88727,2.29206 2.40483,0 5.86882,0.48854 8.02219,1.71904 0.82919,0.47382 1.41425,1.34284 2.29205,1.71904 2.32335,0.99572 11.26237,1.05225 13.17932,0.57301 0.52411,-0.13102 0.64443,-0.94538 1.14603,-1.14602 0.53203,-0.21282 1.17543,0.1812 1.71904,0 1.80049,-0.60017 5.22071,-2.33445 6.87617,-3.43809 5.49349,-3.66232 4.2246,-6.87616 11.46027,-6.87616 2.20515,0 5.56935,0.30916 7.44918,1.71904 3.01311,2.25983 0.89461,12.00404 0.57302,14.89836 -0.0633,0.56951 0.1812,1.17543 0,1.71904 -0.1812,0.54361 -1.14603,0 -1.71904,0 -3.97824,0 -8.88077,-6.01759 -5.73014,-9.16822 0.40518,-0.40518 1.14603,0 1.71904,0 0.50848,0 2.34579,-0.25964 2.86507,0 2.63993,1.31996 2.1683,9.29198 0.57301,10.88726 -1.19246,1.19246 -3.19101,0.22474 -4.58411,0.57302 -0.58597,0.14649 -1.1788,0.30289 -1.71904,0.57301 -0.17084,0.0854 0.19101,0.57301 0,0.57301 -0.191,0 -0.191,-0.57301 0,-0.57301 0.86185,0 2.79199,0.57301 4.0111,0.57301 2.67369,0 5.54234,0.25361 8.02219,-0.57301 0.80087,-0.26696 1.12532,-1.69834 1.71904,-2.29206 0.31707,-0.31706 1.09954,-1.76553 0.57302,-2.29205 -0.67531,-0.6753 -1.91005,0 -2.86507,0 -0.54077,0 -4.79421,-0.46797 -5.73014,0 -0.57273,0.28636 -4.45452,8.15178 -6.87617,5.73014 -2.32303,-2.32304 3.09706,-6.87617 5.73014,-6.87617 1.9165,0 2.19152,0.94496 2.86507,2.29206 0.11893,0.23785 1.51903,-0.20002 1.71904,0 0.48697,0.48696 0.83804,1.10307 1.14603,1.71904 0.58498,1.16996 0.0114,2.8879 0.57301,4.01109 0.53348,1.06696 5.56396,-0.95215 5.73014,-1.14602 0.83022,-0.96859 4.10951,-6.72855 2.86507,-8.59521 -1.05863,-1.58795 -2.38442,-1.14603 -4.0111,-1.14603 -1.29589,0 -3.96701,-0.47604 -5.15712,0 -4.59978,1.83992 -4.0111,9.19637 -4.0111,11.46028 -3.61124,3.24254 0.58128,9.72471 -1.14602,13.17932 -1.24671,2.4934 -1.70555,4.03809 -1.14603,5.15712 0.38201,0.76402 1.62504,0.61242 2.29205,1.14603 0.48376,0.387 3.02113,3.85504 4.0111,2.86507 0.28027,-0.28027 0.12027,-4.22331 0,-4.58411 -0.42252,-1.26758 -1.17744,-0.0314 -1.71904,-0.57302 -0.27012,-0.27012 0.34168,-0.97518 0,-1.14602 -3.36916,-1.68459 -10.31425,5.57585 -10.31425,1.71904 0,-2.68764 -0.27012,0.54024 1.14603,-2.29206 0.17084,-0.34168 -0.12081,-0.78362 0,-1.14603 1.00451,-3.01354 7.96416,-2.76207 10.31425,-2.29205 5.18309,1.03662 -1.55644,0.0542 1.71904,1.14603 0.90601,0.302 1.92859,-0.1873 2.86507,0 0.83761,0.16752 1.48169,1.41615 2.29205,1.14602 0.80776,-0.26925 3.18422,-4.26496 2.29206,-5.15712 -1.38963,-1.38962 -6.7017,0.7224 -7.44918,1.71904 -0.58836,0.78447 0.17216,3.83894 -0.57302,4.58411 -0.66703,0.66703 -4.86203,0.57302 -5.73013,0.57302 -0.62828,0 -2.2246,1.21348 -2.86507,0.57301 -1.99052,-1.99052 3.18652,-6.47685 4.58411,-6.87617 5.45196,-1.5577 14.2186,1.75463 19.48247,0 0.65333,-0.21778 1.07962,-0.89026 1.71904,-1.14602 0.35469,-0.14188 0.82818,0.2119 1.14603,0 0.52967,-0.35312 1.00029,-2.85514 1.14602,-3.43809 0.69374,-2.77496 0.56799,-28.85007 0,-29.79672 -2.926,-4.87667 -6.69901,-2.25049 -8.02219,1.71904 -2.15156,6.4547 20.95362,-0.74368 18.33644,-8.5952 -0.47339,-1.42019 -5.39309,-0.60671 -6.30315,0 -3.11255,2.07503 -1.99406,5.43214 -4.0111,7.44918 -0.2817,0.2817 -2.16378,0.44474 -2.29205,0.57301 -0.27012,0.27012 0.17084,0.80435 0,1.14603 -0.0702,0.14031 -4.6313,0.17527 -5.15713,0 -1.70493,-0.56831 -3.2129,-11.28636 -2.86506,-11.46028 2.19517,-1.09758 8.97725,1.337 9.74123,0.57302 0.64254,-0.64254 -0.31104,-4.06017 -0.57301,-4.58412 -0.56132,-1.12262 -7.90332,-1.20546 -9.16822,-0.57301 -0.34168,0.17084 0.17083,0.80435 0,1.14603 -0.79685,1.59368 -5.01803,3.71628 -4.0111,5.73014 0.43556,0.87111 1.92545,-0.31676 2.86507,-0.57302 1.58737,-0.43292 8.42345,-1.94853 9.16822,-3.43808 0.40266,-0.80532 2.55897,-3.34911 0.57301,-4.0111 -1.46033,-0.48677 -6.01561,-0.14377 -7.44918,0.57302 -0.8542,0.4271 -0.92441,1.7623 -1.71904,2.29205 -0.95165,0.63444 -2.98216,1.03308 -4.0111,1.71904 -1.76312,1.17542 -2.82099,3.4087 -4.58411,4.58411 -1.04174,0.6945 -3.21805,0.35299 -4.01109,1.14603 -0.27012,0.27012 0.34168,0.97519 0,1.14603 -4.34356,2.17178 -9.6664,2.27335 -14.32535,3.43808 -1.51846,0.37962 -5.87377,6.73254 -4.0111,8.59521 1.97404,1.97403 8.74072,-3.65635 9.74124,-5.15712 0.31785,-0.47678 -0.1812,-1.17544 0,-1.71905 0.14704,-0.44112 1.21934,-1.64572 0.57301,-2.29205 -0.44425,-0.44425 -8.76446,-0.8986 -9.74123,-0.57301 -1.00505,0.33501 -2.63016,2.29205 -3.43809,2.29205 -0.70975,0 0.72552,-5.88264 1.14603,-6.30315 2.23632,-2.23632 0.30774,0.13264 1.71904,-0.57302 6.19208,-3.09603 4.0542,9.12512 4.0111,9.16823 -0.27012,0.27012 -0.87591,-0.27013 -1.14603,0 -0.7225,0.7225 -5.17768,5.68901 -4.58411,6.87616 1.04999,2.09998 6.61636,-1.04282 7.44918,-2.29205 0.41786,-0.62679 -0.33795,-2.18916 0,-2.86507 0.0854,-0.17084 0.57302,0.191 0.57302,0 0,-1.39508 -8.99744,-0.34158 -9.74124,1.14603 0,2.60852 0.27012,0.0328 -0.57301,1.71904 -1.01819,2.03637 0.32041,6.94398 1.14602,8.5952 0.22361,0.44722 1.03423,0.34941 1.14603,0.57302 0.95661,1.91321 0.48165,11.64302 -0.57301,13.75233 -0.17084,0.34168 -0.87591,-0.27012 -1.14603,0 -1.00504,1.00504 1.60347,1.14603 -1.14603,1.14603 -0.95502,0.76402 -1.84745,1.61364 -2.86507,2.29205 -2.32844,1.5523 -17.22036,-1.49582 -21.20151,-2.29205 -3.38948,-0.6779 -6.64029,-2.40444 -9.74123,-3.43808 -1.29739,-0.43247 -3.36998,0.60706 -4.58411,0 -1.78738,-0.89369 -1.93669,-2.9739 -4.0111,-4.0111 -1.30219,-0.6511 -2.23089,-1.68846 -3.43808,-2.29206 -1.66962,-0.8348 -7.60503,-0.33925 -8.59521,1.14603 -0.49626,0.74439 -0.36158,3.16534 -0.57302,4.0111 -0.0407,0.16274 -1.70784,1.26511 -0.57301,1.71904 2.71003,1.08401 11.99306,0.27439 14.32535,0 4.35373,-0.5122 1.61931,-0.85699 4.01109,-2.29206 1.13377,-0.68026 2.12431,-0.97827 2.86507,-1.71904 1.56809,-1.56809 -3.86661,-5.44314 -4.58411,-5.73014 -1.07874,-0.43149 -2.28102,-0.46782 -3.43808,-0.57301 -1.00902,-0.0917 -4.8518,-0.87834 -5.15713,-0.57301 -0.6254,0.6254 -0.39831,3.26338 -1.14602,4.01109 -0.5885,0.5885 -5.38655,3.78168 -6.30316,2.86507 -0.54046,-0.54046 -0.57301,-5.64924 -0.57301,-6.30315 0,-0.57689 -0.18179,-2.31969 0,-2.86507 0.65734,-1.97201 4.9979,-2.65818 6.87617,-1.71904 0.50252,0.25126 -0.67545,11.15299 -0.57302,11.46028 0.13506,0.40518 0.72474,0.64322 1.14603,0.57301 2.08432,-0.34739 9.74124,-6.07689 9.74124,-8.02219 0,-0.59242 -7.96684,-1.88512 -8.59521,0 -0.76015,2.28045 1.06609,5.89 0,8.02219 -0.25626,0.51252 -1.20652,-0.25626 -1.71904,0 -2.33282,1.16641 -5.98621,4.45608 -9.16822,2.86507 -0.26205,-0.13103 0.0263,-3.90604 0,-4.0111 -0.28878,-1.15509 -1.65062,-4.34749 -2.86507,-5.15712 -0.60337,-0.40225 -3.25941,-0.32245 -4.0111,-0.57302 -0.5464,-0.18213 -3.538906,-0.31479 -4.011097,0 -1.242515,0.82835 -1.014704,2.16074 -1.719042,2.86507 -1.45135,1.45135 -4.046974,1.75492 -5.730138,3.43809 -0.955276,0.95527 -0.504564,2.2236 -1.146028,2.86507 -0.249857,0.24985 -1.139882,-5.16942 -0.573014,-6.30316 0.633483,-1.26696 0.355637,-0.17782 1.146028,-0.57301 0.382009,-0.19101 0.191004,-0.95502 0.573014,-1.14603 5.32946,-2.66473 10.338207,9.91627 11.460277,9.16822 2.47304,-1.64869 0.85519,-10.59642 -2.292056,-7.44918 -0.573014,0.57302 -1.269532,1.04478 -1.719041,1.71904 -0.77418,1.16127 -0.471658,9.50541 -3.438083,8.0222 -0.731151,-0.36558 0.539564,-2.30321 2.292055,-1.71904 0.70303,0.23434 2.309993,2.01451 2.865069,2.29205 1.036946,0.51848 5.074446,1.18737 6.303156,0.57302 3.76633,-1.88317 -1.54152,-8.47686 -3.43809,-9.74124 -0.9886,-0.65907 -6.773708,-0.10245 -7.449177,0.57301 -0.633209,0.63321 -1.047761,4.20763 -0.573013,5.15713 0.439482,0.87896 5.932842,-0.40541 6.30315,-1.14603 1.01233,-2.02466 -3.670966,-1.25327 -4.011095,-0.57301 -0.584871,1.16974 0.52342,5.43123 1.719041,5.73014 2.721624,0.6804 1.223887,-0.49516 2.292054,0.57301 0.46608,0.46608 3.34676,-0.13287 4.0111,0 1.18882,0.23776 4.55648,-0.0138 5.73014,0.57301 0.97241,0.48621 1.58836,1.86984 2.29205,2.29206 0.67531,0.40518 1.60829,0.18229 2.29206,0.57301 1.40718,0.80411 2.1725,2.42563 3.43808,3.43809 0.5816,0.46528 1.3538,0.41554 1.71904,1.14602 1.14774,2.29549 -5.5441,5.53665 -7.44918,4.58411 -0.76402,-0.38201 -0.8759,-1.48169 -1.14603,-2.29205 -1.61426,-4.8428 7.70281,-4.0111 10.31425,-4.0111 8.82077,0 -4.01109,8.15916 -4.01109,1.14603 0,-0.4845 -0.29816,-1.9939 0,-2.29206 1.75881,-1.75881 0.47644,0.33479 2.29205,-0.57301 0.17084,-0.0854 0,-0.38201 0,-0.57301 0.38201,-0.19101 0.74085,-0.43796 1.14603,-0.57302 5.21348,-1.73782 4.01808,8.02569 5.15712,8.59521 1.36576,0.68288 4.50945,-2.93974 3.43809,-4.0111 -1.39573,-1.39572 -2.16998,-1.193 -4.0111,-1.71904 -5.89711,-1.68489 -7.44918,-1.2316 -7.44918,4.58411 0,0.99563 -0.40781,2.62246 0,3.43809 5.23712,1.49314 9.97797,4.33456 14.40551,7.45024 1.93153,1.35922 3.8301,2.56941 5.81962,3.81285 0.0638,0.0399 1.31904,1.20406 1.20405,1.20406 -0.0669,0 -0.0669,-0.20068 0,-0.20068 0.0946,0 0.11607,0.15837 0.20068,0.20068 0.39145,0.19573 1.34607,0 1.80609,0 1.58617,0 3.47937,-0.30751 5.0169,0 2.53308,0.50661 4.56464,2.47341 7.22435,2.20744 3.223,-0.3223 3.28957,-1.56714 5.61894,-2.80947 0.29511,-0.15739 0.6699,0.0256 1.00338,0 0.53771,-0.0414 1.07535,-0.10129 1.60541,-0.20068 3.3243,-0.6233 6.67075,-1.157 10.03382,-1.60541 1.94542,-0.25939 4.24818,-0.44727 6.22096,-0.20067 1.68386,0.21048 3.41553,1.27229 5.01691,1.80608 2.63583,0.87862 7.0008,2.40812 9.83314,2.40812 0.95463,0 4.99256,-2.42029 4.2142,-2.80947 -2.05111,-1.02555 -3.85106,3.25859 -4.61555,4.2142 -0.91591,1.14489 -1.68867,1.91582 -2.40812,3.21083 -0.19934,0.35881 -1.42725,2.47467 -2.00676,1.60541 -0.35523,-0.53285 -0.20068,-1.41948 -0.20068,-2.00677 0,-0.22449 -0.16732,-1.58299 0,-1.80608 1.03824,-1.38432 3.89876,-1.59964 5.41826,-2.20744 0.12253,-0.049 1.59927,-0.38293 1.60541,-0.40136 0.55354,-1.6606 -0.72763,-3.90091 -1.60541,-5.21758 -1.81681,-2.72521 -3.91974,4.00041 -3.21082,5.41826 0.22538,0.45076 0.6923,0.24581 1.00338,0.40135 0.90758,0.45379 1.75883,1.18043 2.60879,1.60541 0.11966,0.0598 0.30676,-0.0946 0.40136,0 0.17367,0.17368 0.14177,1.97182 0.20067,2.20744 0.0868,0.34726 0.51518,1.34782 0,1.60541 -0.33429,0.16715 -0.92504,-0.14487 -1.20406,-0.20067 -4.12062,-0.82413 -4.94993,-3.61171 -5.61893,-7.6257 -0.11451,-0.68704 -0.17769,-1.40474 -1.00338,-1.40474 -2.69238,0 -1.41853,-0.37376 -2.40812,1.60541 -0.20187,0.40375 0.0125,0.97833 -0.20068,1.40474 -0.10386,0.20773 0.1,2.20744 0,2.20744 -0.15218,0 0.28003,-0.10734 0.60203,0 0.53689,0.17896 2.09008,0.24233 2.40812,0.40135 0.32064,0.16032 0.40371,2.80475 0.20067,3.21082 -0.13627,0.27256 -6.32513,0.20068 -7.02367,0.20068 -3.29539,0 -6.37359,-0.80271 -9.63246,-0.80271 -1.20406,0 -2.40811,0 -3.61217,0 -0.33446,0 -1.00338,0.33446 -1.00338,0 0,-0.0489 0.14159,0.0591 -0.20068,0.40135 -0.20068,0.20068 -0.60203,0.20068 -0.80271,0.40136 -0.0141,0.0141 -5.92908,0.59633 -6.02028,0.60203 -2.87838,0.17989 -5.62923,1.41746 -8.42841,2.00676 -1.41454,0.2978 -3.02822,0.29388 -4.41488,0.60203 -0.29203,0.0649 -0.51248,0.3288 -0.8027,0.40135 -1.10577,0.27644 -2.29329,-0.023 -3.4115,0.20068 -0.88001,0.176 -1.72074,0.65469 -2.60879,0.8027 -0.72017,0.12003 -0.83759,-0.13091 -1.20406,0.60203 -0.22864,0.45728 0.34882,0.43322 0.60203,0.60203 2.363,1.57533 4.25425,1.23526 6.82299,1.80609 0.35165,0.0781 0.65702,0.30239 1.00338,0.40135 0.25728,0.0735 0.80271,-0.26757 0.80271,0 0,0.34108 -0.68669,-0.074 -1.00338,-0.20068 -0.87266,-0.34906 -1.6872,-0.89686 -2.60879,-1.20405 -1.93395,-0.64465 -3.7782,-1.00339 -5.81962,-1.00339 -0.60203,0 -1.20405,0 -1.80608,0 -4.07602,0 1.05232,2.80947 3.41149,2.80947 1.01453,0 2.01515,0.0585 3.01015,0.20068 0.59909,0.0856 0.63677,0.20067 1.20406,0.20067 0.0669,0 0.26756,0 0.20067,0 -0.25378,0 -1.62911,-0.17697 -1.80608,0 -0.31428,0.31428 -0.53559,0.64678 -1.00339,0.80271 -1.50877,0.50292 -3.60431,-0.31951 -5.0169,-0.60203 -0.0868,-0.0174 -2.17555,-0.33756 -2.20744,-0.40135 -0.28536,-0.57071 1.16461,-1.12516 1.40473,-1.60541 0.52287,-1.04574 -0.36412,-2.03159 0.80271,-2.80947 0.31906,-0.21271 0.0573,-0.43 0.40135,-0.60203 0.24682,-0.12341 2.12012,-0.0873 2.20744,0 0.2114,0.21141 0.14132,1.30866 0.20067,1.60541 0.13566,0.67826 0.43394,1.33441 0.60203,2.00676 0.33561,1.34243 -0.46572,1.17188 0.40136,1.60541 0.72502,0.36251 2.95425,0.14479 3.21082,0.40136 0.1419,0.1419 0,0.40135 0,0.60203 0,0.907 -0.55327,-5.97153 0.8027,-4.61556 0.19265,0.19265 -0.12668,0.9507 0,1.20406 0.23462,0.46922 0.71515,1.57985 0.40136,2.20744 -0.064,0.12794 -0.61267,-0.22196 -0.40136,0.20067 0.4588,0.9176 1.84743,0.41169 2.60879,0.60203 0.12727,0.0318 -0.42643,4.89149 -0.60202,5.41826 -0.31574,0.9472 -2.11517,0.80271 -2.80947,0.80271 -1.41532,0 -3.22027,1.06712 -4.61556,0.60203 -0.77535,-0.25845 -1.17004,-0.99771 -2.40811,-1.20406 -0.92671,-0.15445 -2.39437,0.40823 -3.21082,0 -0.56156,-0.28078 -0.51562,-1.5497 -0.40136,-2.00676 0.0736,-0.29445 2.95268,-5.93454 3.61218,-4.61556 0.36346,0.72693 0.50426,1.50868 1.00338,2.20744 1.20513,1.68718 1.80608,1.79891 1.80608,4.01353 0,0.73581 0,1.47162 0,2.20744 0,0.78393 0.0598,0.0212 -0.20067,0.8027 -0.0212,0.0635 0,0.26757 0,0.20068 0,-0.20068 -0.1419,-0.46013 0,-0.60203 0.19502,-0.19502 0.54105,-0.11346 0.8027,-0.20068 2.33078,-0.77692 -0.45333,0.02 2.20744,-1.00338 1.37996,-0.53075 3.65181,-0.88197 4.41488,-2.40811 0.32813,-0.65627 -3.21072,-0.40136 -3.61217,-0.40136 -0.33446,0 -1.23988,-0.2365 -1.00338,0 0.42531,0.42532 0.46043,0.0197 1.00338,0.20068 1.09794,0.36598 2.01296,1.50817 3.01014,2.00676 0.60317,0.30158 2.81197,-0.39386 3.21082,0.80271 0.0967,0.2901 0.14195,1.92354 0,2.20744 -0.30158,0.60316 -2.75359,1.4606 -3.21082,1.00338 -0.17345,-0.17346 -0.0347,-1.83314 0,-2.00676 0.0913,-0.45635 0.66958,-0.92589 1.00338,-1.20406 1.16082,-0.96735 3.57633,-2.26192 5.21759,-1.60541 0.61084,0.24433 0.91706,0.81392 1.40473,1.20406 1.77816,1.42252 1.73953,1.73853 0.80271,3.61217 -0.14354,0.28707 0.0514,0.75127 -0.20068,1.00338 -0.0963,0.0963 -1.72422,-0.83966 -1.80609,-1.00338 -0.0297,-0.0594 -0.0854,-1.11868 0,-1.20406 0.11959,-0.11958 1.27069,-0.73608 1.20406,-0.8027 -0.27048,-0.27048 -0.63321,-0.0624 -0.8027,-0.40136 -0.59468,-1.18935 -0.95566,-1.80608 -2.40812,-1.80608 -0.0893,0 -0.67817,-0.0623 -0.8027,0 -0.27676,0.13838 -0.54143,0.42784 -0.80271,0.60203 -0.176,0.11733 -0.50743,0.0115 -0.60203,0.20067 -0.63833,1.27666 0.33136,2.46412 1.60541,3.01015 0.52982,0.22706 2.38311,0.37634 2.60879,0.60203 0.13379,0.13378 0.0669,0.46824 0.20068,0.60202 0.12801,0.12802 0.0631,1.88052 0,2.00677 -0.15159,0.30317 -0.69638,0.48373 -0.8027,0.8027 -0.0423,0.12692 0.0946,0.30676 0,0.40135 -0.0479,0.0479 -1.67497,0.7153 -1.80609,0.80271 -0.24941,0.16628 -1.18454,1.0229 -1.40474,0.80271 -0.18919,-0.1892 0,-0.53514 0,-0.80271 0,-0.35334 -0.15941,-1.28659 0,-1.60541 0.3948,-0.78959 2.18045,-2.5329 3.01015,-2.80947 1.77012,-0.59004 1.99656,0.97276 2.40812,2.20744 0.20879,0.62638 0.13378,-0.0669 0.40135,0.20068 0.0946,0.0946 -0.0598,0.28169 0,0.40135 0.3528,0.70561 1.00551,1.34139 1.40473,2.00676 0.20789,0.34648 0.48554,1.36264 1.20406,1.00338 0.35338,-0.17669 0.51791,-0.91925 0.80271,-1.20405 0.55814,-0.55815 1.07217,-0.73962 1.40473,-1.40474 0.5334,-1.0668 -4.11338,-1.70623 -0.60203,-5.21758 -1.59906,-1.80621 -1.90936,-4.71883 -3.61217,-6.42164 -0.34109,-0.34109 -0.84104,-0.48507 -1.20406,-0.80271 -0.78773,-0.68926 -1.46436,-1.70478 -2.00676,-2.60879 -0.27162,-0.45269 -0.19705,-0.99612 -0.40136,-1.40473 -0.28823,-0.57648 -1.58857,-1.98993 -2.00676,-2.40812 -0.35946,-0.35946 -2.57279,-0.7907 -3.21082,-1.00338 -1.82426,-0.60809 -3.32788,-2.02735 -5.21758,-2.60879 -1.268,-0.39016 -2.70686,-0.94273 -4.01353,-1.20406 -1.70742,-0.34149 -3.7492,0.47687 -5.41826,0 -5.33697,-1.52485 -12.35406,-2.00393 -16.85681,1.80608 -0.86738,0.73394 -2.80947,2.2998 -2.80947,3.61218 0,0.67439 1.48616,2.76972 2.20744,3.01014 0.46334,0.15445 3.54291,0.31374 4.01353,0 0.20067,-0.13378 0.29349,-0.38631 0.40135,-0.60203 0.65236,-1.30472 -2.17455,-1.95459 -2.80947,-2.40811 -1.10952,-0.79251 -1.63998,-1.95139 -3.01014,-2.40812 -0.33441,-0.11147 -2.19592,0.0115 -2.40812,-0.20067 -0.35836,-0.35837 0.50064,-2.60461 0.60203,-3.01015 0.0801,-0.32046 0.22083,-1.5353 0.40135,-1.80609 0.13726,-0.20588 0.77897,-0.57829 1.00338,-0.8027 0.0721,-0.0721 1.4891,-0.4333 1.60541,-0.20068 0.14958,0.29915 -0.0656,0.67542 0,1.00338 0.60382,3.01911 0.13495,6.35242 -1.20405,9.03044 -0.2655,0.531 -0.48622,0.54412 -1.00339,0.8027 -0.56044,0.28023 -1.0623,1.64042 -1.20405,2.20744 -0.59773,2.3909 1.15934,3.87066 2.40811,5.61894 0.40459,0.56643 2.94118,4.14835 3.61218,3.81285 0.45108,-0.22554 0.40135,-0.79984 0.40135,-1.20406 0,-0.31897 0.10142,-0.8998 0,-1.20406 -0.19184,-0.57552 -0.65671,-0.45603 -1.00338,-0.8027 -0.3351,-0.3351 -0.48113,-0.8293 -1.00338,-1.00338 -0.83411,-0.27804 -2.43154,-0.38965 -3.21083,0 -0.72855,0.36428 -0.49011,2.43126 -0.20067,3.01014 0.11343,0.22686 0.89951,0.89952 1.00338,1.00338 0.0534,0.0535 0.99648,0.005 1.00338,0 0.28123,-0.18748 0.39792,-0.86845 0.80271,-1.00338 0.43639,-0.14546 2.39225,-1.23578 2.80946,-0.40135 0.33134,0.66267 1.58062,3.05973 1.20406,3.81285 -0.32471,0.64942 -0.87821,0.22584 -1.40473,0.40135 -0.22881,0.0763 -0.18563,0.49417 -0.40135,0.60203 -0.83698,0.41849 -1.18493,-0.5829 -1.60541,-1.00338 -0.24554,-0.24554 -0.85333,-0.30192 -1.00339,-0.60203 -0.96685,-1.93371 3.16316,-1.71428 4.01353,-1.20406 0.73654,0.44193 0.65145,1.07752 1.00338,1.60541 0.083,0.12446 0.31838,0.0762 0.40135,0.20068 0.24591,0.36886 0,6.74414 0,7.6257 0,0.29915 0.20985,-0.57289 0.40136,-0.80271 1.37818,-1.65382 3.07112,-2.93142 4.01352,-4.81623 0.22652,-0.45304 -0.0198,-4.19443 0.20068,-4.41488 0.66999,-0.66999 5.32625,1.17164 6.02029,1.60541 0.83596,0.52248 1.88321,1.63612 2.20744,2.6088 0.39966,1.199 -0.21229,2.12452 -0.80271,3.01014 -0.15299,0.22948 -0.0773,0.55602 -0.20067,0.80271 -0.79524,1.59046 -4.13324,0.2024 -4.61556,-1.00339 -0.27674,-0.69184 -0.20068,-1.66443 -0.20068,-2.40811 0,-0.46877 -0.20429,-1.39749 0,-1.80609 0.66132,-1.32262 4.05188,-0.726 4.61556,0.40135 0.3247,0.64941 -0.0131,4.41488 0.40135,4.41488 1.42068,0 2.50522,0.11652 2.80947,-1.40473 0.0668,-0.3342 0.39145,-1.02318 0.20068,-1.40474 -0.54339,-1.08677 -3.74733,-1.93918 -4.81623,-1.40473 -1.13558,0.56779 -0.57266,0.78049 -2.40812,1.20406 -1.32335,0.30539 -7.96817,-0.88562 -6.42164,2.20744 0.22222,0.44444 0.6939,1.47787 1.20406,1.60541 1.0015,0.25038 1.69246,-0.97498 2.60879,-1.20406 1.19301,-0.29825 2.40481,-0.36056 3.61217,-0.60203 1.01692,-0.20338 1.75001,-0.60203 2.80947,-0.60203 4.13596,0 2.15044,1.08768 1.60541,3.81285 -0.18717,0.93587 0.36803,1.72241 -0.60203,2.20744 -0.52435,0.26218 -1.5121,-0.077 -2.00676,-0.20067 -0.9662,-0.24155 -2.52877,0.44136 -3.4115,0 -0.18672,-0.0934 -0.89044,-0.89045 -1.00338,-1.00339 -0.26946,-0.26945 -1.26824,-1.7419 -0.80271,-2.20744 0.64901,-0.649 3.40227,1.00031 4.01353,1.20406 0.14476,0.0483 0.89064,0.0879 1.00338,0.20068 1.02354,1.02354 1.80609,0.83075 1.80609,2.80947 0,0.22991 0.0909,0.82152 0,1.00338 -0.0758,0.15162 -0.63994,0.43926 -0.80271,0.60203 -0.27421,0.27421 -0.50101,0.70032 -0.60203,1.00338 -0.13523,0.4057 -0.64522,0.28706 -0.8027,0.60203 -0.30874,0.61748 0,2.3069 0,3.01014 0,0.90066 -0.0679,1.48442 0.8027,2.00677 1.11866,0.67119 0.0836,-0.42556 1.40474,0.60202 0.37336,0.2904 0.60982,0.74101 1.00338,1.00339 2.07509,1.38339 8.02589,2.54847 10.63584,2.80946 2.52251,0.25226 5.19308,-0.44052 7.6257,0.60203 0.44337,0.19002 0.79044,0.55453 1.20406,0.80271 3.62898,2.17738 3.21413,2.21375 5.41826,6.42164 0.36197,0.69103 0.90238,1.28737 1.20406,2.00676 1.57582,3.75773 2.73779,7.898 3.81285,11.83991"
           id="path4142"
           inkscape:connector-curvature="0"
           sodipodi:nodetypes="cssssssscssssssccssssssssscsssssssssssscscsssssssssscssscccssssscssccsssssssssssssssssssssssscsssssssscssscsssscssssssccsssscssssssscsssscsscssccsscssscssssccssscssscssssssscscssssssccsscscsssssssssssssssssssccsscscsscsscssssssscssssscssssssscssssccscssscscssssssssssssssssccsssscsssccsssssc" />
      </g>
      <g
         transform="translate(0.82128135,4.9276874)"
         id="g4343">
        <text
           xml:space="preserve"
           style="font-style:normal;font-weight:normal;font-size:14.06798363px;line-height:125%;font-family:Sans;letter-spacing:0px;word-spacing:0px;fill:#000000;fill-opacity:1;stroke:none;stroke-width:1px;stroke-linecap:butt;stroke-linejoin:miter;stroke-opacity:1"
           x="140.49429"
           y="484.52591"
           id="text4219"
           sodipodi:linespacing="125%"><tspan
             sodipodi:role="line"
             id="tspan4221"
             x="140.49429"
             y="484.52591">Compartments</tspan></text>
        <text
           xml:space="preserve"
           style="font-style:normal;font-weight:normal;font-size:14.06798363px;line-height:125%;font-family:Sans;letter-spacing:0px;word-spacing:0px;fill:#c7da7c;fill-opacity:1;stroke:none;stroke-width:1px;stroke-linecap:butt;stroke-linejoin:miter;stroke-opacity:1"
           x="228.2506"
           y="506.85144"
           id="text4223"
           sodipodi:linespacing="125%"><tspan
             sodipodi:role="line"
             id="tspan4225"
             x="228.2506"
             y="506.85144">A</tspan></text>
        <text
           sodipodi:linespacing="125%"
           id="text4227"
           y="521.12128"
           x="135.20862"
           style="font-style:normal;font-weight:normal;font-size:14.06798363px;line-height:125%;font-family:Sans;letter-spacing:0px;word-spacing:0px;fill:#95b3e2;fill-opacity:1;stroke:none;stroke-width:1px;stroke-linecap:butt;stroke-linejoin:miter;stroke-opacity:1"
           xml:space="preserve"><tspan
             y="521.12128"
             x="135.20862"
             id="tspan4229"
             sodipodi:role="line">B</tspan></text>
      </g>
    </g>
    <path
       style="fill:none;fill-rule:evenodd;stroke:#000000;stroke-width:0.80000001;stroke-linecap:butt;stroke-linejoin:miter;stroke-miterlimit:4;stroke-dasharray:0.80000001, 0.80000001;stroke-dashoffset:0;stroke-opacity:1"
       d="M 169.82464,532.84648 295.29512,522.42117"
       id="path4776"
       inkscape:connector-curvature="0"
       sodipodi:nodetypes="cc" />
    <path
       inkscape:connector-curvature="0"
       id="path4780"
       d="m 165.09908,552.04405 112.59298,53.1928"
       style="fill:none;fill-rule:evenodd;stroke:#000000;stroke-width:0.80000001;stroke-linecap:butt;stroke-linejoin:miter;stroke-miterlimit:4;stroke-dasharray:0.80000001, 0.80000001;stroke-dashoffset:0;stroke-opacity:1"
       sodipodi:nodetypes="cc" />
    <path
       d="m 181.40657,542.6601 a 12.805149,9.891818 0 0 1 -12.78475,9.8918 12.805149,9.891818 0 0 1 -12.82548,-9.8603 12.805149,9.891818 0 0 1 12.7439,-9.92321 12.805149,9.891818 0 0 1 12.86607,9.82869"
       sodipodi:open="true"
       sodipodi:end="6.2768149"
       sodipodi:start="0"
       sodipodi:ry="9.891818"
       sodipodi:rx="12.805149"
       sodipodi:cy="542.6601"
       sodipodi:cx="168.60143"
       sodipodi:type="arc"
       id="path4351"
       style="opacity:1;fill:none;fill-opacity:1;fill-rule:nonzero;stroke:#cccccc;stroke-width:1.02625096;stroke-linecap:round;stroke-linejoin:round;stroke-miterlimit:4;stroke-dasharray:none;stroke-dashoffset:0;stroke-opacity:1" />
    <path
       style="opacity:1;fill:#f9f9f9;fill-opacity:1;fill-rule:nonzero;stroke:#cccccc;stroke-width:1;stroke-linecap:round;stroke-linejoin:round;stroke-miterlimit:4;stroke-dasharray:none;stroke-dashoffset:0;stroke-opacity:1"
       id="path4286"
       sodipodi:type="arc"
       sodipodi:cx="305.22897"
       sodipodi:cy="566.46228"
       sodipodi:rx="54.705502"
       sodipodi:ry="44.916878"
       sodipodi:start="0"
       sodipodi:end="6.2768149"
       sodipodi:open="true"
       d="m 359.93447,566.46228 a 54.705502,44.916878 0 0 1 -54.61837,44.91682 54.705502,44.916878 0 0 1 -54.79235,-44.77375 54.705502,44.916878 0 0 1 54.44385,-45.05943 54.705502,44.916878 0 0 1 54.96576,44.63022" />
    <g
       id="g4728"
       transform="matrix(4.2296984,0,0,4.2296984,-500.6097,-1728.3793)"
       clip-path="url(#clipPath4746)">
      <path
         style="opacity:1;fill:#b9cdec;fill-opacity:0.85714285;fill-rule:nonzero;stroke:none;stroke-width:0.5;stroke-linecap:round;stroke-linejoin:round;stroke-miterlimit:10;stroke-dasharray:none;stroke-dashoffset:0;stroke-opacity:1"
         id="path4730"
         sodipodi:type="arc"
         sodipodi:cx="104.55235"
         sodipodi:cy="499.90033"
         sodipodi:rx="35.118355"
         sodipodi:ry="35.118355"
         sodipodi:start="0"
         sodipodi:end="6.2768149"
         sodipodi:open="true"
         d="M 139.67071,499.90033 A 35.118355,35.118355 0 0 1 104.60828,535.01864 35.118355,35.118355 0 0 1 69.434176,500.01219 35.118355,35.118355 0 0 1 104.38456,464.78238 35.118355,35.118355 0 0 1 139.67,499.67661" />
      <path
         style="opacity:1;fill:#b9cdec;fill-opacity:0.85714285;fill-rule:nonzero;stroke:none;stroke-width:0.5;stroke-linecap:round;stroke-linejoin:round;stroke-miterlimit:10;stroke-dasharray:none;stroke-dashoffset:0;stroke-opacity:1"
         id="path4732"
         sodipodi:type="arc"
         sodipodi:cx="132.04503"
         sodipodi:cy="611.677"
         sodipodi:rx="30.904152"
         sodipodi:ry="30.904152"
         sodipodi:start="0"
         sodipodi:end="6.2768149"
         sodipodi:open="true"
         d="m 162.94918,611.677 a 30.904152,30.904152 0 0 1 -30.85493,30.90411 30.904152,30.904152 0 0 1 -30.95322,-30.80567 30.904152,30.904152 0 0 1 30.75635,-31.00224 30.904152,30.904152 0 0 1 31.05117,30.70693" />
      <path
         d="m 234.79128,542.82874 a 40.737293,40.737293 0 0 1 -40.67242,40.73724 40.737293,40.737293 0 0 1 -40.80196,-40.60749 40.737293,40.737293 0 0 1 40.54245,-40.86658 40.737293,40.737293 0 0 1 40.9311,40.47731"
         sodipodi:open="true"
         sodipodi:end="6.2768149"
         sodipodi:start="0"
         sodipodi:ry="40.737293"
         sodipodi:rx="40.737293"
         sodipodi:cy="542.82874"
         sodipodi:cx="194.05399"
         sodipodi:type="arc"
         id="path4738"
         style="opacity:1;fill:none;fill-opacity:0.86263733;fill-rule:nonzero;stroke:none;stroke-width:0.5;stroke-linecap:round;stroke-linejoin:round;stroke-miterlimit:10;stroke-dasharray:none;stroke-dashoffset:0;stroke-opacity:1" />
      <path
         style="fill:none;fill-rule:evenodd;stroke:#999999;stroke-width:0.35463521;stroke-linecap:butt;stroke-linejoin:miter;stroke-miterlimit:4;stroke-dasharray:none;stroke-opacity:1"
         d="m 132.93921,437.41819 c -6.29385,0.34624 -12.87832,-1.04711 -18.90946,1.14603 -2.24436,0.81613 -4.14425,2.57452 -6.30315,3.43808 -0.35469,0.14188 -0.82818,-0.2119 -1.14603,0 -2.6544,1.7696 -1.77635,4.87068 -2.29205,7.44918 -0.20172,1.00862 -0.94431,1.85646 -1.14603,2.86507 -1.22795,6.13974 2.58689,17.74678 0,22.92056 -0.29169,0.58338 -6.760576,10.54542 -8.022193,8.02219 -0.835075,-1.67015 3.24548,-4.71091 4.584111,-5.15713 0.144731,-0.0482 7.951502,0.50232 6.303152,-1.14602 -1.02879,-1.0288 -2.68497,1.75176 -2.86507,2.29205 -1.80485,5.41455 6.00954,8.0222 -4.011096,8.0222 -0.764018,0 -1.608696,0.34168 -2.292055,0 -0.842772,-0.42139 0.816451,-2.1822 1.146027,-2.29206 2.373824,-0.79128 4.618384,-1.96195 6.876164,-2.86507 0.40695,-0.16278 2.51954,0.34553 2.86507,0 0.22884,-0.22883 0.0557,-3.95543 0,-4.0111 -1.3506,-1.3506 -2.87571,-2.58388 -4.58411,-3.43808 -1.40878,-0.70439 -3.10387,-0.60776 -4.58411,-1.14603 -1.316518,-0.47873 -3.226578,-2.29205 -4.58411,-2.29205 -0.397205,0 -1.577957,3.72025 -1.146028,4.58411 0.812354,1.62471 8.306398,6.51631 10.314248,8.02219 0.59773,0.4483 2.48497,0.76593 2.86507,1.14603 1.40882,1.40882 0.92075,6.9888 0,7.44918 -0.60054,0.30027 -2.20197,0 -2.86507,0 -0.57301,0 -1.31386,0.40518 -1.71904,0 -1.562465,-1.56246 -5.590258,-0.86626 -5.730139,-1.14603 -0.611215,-1.22243 0.611215,-3.36168 0,-4.58411 -0.138516,-0.27703 -1.941786,-0.0952 -2.292055,-1.14603 -1.932954,-5.79886 3.097673,-4.58411 -8.595208,-4.58411 -0.124768,0 -5.008609,-0.50928 -5.730138,0.57302 -0.263208,0.39481 0,3.7237 0,4.01109 0,7.33788 2.860561,5.15262 6.876166,9.16823 0.405182,0.40518 -0.181203,1.17543 0,1.71904 0.543452,1.63035 1.719041,1.2853 1.719041,3.43808 0,0.76402 0.191005,0.57301 -0.573014,0.57301 -3.415028,0 -1.439299,-4.48635 -1.146027,-4.58411 4.540848,-1.51361 4.58411,1.17456 4.58411,4.58411 0,0.57302 0.317851,1.24227 0,1.71905 -0.2119,0.31785 -0.783621,-0.12081 -1.146027,0 -0.512519,0.17084 -0.66282,0.90442 -1.146028,1.14602 -1.406985,0.7035 -4.964281,0.003 -5.730138,-1.14602 -0.167446,-0.25117 0,-2.16735 0,-2.29206 0,-5.54236 3.581818,-3.79646 7.44918,-5.73014 0.883328,-0.44166 -0.202896,-3.90965 -2.292056,-2.86507 -1.229669,0.61484 -0.02637,0.62576 -0.573014,1.71904 -1.114343,2.22869 -2.039153,4.09425 -2.292055,6.87617 -0.09989,1.09877 0.783231,9.95145 -1.719041,7.44918 -0.151681,-0.15168 0,-1.48309 0,-1.71904 0,-4.45691 0.895692,-5.73014 5.157124,-5.73014 0.764019,0 1.751813,-0.54024 2.292055,0 0.46139,0.46139 2.258472,3.37092 2.86507,4.58411 0.229205,0.45841 -0.229206,1.26063 0,1.71904 0.120802,0.24161 0.843135,0.57302 0.573014,0.57302 -0.06976,0 0.114148,-5.04298 0,-5.15713 -0.405182,-0.40518 -1.146028,0 -1.719042,0 -0.601975,0 -1.786239,-0.1686 -2.292055,0 -1.225392,0.40847 -1.725059,5.14509 -1.146028,6.30315 0.101652,0.20331 5.41296,0.15859 5.730138,0 0.38201,-0.191 0.271009,-0.84402 0.573014,-1.14602 0.558276,-0.55828 3.168642,-0.86521 4.011097,-1.14603 3.347936,-1.11598 17.854846,0 21.774526,0 5.20041,0 9.16822,-1.2805 9.16822,4.58411 0,1.88643 -0.6438,2.91226 -2.29205,4.0111 -0.47678,0.31785 -1.17544,-0.18121 -1.71905,0 -4.28693,1.42897 -7.68318,1.01704 -9.16822,-3.43809 -1.04675,-3.14026 0.31312,-4.74066 2.29206,-5.73013 0.76402,-0.38201 2.10105,0.382 2.86507,0 0.15988,-0.0799 0.074,-3.71507 0,-4.0111 -0.67117,-2.68465 -7.37954,-4.08074 -8.59521,-2.86507 -1.1626,1.16259 1.02716,10.30713 1.71904,11.46028 0.48665,0.81108 2.90006,1.64905 2.29206,2.86506 -0.4738,0.9476 -0.46855,0.40365 -1.14603,0.57302 -3.47449,0.86862 -3.6472,1.03738 -4.0111,-1.14603 -0.1256,-0.75362 -0.4238,-1.65635 0,-2.29205 0.77846,-1.16769 2.73133,-2.92618 4.0111,-3.43809 3.72515,-1.49006 4.17017,2.38784 5.73014,-2.29205 0.24332,-0.72997 1.0207,-1.39668 0.57301,-2.29206 -0.35983,-0.71966 -1.14603,1.9386 -1.14603,3.43809 0,2.52367 2.00845,7.30447 1.71905,7.44917 -2.15639,1.0782 -7.28899,0 -9.74124,0 -0.57301,0 -1.31386,0.40519 -1.71904,0 -0.40518,-0.40518 0.31785,-1.24226 0,-1.71904 -0.76402,-1.14602 -1.71904,0.19101 -1.71904,-1.71904 0,-1.00612 13.03541,-0.14304 14.32534,-0.57301 4.42586,-1.47529 0.48034,-8.40985 -2.29205,-2.86507 -0.89329,1.78657 1.33938,6.68281 0,8.02219 -0.4691,0.4691 -10.75266,8.35934 -11.46028,8.59521 -4.7423,1.58077 -12.606304,-1.47411 -12.606304,3.43808 0,0.77028 -0.338172,2.76174 0,3.43809 0.702566,1.40513 7.542114,0.57301 9.741234,0.57301 0.19101,0 0.57302,-0.191 0.57302,0 0,0.191 -0.57302,0.191 -0.57302,0 0,-0.27012 0.33141,-0.45221 0.57302,-0.57301 1.78686,-0.89344 2.77435,-5.03769 2.29205,-7.44918 -1.44744,-7.23719 -17.730211,0.90934 -16.044387,3.43808 1.0937,1.64055 4.698138,0.74477 6.303157,1.14603 1.98623,0.49656 -0.39041,3.80331 -1.146032,2.29205 -2.208822,-4.41764 4.444132,-7.34419 6.876162,-9.16822 0.55095,-0.41321 1.23208,-0.65906 1.71905,-1.14603 0.13506,-0.13506 -0.19101,-0.57301 0,-0.57301 0.97393,0 -0.57302,1.89113 -0.57302,2.86507 0,0.54673 1.15181,3.7217 0.57302,4.0111 -0.66195,0.33097 -4.48477,1.02125 -5.15713,0.57301 -1.34885,-0.89923 -2.22076,-3.9398 -3.438082,-5.15713 -0.342451,-0.34245 -1.146028,0.61936 -1.146028,-0.57301 0,-0.191 0.402174,0.0854 0.573014,0 3.076066,-1.53803 -5.363096,0.68245 2.865066,-1.14603 0.74006,-0.16445 14.34959,-2.26781 14.89836,-1.71904 0.37224,0.37224 3.37883,7.21214 3.43809,7.44918 0.16469,0.65878 -0.29419,1.70368 0,2.29206 0.17084,0.34168 0.97518,-0.34168 1.14602,0 0.51252,0.45202 -0.25626,1.20652 0,1.71904 0.53972,1.07944 2.53333,0.84444 3.43809,1.14603 1.0709,0.35696 1.75461,1.75461 2.29205,2.29205 2.38282,2.38282 7.55205,2.29206 10.88727,2.29206 2.40483,0 5.86882,0.48854 8.02219,1.71904 0.82919,0.47382 1.41425,1.34284 2.29205,1.71904 2.32335,0.99572 11.26237,1.05225 13.17932,0.57301 0.52411,-0.13102 0.64443,-0.94538 1.14603,-1.14602 0.53203,-0.21282 1.17543,0.1812 1.71904,0 1.80049,-0.60017 5.22071,-2.33445 6.87617,-3.43809 5.49349,-3.66232 4.2246,-6.87616 11.46027,-6.87616 2.20515,0 5.56935,0.30916 7.44918,1.71904 3.01311,2.25983 0.89461,12.00404 0.57302,14.89836 -0.0633,0.56951 0.1812,1.17543 0,1.71904 -0.1812,0.54361 -1.14603,0 -1.71904,0 -3.97824,0 -8.88077,-6.01759 -5.73014,-9.16822 0.40518,-0.40518 1.14603,0 1.71904,0 0.50848,0 2.34579,-0.25964 2.86507,0 2.63993,1.31996 2.1683,9.29198 0.57301,10.88726 -2.33524,1.2803 -1.58427,1.75105 -3.96846,2.92039 1.81405,2.43123 1.69324,0.57108 9.6986,-1.77436 0.80087,-0.26696 1.12532,-1.69834 1.71904,-2.29206 0.31707,-0.31706 1.09954,-1.76553 0.57302,-2.29205 -0.67531,-0.6753 -1.91005,0 -2.86507,0 -0.54077,0 -4.79421,-0.46797 -5.73014,0 -0.57273,0.28636 -4.45452,8.15178 -6.87617,5.73014 -2.32303,-2.32304 3.09706,-6.87617 5.73014,-6.87617 1.9165,0 2.19152,0.94496 2.86507,2.29206 0.11893,0.23785 1.51903,-0.20002 1.71904,0 0.48697,0.48696 0.83804,1.10307 1.14603,1.71904 0.58498,1.16996 0.0114,2.8879 0.57301,4.01109 0.53348,1.06696 5.56396,-0.95215 5.73014,-1.14602 0.83022,-0.96859 4.10951,-6.72855 2.86507,-8.59521 -1.05863,-1.58795 -2.38442,-1.14603 -4.0111,-1.14603 -1.29589,0 -3.96701,-0.47604 -5.15712,0 -4.59978,1.83992 -4.0111,9.19637 -4.0111,11.46028 -3.61124,3.24254 0.58128,9.72471 -1.14602,13.17932 -1.24671,2.4934 -1.70555,4.03809 -1.14603,5.15712 0.38201,0.76402 1.62504,0.61242 2.29205,1.14603 0.48376,0.387 3.02113,3.85504 4.0111,2.86507 0.28027,-0.28027 0.12027,-4.22331 0,-4.58411 -0.42252,-1.26758 -1.17744,-0.0314 -1.71904,-0.57302 -0.27012,-0.27012 0.34168,-0.97518 0,-1.14602 -3.36916,-1.68459 -10.31425,5.57585 -10.31425,1.71904 0,-2.68764 -0.27012,0.54024 1.14603,-2.29206 0.17084,-0.34168 -0.12081,-0.78362 0,-1.14603 1.00451,-3.01354 7.96416,-2.76207 10.31425,-2.29205 5.18309,1.03662 -1.55644,0.0542 1.71904,1.14603 0.90601,0.302 1.92859,-0.1873 2.86507,0 0.83761,0.16752 1.48169,1.41615 2.29205,1.14602 0.80776,-0.26925 3.18422,-4.26496 2.29206,-5.15712 -1.38963,-1.38962 -6.7017,0.7224 -7.44918,1.71904 -0.58836,0.78447 0.17216,3.83894 -0.57302,4.58411 -0.66703,0.66703 -4.86203,0.57302 -5.73013,0.57302 -0.62828,0 -2.2246,1.21348 -2.86507,0.57301 -1.99052,-1.99052 3.18652,-6.47685 4.58411,-6.87617 5.45196,-1.5577 14.2186,1.75463 19.48247,0 0.65333,-0.21778 1.07962,-0.89026 1.71904,-1.14602 0.35469,-0.14188 0.82818,0.2119 1.14603,0 0.52967,-0.35312 1.00029,-2.85514 1.14602,-3.43809 0.69374,-2.77496 0.56799,-28.85007 0,-29.79672 -2.926,-4.87667 -6.69901,-2.25049 -8.02219,1.71904 -2.15156,6.4547 20.95362,-0.74368 18.33644,-8.5952 -0.47339,-1.42019 -5.39309,-0.60671 -6.30315,0 -3.11255,2.07503 -1.99406,5.43214 -4.0111,7.44918 -0.2817,0.2817 -2.16378,0.44474 -2.29205,0.57301 -0.27012,0.27012 0.17084,0.80435 0,1.14603 -0.0702,0.14031 -4.6313,0.17527 -5.15713,0 -1.70493,-0.56831 -3.2129,-11.28636 -2.86506,-11.46028 2.19517,-1.09758 8.97725,1.337 9.74123,0.57302 0.64254,-0.64254 -0.31104,-4.06017 -0.57301,-4.58412 -0.56132,-1.12262 -7.90332,-1.20546 -9.16822,-0.57301 -0.34168,0.17084 0.17083,0.80435 0,1.14603 -0.79685,1.59368 -5.01803,3.71628 -4.0111,5.73014 0.43556,0.87111 1.92545,-0.31676 2.86507,-0.57302 1.58737,-0.43292 8.42345,-1.94853 9.16822,-3.43808 0.40266,-0.80532 2.55897,-3.34911 0.57301,-4.0111 -1.46033,-0.48677 -6.01561,-0.14377 -7.44918,0.57302 -0.8542,0.4271 -0.92441,1.7623 -1.71904,2.29205 -0.95165,0.63444 -2.98216,1.03308 -4.0111,1.71904 -1.76312,1.17542 -2.82099,3.4087 -4.58411,4.58411 -1.04174,0.6945 -3.21805,0.35299 -4.01109,1.14603 -0.27012,0.27012 0.34168,0.97519 0,1.14603 -4.34356,2.17178 -9.6664,2.27335 -14.32535,3.43808 -1.51846,0.37962 -5.87377,6.73254 -4.0111,8.59521 1.97404,1.97403 8.74072,-3.65635 9.74124,-5.15712 0.31785,-0.47678 -0.1812,-1.17544 0,-1.71905 0.14704,-0.44112 1.21934,-1.64572 0.57301,-2.29205 -0.44425,-0.44425 -8.76446,-0.8986 -9.74123,-0.57301 -1.00505,0.33501 -2.63016,2.29205 -3.43809,2.29205 -0.70975,0 0.72552,-5.88264 1.14603,-6.30315 2.23632,-2.23632 0.30774,0.13264 1.71904,-0.57302 6.19208,-3.09603 4.0542,9.12512 4.0111,9.16823 -0.27012,0.27012 -0.87591,-0.27013 -1.14603,0 -0.7225,0.7225 -5.17768,5.68901 -4.58411,6.87616 1.04999,2.09998 6.61636,-1.04282 7.44918,-2.29205 0.41786,-0.62679 -0.33795,-2.18916 0,-2.86507 0.0854,-0.17084 0.57302,0.191 0.57302,0 0,-1.39508 -8.99744,-0.34158 -9.74124,1.14603 0,2.60852 0.27012,0.0328 -0.57301,1.71904 -1.01819,2.03637 0.32041,6.94398 1.14602,8.5952 0.22361,0.44722 1.03423,0.34941 1.14603,0.57302 0.95661,1.91321 0.48165,11.64302 -0.57301,13.75233 -0.17084,0.34168 -0.87591,-0.27012 -1.14603,0 -1.00504,1.00504 1.60347,1.14603 -1.14603,1.14603 -0.95502,0.76402 -1.84745,1.61364 -2.86507,2.29205 -2.32844,1.5523 -17.22036,-1.49582 -21.20151,-2.29205 -3.38948,-0.6779 -6.64029,-2.40444 -9.74123,-3.43808 -1.29739,-0.43247 -3.36998,0.60706 -4.58411,0 -1.78738,-0.89369 -1.93669,-2.9739 -4.0111,-4.0111 -1.30219,-0.6511 -2.23089,-1.68846 -3.43808,-2.29206 -1.66962,-0.8348 -7.60503,-0.33925 -8.59521,1.14603 -0.49626,0.74439 -0.36158,3.16534 -0.57302,4.0111 -0.0407,0.16274 -1.70784,1.26511 -0.57301,1.71904 2.71003,1.08401 11.99306,0.27439 14.32535,0 4.35373,-0.5122 1.61931,-0.85699 4.01109,-2.29206 1.13377,-0.68026 2.12431,-0.97827 2.86507,-1.71904 1.56809,-1.56809 -3.86661,-5.44314 -4.58411,-5.73014 -1.07874,-0.43149 -2.28102,-0.46782 -3.43808,-0.57301 -1.00902,-0.0917 -4.8518,-0.87834 -5.15713,-0.57301 -0.6254,0.6254 -0.39831,3.26338 -1.14602,4.01109 -0.5885,0.5885 -5.38655,3.78168 -6.30316,2.86507 -0.54046,-0.54046 -0.57301,-5.64924 -0.57301,-6.30315 0,-0.57689 -0.18179,-2.31969 0,-2.86507 0.65734,-1.97201 4.9979,-2.65818 6.87617,-1.71904 0.50252,0.25126 -0.67545,11.15299 -0.57302,11.46028 0.13506,0.40518 0.72474,0.64322 1.14603,0.57301 2.08432,-0.34739 9.74124,-6.07689 9.74124,-8.02219 0,-0.59242 -7.96684,-1.88512 -8.59521,0 -0.76015,2.28045 1.06609,5.89 0,8.02219 -0.25626,0.51252 -1.20652,-0.25626 -1.71904,0 -2.33282,1.16641 -5.98621,4.45608 -9.16822,2.86507 -0.26205,-0.13103 0.0263,-3.90604 0,-4.0111 -0.28878,-1.15509 -1.65062,-4.34749 -2.86507,-5.15712 -0.60337,-0.40225 -3.25941,-0.32245 -4.0111,-0.57302 -0.5464,-0.18213 -3.538906,-0.31479 -4.011097,0 -1.242515,0.82835 -1.014704,2.16074 -1.719042,2.86507 -1.45135,1.45135 -4.046974,1.75492 -5.730138,3.43809 -0.955276,0.95527 -0.504564,2.2236 -1.146028,2.86507 -0.249857,0.24985 -1.139882,-5.16942 -0.573014,-6.30316 0.633483,-1.26696 0.355637,-0.17782 1.146028,-0.57301 0.382009,-0.19101 0.191004,-0.95502 0.573014,-1.14603 5.32946,-2.66473 10.338207,9.91627 11.460277,9.16822 2.47304,-1.64869 0.85519,-10.59642 -2.292056,-7.44918 -0.573014,0.57302 -1.269532,1.04478 -1.719041,1.71904 -0.77418,1.16127 -0.471658,9.50541 -3.438083,8.0222 -0.731151,-0.36558 0.539564,-2.30321 2.292055,-1.71904 0.70303,0.23434 2.309993,2.01451 2.865069,2.29205 1.036946,0.51848 5.074446,1.18737 6.303156,0.57302 3.76633,-1.88317 -1.54152,-8.47686 -3.43809,-9.74124 -0.9886,-0.65907 -6.773708,-0.10245 -7.449177,0.57301 -0.633209,0.63321 -1.047761,4.20763 -0.573013,5.15713 0.439482,0.87896 5.932842,-0.40541 6.30315,-1.14603 1.01233,-2.02466 -3.670966,-1.25327 -4.011095,-0.57301 -0.584871,1.16974 0.52342,5.43123 1.719041,5.73014 2.721624,0.6804 1.223887,-0.49516 2.292054,0.57301 0.46608,0.46608 3.34676,-0.13287 4.0111,0 1.18882,0.23776 4.55648,-0.0138 5.73014,0.57301 0.97241,0.48621 1.58836,1.86984 2.29205,2.29206 0.67531,0.40518 1.60829,0.18229 2.29206,0.57301 1.40718,0.80411 2.1725,2.42563 3.43808,3.43809 0.5816,0.46528 1.3538,0.41554 1.71904,1.14602 1.14774,2.29549 -5.5441,5.53665 -7.44918,4.58411 -0.76402,-0.38201 -0.8759,-1.48169 -1.14603,-2.29205 -1.61426,-4.8428 7.70281,-4.0111 10.31425,-4.0111 8.82077,0 -4.01109,8.15916 -4.01109,1.14603 0,-0.4845 -0.29816,-1.9939 0,-2.29206 1.75881,-1.75881 0.47644,0.33479 2.29205,-0.57301 0.17084,-0.0854 0,-0.38201 0,-0.57301 0.38201,-0.19101 0.74085,-0.43796 1.14603,-0.57302 5.21348,-1.73782 4.01808,8.02569 5.15712,8.59521 1.36576,0.68288 4.50945,-2.93974 3.43809,-4.0111 -1.39573,-1.39572 -2.16998,-1.193 -4.0111,-1.71904 -5.89711,-1.68489 -7.44918,-1.2316 -7.44918,4.58411 0,0.99563 -0.40781,2.62246 0,3.43809 5.23712,1.49314 9.97797,4.33456 14.40551,7.45024 1.93153,1.35922 3.8301,2.56941 5.81962,3.81285 0.0638,0.0399 1.31904,1.20406 1.20405,1.20406 -0.0669,0 -0.0669,-0.20068 0,-0.20068 0.0946,0 0.11607,0.15837 0.20068,0.20068 0.39145,0.19573 1.34607,0 1.80609,0 1.58617,0 3.47937,-0.30751 5.0169,0 2.53308,0.50661 4.56464,2.47341 7.22435,2.20744 3.223,-0.3223 3.28957,-1.56714 5.61894,-2.80947 0.29511,-0.15739 0.6699,0.0256 1.00338,0 0.53771,-0.0414 1.07535,-0.10129 1.60541,-0.20068 3.3243,-0.6233 6.67075,-1.157 10.03382,-1.60541 1.94542,-0.25939 4.24818,-0.44727 6.22096,-0.20067 1.68386,0.21048 3.41553,1.27229 5.01691,1.80608 2.63583,0.87862 7.0008,2.40812 9.83314,2.40812 0.95463,0 4.99256,-2.42029 4.2142,-2.80947 -2.05111,-1.02555 -3.85106,3.25859 -4.61555,4.2142 -0.91591,1.14489 -1.68867,1.91582 -2.40812,3.21083 -0.19934,0.35881 -1.42725,2.47467 -2.00676,1.60541 -0.35523,-0.53285 -0.20068,-1.41948 -0.20068,-2.00677 0,-0.22449 -0.16732,-1.58299 0,-1.80608 1.03824,-1.38432 3.89876,-1.59964 5.41826,-2.20744 0.12253,-0.049 1.59927,-0.38293 1.60541,-0.40136 0.55354,-1.6606 -0.72763,-3.90091 -1.60541,-5.21758 -1.81681,-2.72521 -3.91974,4.00041 -3.21082,5.41826 0.22538,0.45076 0.6923,0.24581 1.00338,0.40135 0.90758,0.45379 1.75883,1.18043 2.60879,1.60541 0.11966,0.0598 0.30676,-0.0946 0.40136,0 0.17367,0.17368 0.14177,1.97182 0.20067,2.20744 0.0868,0.34726 0.51518,1.34782 0,1.60541 -0.33429,0.16715 -0.92504,-0.14487 -1.20406,-0.20067 -4.12062,-0.82413 -4.94993,-3.61171 -5.61893,-7.6257 -0.11451,-0.68704 -0.17769,-1.40474 -1.00338,-1.40474 -2.69238,0 -1.41853,-0.37376 -2.40812,1.60541 -0.20187,0.40375 0.0125,0.97833 -0.20068,1.40474 -0.10386,0.20773 0.1,2.20744 0,2.20744 -0.15218,0 0.28003,-0.10734 0.60203,0 0.53689,0.17896 2.09008,0.24233 2.40812,0.40135 0.32064,0.16032 0.40371,2.80475 0.20067,3.21082 -0.13627,0.27256 -6.32513,0.20068 -7.02367,0.20068 -3.29539,0 -6.37359,-0.80271 -9.63246,-0.80271 l -3.61217,0 c -0.33446,0 -1.00338,0.33446 -1.00338,0 0,-0.0489 0.14159,0.0591 -0.20068,0.40135 -0.20068,0.20068 -0.60203,0.20068 -0.80271,0.40136 -0.0141,0.0141 -5.92908,0.59633 -6.02028,0.60203 -2.87838,0.17989 -5.62923,1.41746 -8.42841,2.00676 -1.41454,0.2978 -3.02822,0.29388 -4.41488,0.60203 -0.29203,0.0649 -0.51248,0.3288 -0.8027,0.40135 -1.10577,0.27644 -2.29329,-0.023 -3.4115,0.20068 -0.88001,0.176 -1.72074,0.65469 -2.60879,0.8027 -0.72017,0.12003 -0.83759,-0.13091 -1.20406,0.60203 -0.22864,0.45728 0.34882,0.43322 0.60203,0.60203 2.363,1.57533 4.25425,1.23526 6.82299,1.80609 0.35165,0.0781 0.65702,0.30239 1.00338,0.40135 0.25728,0.0735 0.80271,-0.26757 0.80271,0 0,0.34108 -0.68669,-0.074 -1.00338,-0.20068 -0.87266,-0.34906 -1.6872,-0.89686 -2.60879,-1.20405 -1.93395,-0.64465 -3.7782,-1.00339 -5.81962,-1.00339 l -1.80608,0 c -4.07602,0 1.05232,2.80947 3.41149,2.80947 1.01453,0 2.01515,0.0585 3.01015,0.20068 0.59909,0.0856 0.63677,0.20067 1.20406,0.20067 l 0.20067,0 c -0.25378,0 -1.62911,-0.17697 -1.80608,0 -0.31428,0.31428 -0.53559,0.64678 -1.00339,0.80271 -1.50877,0.50292 -3.60431,-0.31951 -5.0169,-0.60203 -0.0868,-0.0174 -2.17555,-0.33756 -2.20744,-0.40135 -0.28536,-0.57071 1.16461,-1.12516 1.40473,-1.60541 0.52287,-1.04574 -0.36412,-2.03159 0.80271,-2.80947 0.31906,-0.21271 0.0573,-0.43 0.40135,-0.60203 0.24682,-0.12341 2.12012,-0.0873 2.20744,0 0.2114,0.21141 0.14132,1.30866 0.20067,1.60541 0.13566,0.67826 0.43394,1.33441 0.60203,2.00676 0.33561,1.34243 -0.46572,1.17188 0.40136,1.60541 0.72502,0.36251 2.95425,0.14479 3.21082,0.40136 0.1419,0.1419 0,0.40135 0,0.60203 0,0.907 -0.55327,-5.97153 0.8027,-4.61556 0.19265,0.19265 -0.12668,0.9507 0,1.20406 0.23462,0.46922 0.71515,1.57985 0.40136,2.20744 -0.064,0.12794 -0.61267,-0.22196 -0.40136,0.20067 0.4588,0.9176 1.84743,0.41169 2.60879,0.60203 0.12727,0.0318 -0.42643,4.89149 -0.60202,5.41826 -0.31574,0.9472 -2.11517,0.80271 -2.80947,0.80271 -1.41532,0 -3.22027,1.06712 -4.61556,0.60203 -0.77535,-0.25845 -1.17004,-0.99771 -2.40811,-1.20406 -0.92671,-0.15445 -2.39437,0.40823 -3.21082,0 -0.56156,-0.28078 -0.51562,-1.5497 -0.40136,-2.00676 0.0736,-0.29445 2.95268,-5.93454 3.61218,-4.61556 0.36346,0.72693 0.50426,1.50868 1.00338,2.20744 1.20513,1.68718 1.80608,1.79891 1.80608,4.01353 l 0,2.20744 c 0,0.78393 0.0598,0.0212 -0.20067,0.8027 -0.0212,0.0635 0,0.26757 0,0.20068 0,-0.20068 -0.1419,-0.46013 0,-0.60203 0.19502,-0.19502 0.54105,-0.11346 0.8027,-0.20068 2.33078,-0.77692 -0.45333,0.02 2.20744,-1.00338 1.37996,-0.53075 3.65181,-0.88197 4.41488,-2.40811 0.32813,-0.65627 -3.21072,-0.40136 -3.61217,-0.40136 -0.33446,0 -1.23988,-0.2365 -1.00338,0 0.42531,0.42532 0.46043,0.0197 1.00338,0.20068 1.09794,0.36598 2.01296,1.50817 3.01014,2.00676 0.60317,0.30158 2.81197,-0.39386 3.21082,0.80271 0.0967,0.2901 0.14195,1.92354 0,2.20744 -0.30158,0.60316 -2.75359,1.4606 -3.21082,1.00338 -0.17345,-0.17346 -0.0347,-1.83314 0,-2.00676 0.0913,-0.45635 0.66958,-0.92589 1.00338,-1.20406 1.16082,-0.96735 3.57633,-2.26192 5.21759,-1.60541 0.61084,0.24433 0.91706,0.81392 1.40473,1.20406 1.77816,1.42252 1.73953,1.73853 0.80271,3.61217 -0.14354,0.28707 0.0514,0.75127 -0.20068,1.00338 -0.0963,0.0963 -1.72422,-0.83966 -1.80609,-1.00338 -0.0297,-0.0594 -0.0854,-1.11868 0,-1.20406 0.11959,-0.11958 1.27069,-0.73608 1.20406,-0.8027 -0.27048,-0.27048 -0.63321,-0.0624 -0.8027,-0.40136 -0.59468,-1.18935 -0.95566,-1.80608 -2.40812,-1.80608 -0.0893,0 -0.67817,-0.0623 -0.8027,0 -0.27676,0.13838 -0.54143,0.42784 -0.80271,0.60203 -0.176,0.11733 -0.50743,0.0115 -0.60203,0.20067 -0.63833,1.27666 0.33136,2.46412 1.60541,3.01015 0.52982,0.22706 2.38311,0.37634 2.60879,0.60203 0.13379,0.13378 0.0669,0.46824 0.20068,0.60202 0.12801,0.12802 0.0631,1.88052 0,2.00677 -0.15159,0.30317 -0.69638,0.48373 -0.8027,0.8027 -0.0423,0.12692 0.0946,0.30676 0,0.40135 -0.0479,0.0479 -1.67497,0.7153 -1.80609,0.80271 -0.24941,0.16628 -1.18454,1.0229 -1.40474,0.80271 -0.18919,-0.1892 0,-0.53514 0,-0.80271 0,-0.35334 -0.15941,-1.28659 0,-1.60541 0.3948,-0.78959 2.18045,-2.5329 3.01015,-2.80947 1.77012,-0.59004 1.99656,0.97276 2.40812,2.20744 0.20879,0.62638 0.13378,-0.0669 0.40135,0.20068 0.0946,0.0946 -0.0598,0.28169 0,0.40135 0.3528,0.70561 1.00551,1.34139 1.40473,2.00676 0.20789,0.34648 0.48554,1.36264 1.20406,1.00338 0.35338,-0.17669 0.51791,-0.91925 0.80271,-1.20405 0.55814,-0.55815 1.07217,-0.73962 1.40473,-1.40474 0.5334,-1.0668 -4.11338,-1.70623 -0.60203,-5.21758 -1.59906,-1.80621 -1.90936,-4.71883 -3.61217,-6.42164 -0.34109,-0.34109 -0.84104,-0.48507 -1.20406,-0.80271 -0.78773,-0.68926 -1.46436,-1.70478 -2.00676,-2.60879 -0.27162,-0.45269 -0.19705,-0.99612 -0.40136,-1.40473 -0.28823,-0.57648 -1.58857,-1.98993 -2.00676,-2.40812 -0.35946,-0.35946 -2.57279,-0.7907 -3.21082,-1.00338 -1.82426,-0.60809 -3.32788,-2.02735 -5.21758,-2.60879 -1.268,-0.39016 -2.70686,-0.94273 -4.01353,-1.20406 -1.70742,-0.34149 -3.7492,0.47687 -5.41826,0 -5.33697,-1.52485 -12.35406,-2.00393 -16.85681,1.80608 -0.86738,0.73394 -2.80947,2.2998 -2.80947,3.61218 0,0.67439 1.48616,2.76972 2.20744,3.01014 0.46334,0.15445 3.54291,0.31374 4.01353,0 0.20067,-0.13378 0.29349,-0.38631 0.40135,-0.60203 0.65236,-1.30472 -2.17455,-1.95459 -2.80947,-2.40811 -1.10952,-0.79251 -1.63998,-1.95139 -3.01014,-2.40812 -0.33441,-0.11147 -2.19592,0.0115 -2.40812,-0.20067 -0.35836,-0.35837 0.50064,-2.60461 0.60203,-3.01015 0.0801,-0.32046 0.22083,-1.5353 0.40135,-1.80609 0.13726,-0.20588 0.77897,-0.57829 1.00338,-0.8027 0.0721,-0.0721 1.4891,-0.4333 1.60541,-0.20068 0.14958,0.29915 -0.0656,0.67542 0,1.00338 0.60382,3.01911 0.13495,6.35242 -1.20405,9.03044 -0.2655,0.531 -0.48622,0.54412 -1.00339,0.8027 -0.56044,0.28023 -1.0623,1.64042 -1.20405,2.20744 -0.59773,2.3909 1.15934,3.87066 2.40811,5.61894 0.40459,0.56643 2.94118,4.14835 3.61218,3.81285 0.45108,-0.22554 0.40135,-0.79984 0.40135,-1.20406 0,-0.31897 0.10142,-0.8998 0,-1.20406 -0.19184,-0.57552 -0.65671,-0.45603 -1.00338,-0.8027 -0.3351,-0.3351 -0.48113,-0.8293 -1.00338,-1.00338 -0.83411,-0.27804 -2.43154,-0.38965 -3.21083,0 -0.72855,0.36428 -0.49011,2.43126 -0.20067,3.01014 0.11343,0.22686 0.89951,0.89952 1.00338,1.00338 0.0534,0.0535 0.99648,0.005 1.00338,0 0.28123,-0.18748 0.39792,-0.86845 0.80271,-1.00338 0.43639,-0.14546 2.39225,-1.23578 2.80946,-0.40135 0.33134,0.66267 1.58062,3.05973 1.20406,3.81285 -0.32471,0.64942 -0.87821,0.22584 -1.40473,0.40135 -0.22881,0.0763 -0.18563,0.49417 -0.40135,0.60203 -0.83698,0.41849 -1.18493,-0.5829 -1.60541,-1.00338 -0.24554,-0.24554 -0.85333,-0.30192 -1.00339,-0.60203 -0.96685,-1.93371 3.16316,-1.71428 4.01353,-1.20406 0.73654,0.44193 0.65145,1.07752 1.00338,1.60541 0.083,0.12446 0.31838,0.0762 0.40135,0.20068 0.24591,0.36886 0,6.74414 0,7.6257 0,0.29915 0.20985,-0.57289 0.40136,-0.80271 1.37818,-1.65382 3.07112,-2.93142 4.01352,-4.81623 0.22652,-0.45304 -0.0198,-4.19443 0.20068,-4.41488 0.66999,-0.66999 5.32625,1.17164 6.02029,1.60541 0.83596,0.52248 1.88321,1.63612 2.20744,2.6088 0.39966,1.199 -0.21229,2.12452 -0.80271,3.01014 -0.15299,0.22948 -0.0773,0.55602 -0.20067,0.80271 -0.79524,1.59046 -4.13324,0.2024 -4.61556,-1.00339 -0.27674,-0.69184 -0.20068,-1.66443 -0.20068,-2.40811 0,-0.46877 -0.20429,-1.39749 0,-1.80609 0.66132,-1.32262 4.05188,-0.726 4.61556,0.40135 0.3247,0.64941 -0.0131,4.41488 0.40135,4.41488 1.42068,0 2.50522,0.11652 2.80947,-1.40473 0.0668,-0.3342 0.39145,-1.02318 0.20068,-1.40474 -0.54339,-1.08677 -3.74733,-1.93918 -4.81623,-1.40473 -1.13558,0.56779 -0.57266,0.78049 -2.40812,1.20406 -1.32335,0.30539 -7.96817,-0.88562 -6.42164,2.20744 0.22222,0.44444 0.6939,1.47787 1.20406,1.60541 1.0015,0.25038 1.69246,-0.97498 2.60879,-1.20406 1.19301,-0.29825 2.40481,-0.36056 3.61217,-0.60203 1.01692,-0.20338 1.75001,-0.60203 2.80947,-0.60203 4.13596,0 2.15044,1.08768 1.60541,3.81285 -0.18717,0.93587 0.36803,1.72241 -0.60203,2.20744 -0.52435,0.26218 -1.5121,-0.077 -2.00676,-0.20067 -0.9662,-0.24155 -2.52877,0.44136 -3.4115,0 -0.18672,-0.0934 -0.89044,-0.89045 -1.00338,-1.00339 -0.26946,-0.26945 -1.26824,-1.7419 -0.80271,-2.20744 0.64901,-0.649 3.40227,1.00031 4.01353,1.20406 0.14476,0.0483 0.89064,0.0879 1.00338,0.20068 1.02354,1.02354 1.80609,0.83075 1.80609,2.80947 0,0.22991 0.0909,0.82152 0,1.00338 -0.0758,0.15162 -0.63994,0.43926 -0.80271,0.60203 -0.27421,0.27421 -0.50101,0.70032 -0.60203,1.00338 -0.13523,0.4057 -0.64522,0.28706 -0.8027,0.60203 -0.30874,0.61748 0,2.3069 0,3.01014 0,0.90066 -0.0679,1.48442 0.8027,2.00677 1.11866,0.67119 0.0836,-0.42556 1.40474,0.60202 0.37336,0.2904 0.60982,0.74101 1.00338,1.00339 2.07509,1.38339 8.02589,2.54847 10.63584,2.80946 2.52251,0.25226 5.19308,-0.44052 7.6257,0.60203 0.44337,0.19002 0.79044,0.55453 1.20406,0.80271 3.62898,2.17738 3.21413,2.21375 5.41826,6.42164 0.36197,0.69103 0.90238,1.28737 1.20406,2.00676 1.57582,3.75773 2.73779,7.898 3.81285,11.83991"
         id="path4742"
         inkscape:connector-curvature="0"
         sodipodi:nodetypes="cssssssscssssssccssssssssscsssssssssssscscsssssssssscssscccssssscssccsssssssssssssssssssssssscsssssssscssscsssscssssssccsssscsssssccccsscssccsscssscssssccssscssscssssssscscssssssccsscscsssssssssssssssssssccsscscsscsscssssssscssssscssssssscssssccscssscscssssssssssssssssccsssscsssccssssscscsscsssscsssssssssssccssscccccssccscscsssscssscccsssccscsssscscssccsscccsssssccscsssssccssscsscssssssssccscsccccccscccccccccccssssccsssscssccssssssscsssscccsccscsssssssssccssscsscsccscscssscsscssccsssssssssscccccscsscssscsscssc" />
      <rect
         style="opacity:1;fill:#b7b7c8;fill-opacity:1;fill-rule:nonzero;stroke:#666666;stroke-width:0.23642348;stroke-linecap:round;stroke-linejoin:round;stroke-miterlimit:4;stroke-dasharray:0.23642348, 0.47284696;stroke-dashoffset:0;stroke-opacity:1"
         id="rect4904"
         width="32.732533"
         height="22.132622"
         x="154.64999"
         y="555.58862" />
    </g>
    <text
       xml:space="preserve"
       style="font-style:normal;font-weight:normal;font-size:24px;line-height:125%;font-family:Sans;letter-spacing:0px;word-spacing:0px;fill:#000000;fill-opacity:1;stroke:none;stroke-width:1px;stroke-linecap:butt;stroke-linejoin:miter;stroke-opacity:1"
       x="330.4935"
       y="524.28143"
       id="text4782"
       sodipodi:linespacing="125%"><tspan
         sodipodi:role="line"
         id="tspan4784"
         x="330.4935"
         y="524.28143"
         style="font-size:14.0625px">TAD</tspan></text>
    <path
       style="fill:none;fill-rule:evenodd;stroke:#000000;stroke-width:0.80000001;stroke-linecap:butt;stroke-linejoin:miter;stroke-miterlimit:4;stroke-dasharray:none;stroke-opacity:1;marker-end:url(#DotS)"
       d="m 305.53395,621.33528 c 20.35259,-11.7975 26.60206,-29.6369 -2.38747,-52.94533"
       id="path4914"
       inkscape:connector-curvature="0"
       sodipodi:nodetypes="cc" />
    <rect
       style="opacity:1;fill:#ffffff;fill-opacity:1;fill-rule:nonzero;stroke:#808080;stroke-width:1;stroke-linecap:round;stroke-linejoin:round;stroke-miterlimit:4;stroke-dasharray:none;stroke-dashoffset:0;stroke-opacity:1"
       id="rect4908"
       width="139.41237"
       height="84.543434"
       x="166.63594"
       y="621.06317" />
    <g
       id="g4841"
       transform="translate(4.3064891,-6.8186077)">
      <path
         style="fill:none;fill-rule:evenodd;stroke:#ff8080;stroke-width:1px;stroke-linecap:butt;stroke-linejoin:miter;stroke-opacity:1"
         d="m 187.70993,687.61753 c 0.51062,0.1702 5.41282,0.0624 6.041,0.44659"
         id="path4829"
         inkscape:connector-curvature="0"
         sodipodi:nodetypes="cc" />
      <path
         inkscape:connector-curvature="0"
         id="path4788"
         d="m 176.21305,692.30834 c 10.84979,2.04151 16.86079,-5.39892 12.40458,-16.53944 -4.57435,-11.43587 -16.86141,-33.78475 -0.5907,-40.75791 1.86853,-0.8008 7.57609,-4.0066 10.04181,-2.36278 34.07417,22.71611 -30.03361,60.84152 4.72555,60.84152"
         style="fill:none;fill-rule:evenodd;stroke:#666666;stroke-width:1px;stroke-linecap:butt;stroke-linejoin:miter;stroke-opacity:1" />
      <path
         sodipodi:nodetypes="cssccc"
         inkscape:connector-curvature="0"
         id="path4827"
         d="m 187.94546,687.64706 c -0.19657,0.0175 -0.8835,-0.0378 -1.11205,0.35638 -0.2224,0.38354 -0.0924,1.16797 -0.0123,1.3031 0.11032,0.18612 0.64246,0.22887 0.88882,0.31099 0.51062,0.1702 6.19264,0.38446 6.65721,0.15217 1.31369,-0.65684 -0.60015,-1.80697 -0.93963,-1.80697"
         style="fill:none;fill-rule:evenodd;stroke:#ff8080;stroke-width:1px;stroke-linecap:butt;stroke-linejoin:miter;stroke-opacity:1" />
      <path
         d="m 190.2421,682.8042 a 2.5562754,4.531579 0 0 1 -2.55221,4.53157 2.5562754,4.531579 0 0 1 -2.56033,-4.51714 2.5562754,4.531579 0 0 1 2.54405,-4.54596 2.5562754,4.531579 0 0 1 2.56844,4.50266"
         sodipodi:open="true"
         sodipodi:end="6.2768149"
         sodipodi:start="0"
         sodipodi:ry="4.531579"
         sodipodi:rx="2.5562754"
         sodipodi:cy="682.8042"
         sodipodi:cx="187.68582"
         sodipodi:type="arc"
         id="path4831"
         style="opacity:1;fill:#ffb380;fill-opacity:1;fill-rule:nonzero;stroke:none;stroke-width:0.80000001;stroke-linecap:round;stroke-linejoin:round;stroke-miterlimit:4;stroke-dasharray:0.80000001, 0.80000001;stroke-dashoffset:0;stroke-opacity:1" />
      <path
         transform="matrix(0.93969262,0.34202015,-0.34202015,0.93969262,0,0)"
         style="opacity:1;fill:#ffb380;fill-opacity:1;fill-rule:nonzero;stroke:none;stroke-width:0.80000001;stroke-linecap:round;stroke-linejoin:round;stroke-miterlimit:4;stroke-dasharray:0.80000001, 0.80000001;stroke-dashoffset:0;stroke-opacity:1"
         id="path4833"
         sodipodi:type="arc"
         sodipodi:cx="418.05939"
         sodipodi:cy="575.61804"
         sodipodi:rx="2.5562754"
         sodipodi:ry="4.531579"
         sodipodi:start="0"
         sodipodi:end="6.2768149"
         sodipodi:open="true"
         d="m 420.61566,575.61804 a 2.5562754,4.531579 0 0 1 -2.5522,4.53158 2.5562754,4.531579 0 0 1 -2.56034,-4.51714 2.5562754,4.531579 0 0 1 2.54405,-4.54597 2.5562754,4.531579 0 0 1 2.56844,4.50266" />
    </g>
    <g
       id="g4848"
       transform="translate(9.9350206,-16.12474)">
      <path
         inkscape:connector-curvature="0"
         id="path4792"
         d="m 216.78484,698.53626 c 11.47674,-3.94903 9.56426,-16.91965 17.72083,-23.03708 10.47177,-7.85383 30.30827,-9.81682 21.8557,7.08833 -2.57221,5.14442 -22.44639,9.48052 -22.44639,16.53944 0,9.95928 17.41274,-7.67902 19.49292,-7.67902 12.3556,0 15.50542,19.19768 38.39513,10.0418"
         style="fill:none;fill-rule:evenodd;stroke:#666666;stroke-width:1px;stroke-linecap:butt;stroke-linejoin:miter;stroke-opacity:1" />
      <rect
         transform="matrix(0.91354546,0.40673665,-0.40673665,0.91354546,0,0)"
         y="524.87463"
         x="516.11414"
         height="6.5729437"
         width="27.825462"
         id="rect4835"
         style="opacity:1;fill:#ffe680;fill-opacity:1;fill-rule:nonzero;stroke:none;stroke-width:0.80000001;stroke-linecap:round;stroke-linejoin:round;stroke-miterlimit:4;stroke-dasharray:0.80000001, 0.80000001;stroke-dashoffset:0;stroke-opacity:1" />
      <path
         d="m 256.42434,686.05829 a 4.4614835,4.4614835 0 0 1 -4.45437,4.46148 4.4614835,4.4614835 0 0 1 -4.46857,-4.44727 4.4614835,4.4614835 0 0 1 4.44014,-4.47564 4.4614835,4.4614835 0 0 1 4.48271,4.43301"
         sodipodi:open="true"
         sodipodi:end="6.2768149"
         sodipodi:start="0"
         sodipodi:ry="4.4614835"
         sodipodi:rx="4.4614835"
         sodipodi:cy="686.05829"
         sodipodi:cx="251.96286"
         sodipodi:type="arc"
         id="path4837"
         style="opacity:1;fill:#99ff55;fill-opacity:1;fill-rule:nonzero;stroke:none;stroke-width:0.80000001;stroke-linecap:round;stroke-linejoin:round;stroke-miterlimit:4;stroke-dasharray:0.80000001, 0.80000001;stroke-dashoffset:0;stroke-opacity:1" />
      <path
         style="opacity:1;fill:#b7b7c8;fill-opacity:1;fill-rule:nonzero;stroke:none;stroke-width:0.80000001;stroke-linecap:round;stroke-linejoin:round;stroke-miterlimit:4;stroke-dasharray:0.80000001, 0.80000001;stroke-dashoffset:0;stroke-opacity:1"
         id="path4839"
         sodipodi:type="arc"
         sodipodi:cx="251.57072"
         sodipodi:cy="691.84302"
         sodipodi:rx="5.6346874"
         sodipodi:ry="3.6418602"
         sodipodi:start="0"
         sodipodi:end="6.2768149"
         sodipodi:open="true"
         d="m 257.20541,691.84302 a 5.6346874,3.6418602 0 0 1 -5.62571,3.64185 5.6346874,3.6418602 0 0 1 -5.64363,-3.63025 5.6346874,3.6418602 0 0 1 5.60773,-3.65342 5.6346874,3.6418602 0 0 1 5.6615,3.61862" />
    </g>
    <text
       xml:space="preserve"
       style="font-style:normal;font-weight:normal;font-size:14.0625px;line-height:125%;font-family:Sans;letter-spacing:0px;word-spacing:0px;fill:#000000;fill-opacity:1;stroke:none;stroke-width:1px;stroke-linecap:butt;stroke-linejoin:miter;stroke-opacity:1"
       x="171.18341"
       y="702.00201"
       id="text4854"
       sodipodi:linespacing="125%"><tspan
         sodipodi:role="line"
         id="tspan4856"
         x="171.18341"
         y="702.00201"
         style="font-size:11.25px">Insulator</tspan></text>
    <text
       sodipodi:linespacing="125%"
       id="text4858"
       y="701.70349"
       x="235.43977"
       style="font-style:normal;font-weight:normal;font-size:14.0625px;line-height:125%;font-family:Sans;letter-spacing:0px;word-spacing:0px;fill:#000000;fill-opacity:1;stroke:none;stroke-width:1px;stroke-linecap:butt;stroke-linejoin:miter;stroke-opacity:1"
       xml:space="preserve"><tspan
         y="701.70349"
         x="235.43977"
         id="tspan4860"
         sodipodi:role="line"
         style="font-size:11.25px">Enhancer</tspan></text>
    <text
       sodipodi:linespacing="125%"
       id="text5114"
       y="634.67804"
       x="241.08913"
       style="font-style:normal;font-weight:normal;font-size:24px;line-height:125%;font-family:Sans;letter-spacing:0px;word-spacing:0px;fill:#000000;fill-opacity:1;stroke:none;stroke-width:1px;stroke-linecap:butt;stroke-linejoin:miter;stroke-opacity:1"
       xml:space="preserve"><tspan
         style="font-size:14.0625px"
         y="634.67804"
         x="241.08913"
         id="tspan5116"
         sodipodi:role="line">Contacts</tspan></text>
  </g>
</svg>
