<?xml version="1.0" encoding="UTF-8" standalone="no"?>
<!-- Created with Inkscape (http://www.inkscape.org/) -->

<svg
   xmlns:dc="http://purl.org/dc/elements/1.1/"
   xmlns:cc="http://creativecommons.org/ns#"
   xmlns:rdf="http://www.w3.org/1999/02/22-rdf-syntax-ns#"
   xmlns:svg="http://www.w3.org/2000/svg"
   xmlns="http://www.w3.org/2000/svg"
   xmlns:xlink="http://www.w3.org/1999/xlink"
   xmlns:sodipodi="http://sodipodi.sourceforge.net/DTD/sodipodi-0.dtd"
   xmlns:inkscape="http://www.inkscape.org/namespaces/inkscape"
   width="210mm"
   height="297mm"
   viewBox="0 0 744.09448819 1052.3622047"
   id="svg2"
   version="1.1"
   inkscape:version="0.91 r13725"
   sodipodi:docname="hic.svg">
  <defs
     id="defs4">
    <linearGradient
       inkscape:collect="always"
       id="linearGradient5274">
      <stop
         style="stop-color:#ffccaa;stop-opacity:1;"
         offset="0"
         id="stop5276" />
      <stop
         style="stop-color:#ffccaa;stop-opacity:0;"
         offset="1"
         id="stop5278" />
    </linearGradient>
    <linearGradient
       inkscape:collect="always"
       id="linearGradient5266">
      <stop
         style="stop-color:#ffe6d5;stop-opacity:1"
         offset="0"
         id="stop5268" />
      <stop
         style="stop-color:#ffccaa;stop-opacity:1"
         offset="1"
         id="stop5270" />
    </linearGradient>
    <linearGradient
       inkscape:collect="always"
       id="linearGradient5203">
      <stop
         style="stop-color:#ff8080;stop-opacity:1;"
         offset="0"
         id="stop5205" />
      <stop
         style="stop-color:#d35f5f;stop-opacity:1"
         offset="1"
         id="stop5207" />
    </linearGradient>
    <linearGradient
       inkscape:collect="always"
       id="linearGradient5201">
      <stop
         style="stop-color:#80b3ff;stop-opacity:1;"
         offset="0"
         id="stop5177" />
      <stop
         style="stop-color:#2a7fff;stop-opacity:1"
         offset="1"
         id="stop5179" />
    </linearGradient>
    <linearGradient
       inkscape:collect="always"
       xlink:href="#linearGradient5201"
       id="linearGradient5185"
       x1="55.087059"
       y1="428.64771"
       x2="119.6551"
       y2="428.64771"
       gradientUnits="userSpaceOnUse" />
    <linearGradient
       inkscape:collect="always"
       xlink:href="#linearGradient5203"
       id="linearGradient5211"
       x1="106.79425"
       y1="446.24625"
       x2="190.80225"
       y2="446.24625"
       gradientUnits="userSpaceOnUse" />
    <linearGradient
       inkscape:collect="always"
       xlink:href="#linearGradient5203"
       id="linearGradient5240"
       x1="418.23679"
       y1="447.56635"
       x2="489.31857"
       y2="447.56635"
       gradientUnits="userSpaceOnUse" />
    <linearGradient
       inkscape:collect="always"
       xlink:href="#linearGradient5201"
       id="linearGradient5248"
       x1="372.50278"
       y1="462.20779"
       x2="409.92676"
       y2="462.20779"
       gradientUnits="userSpaceOnUse" />
    <linearGradient
       inkscape:collect="always"
       xlink:href="#linearGradient5201"
       id="linearGradient5256"
       x1="390.60251"
       y1="458.14816"
       x2="426.85693"
       y2="458.14816"
       gradientUnits="userSpaceOnUse" />
    <linearGradient
       inkscape:collect="always"
       xlink:href="#linearGradient5203"
       id="linearGradient5264"
       x1="394.07089"
       y1="469.48123"
       x2="436.43271"
       y2="469.48123"
       gradientUnits="userSpaceOnUse" />
    <radialGradient
       inkscape:collect="always"
       xlink:href="#linearGradient5266"
       id="radialGradient5272"
       cx="477.92755"
       cy="-382.91617"
       fx="477.92755"
       fy="-382.91617"
       r="24.722006"
       gradientTransform="matrix(0.95225875,0.04774297,-0.09069148,1.8088896,-12.132725,286.23852)"
       gradientUnits="userSpaceOnUse" />
    <radialGradient
       inkscape:collect="always"
       xlink:href="#linearGradient5274"
       id="radialGradient5280"
       cx="476.52493"
       cy="-382.41657"
       fx="476.52493"
       fy="-382.41657"
       r="24.722006"
       gradientTransform="matrix(1.0000004,0,0,0.7678573,-1.8382391e-4,-88.775216)"
       gradientUnits="userSpaceOnUse" />
  </defs>
  <sodipodi:namedview
     id="base"
     pagecolor="#ffffff"
     bordercolor="#666666"
     borderopacity="1.0"
     inkscape:pageopacity="0.0"
     inkscape:pageshadow="2"
     inkscape:zoom="0.84726411"
     inkscape:cx="285.6801"
     inkscape:cy="659.23445"
     inkscape:document-units="px"
     inkscape:current-layer="layer1"
     showgrid="false"
     inkscape:window-width="1680"
     inkscape:window-height="1028"
     inkscape:window-x="0"
     inkscape:window-y="0"
     inkscape:window-maximized="1" />
  <metadata
     id="metadata7">
    <rdf:RDF>
      <cc:Work
         rdf:about="">
        <dc:format>image/svg+xml</dc:format>
        <dc:type
           rdf:resource="http://purl.org/dc/dcmitype/StillImage" />
        <dc:title />
      </cc:Work>
    </rdf:RDF>
  </metadata>
  <g
     inkscape:label="Layer 1"
     inkscape:groupmode="layer"
     id="layer1">
    <path
       style="fill:none;fill-rule:evenodd;stroke:url(#linearGradient5185);stroke-width:8;stroke-linecap:butt;stroke-linejoin:miter;stroke-miterlimit:4;stroke-dasharray:none;stroke-opacity:1"
       d="M 58.065253,539.12712 C 115.6957,474.85105 57.984753,384.17123 116.66546,318.15547"
       id="path3336"
       inkscape:connector-curvature="0" />
    <path
       style="fill:none;fill-rule:evenodd;stroke:url(#linearGradient5211);stroke-width:8;stroke-linecap:butt;stroke-linejoin:miter;stroke-miterlimit:4;stroke-dasharray:none;stroke-opacity:1"
       d="M 122.76965,564.6356 C 90.877393,448.80432 125.92544,421.33681 187.47405,329.0139"
       id="path4140"
       inkscape:connector-curvature="0"
       sodipodi:nodetypes="cc" />
    <path
       style="opacity:0.98999999;fill:#ffb380;fill-opacity:1;fill-rule:nonzero;stroke:#80b3ff;stroke-width:0;stroke-linecap:round;stroke-linejoin:round;stroke-miterlimit:4;stroke-dasharray:none;stroke-dashoffset:0;stroke-opacity:1"
       id="path4142"
       sodipodi:type="arc"
       sodipodi:cx="444.94861"
       sodipodi:cy="-115.36361"
       sodipodi:rx="24.722"
       sodipodi:ry="18.982965"
       sodipodi:start="0"
       sodipodi:end="6.2768149"
       sodipodi:open="true"
       d="m 469.67061,-115.36361 a 24.722,18.982965 0 0 1 -24.68263,18.982942 24.722,18.982965 0 0 1 -24.76125,-18.922472 24.722,18.982965 0 0 1 24.60376,-19.04322 24.722,18.982965 0 0 1 24.83962,18.86182"
       transform="matrix(0,1,-1,0,0,0)" />
    <path
       d="m 467.02184,-90.641624 a 24.722,18.982965 0 0 1 -24.68263,18.982941 24.722,18.982965 0 0 1 -24.76125,-18.922477 24.722,18.982965 0 0 1 24.60376,-19.04321 24.722,18.982965 0 0 1 24.83961,18.861817"
       sodipodi:open="true"
       sodipodi:end="6.2768149"
       sodipodi:start="0"
       sodipodi:ry="18.982965"
       sodipodi:rx="24.722"
       sodipodi:cy="-90.641624"
       sodipodi:cx="442.29984"
       sodipodi:type="arc"
       id="path4144"
       style="opacity:0.98999999;fill:#ffccaa;fill-opacity:1;fill-rule:nonzero;stroke:#80b3ff;stroke-width:0;stroke-linecap:round;stroke-linejoin:round;stroke-miterlimit:4;stroke-dasharray:none;stroke-dashoffset:0;stroke-opacity:1"
       transform="matrix(0,1,-1,0,0,0)" />
    <flowRoot
       xml:space="preserve"
       id="flowRoot4154"
       style="font-style:normal;font-weight:normal;font-size:24px;line-height:125%;font-family:Sans;letter-spacing:0px;word-spacing:0px;fill:#000000;fill-opacity:1;stroke:none;stroke-width:1px;stroke-linecap:butt;stroke-linejoin:miter;stroke-opacity:1"
       transform="translate(-64.804527,-37.154347)"><flowRegion
         id="flowRegion4156"><rect
           id="rect4158"
           width="175.80063"
           height="40.287674"
           x="78.133621"
           y="611.63977" /></flowRegion><flowPara
         id="flowPara4160"
         style="font-size:22.5px">Crosslink DNA</flowPara></flowRoot>    <g
       id="g4212"
       transform="translate(-112.78243,-175.25955)">
      <g
         id="g5229"
         style="stroke:url(#linearGradient5240)">
        <path
           sodipodi:nodetypes="cc"
           inkscape:connector-curvature="0"
           id="path4164"
           d="m 422.82125,522.2825 c -4.75989,-60.98407 19.64135,-93.35433 59.10242,-150.53818"
           style="fill:none;fill-rule:evenodd;stroke:url(#linearGradient5240);stroke-width:8;stroke-linecap:butt;stroke-linejoin:miter;stroke-miterlimit:4;stroke-dasharray:none;stroke-opacity:1" />
        <path
           style="fill:none;fill-rule:evenodd;stroke:url(#linearGradient5240);stroke-width:4;stroke-linecap:butt;stroke-linejoin:miter;stroke-miterlimit:4;stroke-dasharray:none;stroke-opacity:1"
           d="m 480.96927,376.69838 c 2.18203,-3.15632 4.41735,-6.38553 6.70319,-9.69799"
           id="path4208"
           inkscape:connector-curvature="0"
           sodipodi:nodetypes="cc" />
        <path
           style="fill:none;fill-rule:evenodd;stroke:url(#linearGradient5240);stroke-width:4;stroke-linecap:butt;stroke-linejoin:miter;stroke-miterlimit:4;stroke-dasharray:none;stroke-opacity:1"
           d="m 421.20989,529.11257 c -0.29485,-3.77766 -0.52984,-7.39349 -0.60425,-10.96426"
           id="path4210"
           inkscape:connector-curvature="0"
           sodipodi:nodetypes="cc" />
      </g>
    </g>
    <path
       transform="matrix(0,1,-1,0,0,0)"
       d="m 309.09288,-313.87869 a 24.722,18.982965 0 0 1 -24.68263,18.98294 24.722,18.982965 0 0 1 -24.76124,-18.92248 24.722,18.982965 0 0 1 24.60375,-19.04321 24.722,18.982965 0 0 1 24.83962,18.86182"
       sodipodi:open="true"
       sodipodi:end="6.2768149"
       sodipodi:start="0"
       sodipodi:ry="18.982965"
       sodipodi:rx="24.722"
       sodipodi:cy="-313.87869"
       sodipodi:cx="284.37088"
       sodipodi:type="arc"
       id="path4166"
       style="opacity:0.98999999;fill:#ffb380;fill-opacity:1;fill-rule:nonzero;stroke:#80b3ff;stroke-width:0;stroke-linecap:round;stroke-linejoin:round;stroke-miterlimit:4;stroke-dasharray:none;stroke-dashoffset:0;stroke-opacity:1" />
    <g
       id="g4184"
       transform="translate(-112.78243,-175.25955)"
       style="stroke:url(#linearGradient5248)">
      <path
         sodipodi:nodetypes="cc"
         style="fill:none;fill-rule:evenodd;stroke:url(#linearGradient5248);stroke-width:8;stroke-linecap:butt;stroke-linejoin:miter;stroke-miterlimit:4;stroke-dasharray:none;stroke-opacity:1"
         d="m 379.28676,544.11691 c 31.71457,-48.89794 10.65976,-109.94266 25.08371,-163.6866"
         id="path4162"
         inkscape:connector-curvature="0" />
      <path
         inkscape:connector-curvature="0"
         id="path4180"
         d="m 374.18076,548.13918 c 3.77814,-5.82519 7.95792,-11.43926 10.38747,-17.57634"
         style="fill:none;fill-rule:evenodd;stroke:url(#linearGradient5248);stroke-width:4;stroke-linecap:butt;stroke-linejoin:miter;stroke-miterlimit:4;stroke-dasharray:none;stroke-opacity:1"
         sodipodi:nodetypes="cc" />
      <path
         inkscape:connector-curvature="0"
         id="path4182"
         d="m 404.97226,386.2231 c 0.66149,-3.54527 2.08646,-7.02754 3.02286,-10.51659"
         style="fill:none;fill-rule:evenodd;stroke:url(#linearGradient5248);stroke-width:4;stroke-linecap:butt;stroke-linejoin:miter;stroke-miterlimit:4;stroke-dasharray:none;stroke-opacity:1"
         sodipodi:nodetypes="cc" />
    </g>
    <path
       transform="matrix(0,1,-1,0,0,0)"
       style="opacity:0.98999999;fill:#ffccaa;fill-opacity:1;fill-rule:nonzero;stroke:#80b3ff;stroke-width:0;stroke-linecap:round;stroke-linejoin:round;stroke-miterlimit:4;stroke-dasharray:none;stroke-dashoffset:0;stroke-opacity:1"
       id="path4168"
       sodipodi:type="arc"
       sodipodi:cx="281.72211"
       sodipodi:cy="-289.15671"
       sodipodi:rx="24.722"
       sodipodi:ry="18.982965"
       sodipodi:start="0"
       sodipodi:end="6.2768149"
       sodipodi:open="true"
       d="m 306.44411,-289.15671 a 24.722,18.982965 0 0 1 -24.68263,18.98294 24.722,18.982965 0 0 1 -24.76125,-18.92247 24.722,18.982965 0 0 1 24.60376,-19.04322 24.722,18.982965 0 0 1 24.83962,18.86182" />
    <flowRoot
       transform="translate(159.8961,-479.37335)"
       style="font-style:normal;font-weight:normal;font-size:24px;line-height:125%;font-family:Sans;text-align:center;letter-spacing:0px;word-spacing:0px;text-anchor:middle;fill:#000000;fill-opacity:1;stroke:none;stroke-width:1px;stroke-linecap:butt;stroke-linejoin:miter;stroke-opacity:1"
       id="flowRoot4170"
       xml:space="preserve"><flowRegion
         id="flowRegion4172"><rect
           y="611.63977"
           x="78.133621"
           height="64.432014"
           width="169.97269"
           id="rect4174"
           style="text-align:center;text-anchor:middle" /></flowRegion><flowPara
         style="font-size:22.5px;text-align:center;text-anchor:middle"
         id="flowPara4176">Add restriction enzyme</flowPara></flowRoot>    <path
       style="fill:none;fill-rule:evenodd;stroke:url(#linearGradient5264);stroke-width:8;stroke-linecap:butt;stroke-linejoin:miter;stroke-miterlimit:4;stroke-dasharray:none;stroke-opacity:1"
       d="m 398.04396,546.47146 c 1.15293,-9.88768 4.49758,-27.44426 6.01091,-35.93045 4.94829,-27.74823 19.69477,-48.8411 27.6964,-78.15272 3.69487,-13.53509 -8.18218,-27.9495 -21.29336,-34.39104 -0.65122,-0.31995 -2.70579,-0.78711 -4.88482,-1.20784 -0.0983,-0.019 -0.19694,-0.0379 -0.29567,-0.0567 -0.89593,-0.17042 -1.6418,-0.27493 -2.308,-0.35104 -0.41583,-0.0475 -0.80063,-0.0839 -1.17151,-0.11844 -0.18123,-0.0169 -0.35915,-0.0332 -0.53574,-0.0502 -0.62111,-0.0598 -1.22583,-0.12698 -1.90111,-0.24793"
       id="path4219"
       inkscape:connector-curvature="0"
       sodipodi:nodetypes="cssssssssc" />
    <path
       style="opacity:0.98999999;fill:#ffb380;fill-opacity:1;fill-rule:nonzero;stroke:#80b3ff;stroke-width:0;stroke-linecap:round;stroke-linejoin:round;stroke-miterlimit:4;stroke-dasharray:none;stroke-dashoffset:0;stroke-opacity:1"
       id="path4225"
       sodipodi:type="arc"
       sodipodi:cx="479.17371"
       sodipodi:cy="-407.13855"
       sodipodi:rx="24.722"
       sodipodi:ry="18.982965"
       sodipodi:start="0"
       sodipodi:end="6.2768149"
       sodipodi:open="true"
       d="m 503.89571,-407.13855 a 24.722,18.982965 0 0 1 -24.68263,18.98294 24.722,18.982965 0 0 1 -24.76125,-18.92248 24.722,18.982965 0 0 1 24.60376,-19.04321 24.722,18.982965 0 0 1 24.83961,18.86182"
       transform="matrix(0,1,-1,0,0,0)" />
    <g
       transform="translate(-20.083873,16.009982)"
       id="g4227"
       style="stroke:url(#linearGradient5256)">
      <path
         inkscape:connector-curvature="0"
         id="path4229"
         d="m 418.10153,530.44124 c -0.91514,7.31726 -12.79921,7.44944 -17.97748,2.90485 -6.95021,-6.0997 -5.9846,-24.34584 -4.3137,-34.96231 0,0 0.95932,-7.00861 1.29622,-10.54757 2.34995,-24.68545 0.44825,-50.41177 2.22965,-75.43035 0.77175,-10.83874 11.38165,-34.52046 20.13724,-32.40099"
         style="fill:none;fill-rule:evenodd;stroke:url(#linearGradient5256);stroke-width:8;stroke-linecap:butt;stroke-linejoin:miter;stroke-miterlimit:4;stroke-dasharray:none;stroke-opacity:1"
         sodipodi:nodetypes="cssssc" />
      <path
         sodipodi:nodetypes="csc"
         style="fill:none;fill-rule:evenodd;stroke:url(#linearGradient5256);stroke-width:4;stroke-linecap:butt;stroke-linejoin:miter;stroke-miterlimit:4;stroke-dasharray:none;stroke-opacity:1"
         d="m 415.74336,382.00517 c 1.62204,0.30265 3.22642,-0.11824 4.88639,0.1357 2.09627,0.32069 3.81603,0.32583 5.70876,0.83381"
         id="path4233"
         inkscape:connector-curvature="0" />
    </g>
    <path
       d="m 501.24693,-382.41656 a 24.722,18.982965 0 0 1 -24.68262,18.98294 24.722,18.982965 0 0 1 -24.76125,-18.92248 24.722,18.982965 0 0 1 24.60376,-19.04321 24.722,18.982965 0 0 1 24.83961,18.86182"
       sodipodi:open="true"
       sodipodi:end="6.2768149"
       sodipodi:start="0"
       sodipodi:ry="18.982965"
       sodipodi:rx="24.722"
       sodipodi:cy="-382.41656"
       sodipodi:cx="476.52493"
       sodipodi:type="arc"
       id="path4235"
       style="opacity:0.98999999;fill:url(#radialGradient5280);fill-opacity:1;fill-rule:nonzero;stroke:url(#radialGradient5272);stroke-width:0;stroke-linecap:round;stroke-linejoin:round;stroke-miterlimit:4;stroke-dasharray:none;stroke-dashoffset:0;stroke-opacity:1"
       transform="matrix(0,1,-1,0,0,0)" />
    <flowRoot
       xml:space="preserve"
       id="flowRoot4237"
       style="font-style:normal;font-weight:normal;font-size:24px;line-height:125%;font-family:Sans;text-align:center;letter-spacing:0px;word-spacing:0px;text-anchor:middle;fill:#000000;fill-opacity:1;stroke:none;stroke-width:1px;stroke-linecap:butt;stroke-linejoin:miter;stroke-opacity:1"
       transform="translate(230.23973,-44.182479)"><flowRegion
         id="flowRegion4239"><rect
           style="text-align:center;text-anchor:middle"
           id="rect4241"
           width="169.97269"
           height="64.432014"
           x="78.133621"
           y="611.63977" /></flowRegion><flowPara
         id="flowPara4243"
         style="font-size:22.5px;text-align:center;text-anchor:middle">Ligate and biotinylate</flowPara></flowRoot>    <path
       style="opacity:0.98999999;fill:#8dd35f;fill-opacity:1;fill-rule:nonzero;stroke:none;stroke-width:4;stroke-linecap:round;stroke-linejoin:round;stroke-miterlimit:4;stroke-dasharray:none;stroke-dashoffset:0;stroke-opacity:1"
       id="path4245"
       sodipodi:type="arc"
       sodipodi:cx="400.40332"
       sodipodi:cy="389.93719"
       sodipodi:rx="2.3127973"
       sodipodi:ry="2.3127973"
       sodipodi:start="0"
       sodipodi:end="6.2768149"
       sodipodi:open="true"
       d="m 402.71612,389.93719 a 2.3127973,2.3127973 0 0 1 -2.30912,2.3128 2.3127973,2.3127973 0 0 1 -2.31647,-2.30543 2.3127973,2.3127973 0 0 1 2.30174,-2.32014 2.3127973,2.3127973 0 0 1 2.3238,2.29804" />
    <path
       d="m 407.11834,403.13275 a 2.3127973,2.3127973 0 0 1 -2.30911,2.3128 2.3127973,2.3127973 0 0 1 -2.31647,-2.30543 2.3127973,2.3127973 0 0 1 2.30173,-2.32014 2.3127973,2.3127973 0 0 1 2.3238,2.29804"
       sodipodi:open="true"
       sodipodi:end="6.2768149"
       sodipodi:start="0"
       sodipodi:ry="2.3127973"
       sodipodi:rx="2.3127973"
       sodipodi:cy="403.13275"
       sodipodi:cx="404.80554"
       sodipodi:type="arc"
       id="path4247"
       style="opacity:0.98999999;fill:#8dd35f;fill-opacity:1;fill-rule:nonzero;stroke:none;stroke-width:4;stroke-linecap:round;stroke-linejoin:round;stroke-miterlimit:4;stroke-dasharray:none;stroke-dashoffset:0;stroke-opacity:1" />
    <path
       sodipodi:nodetypes="csc"
       inkscape:connector-curvature="0"
       id="path4223"
       d="m 392.70775,549.87 c 1.04699,-0.32043 2.88005,-1.56109 3.24599,-3.18439 0.34457,-1.52855 0.69382,-3.02987 0.65582,-4.85352"
       style="fill:none;fill-rule:evenodd;stroke:#ff8080;stroke-width:4;stroke-linecap:butt;stroke-linejoin:miter;stroke-miterlimit:4;stroke-dasharray:none;stroke-opacity:1" />
    <path
       d="m 393.51293,545.82782 a 2.3127973,2.3127973 0 0 1 -2.30911,2.31279 2.3127973,2.3127973 0 0 1 -2.31647,-2.30542 2.3127973,2.3127973 0 0 1 2.30173,-2.32014 2.3127973,2.3127973 0 0 1 2.3238,2.29804"
       sodipodi:open="true"
       sodipodi:end="6.2768149"
       sodipodi:start="0"
       sodipodi:ry="2.3127973"
       sodipodi:rx="2.3127973"
       sodipodi:cy="545.82782"
       sodipodi:cx="391.20013"
       sodipodi:type="arc"
       id="path4251"
       style="opacity:0.98999999;fill:#8dd35f;fill-opacity:1;fill-rule:nonzero;stroke:none;stroke-width:4;stroke-linecap:round;stroke-linejoin:round;stroke-miterlimit:4;stroke-dasharray:none;stroke-dashoffset:0;stroke-opacity:1" />
    <path
       style="opacity:0.98999999;fill:#8dd35f;fill-opacity:1;fill-rule:nonzero;stroke:none;stroke-width:4;stroke-linecap:round;stroke-linejoin:round;stroke-miterlimit:4;stroke-dasharray:none;stroke-dashoffset:0;stroke-opacity:1"
       id="path4253"
       sodipodi:type="arc"
       sodipodi:cx="404.18213"
       sodipodi:cy="547.56989"
       sodipodi:rx="2.3127973"
       sodipodi:ry="2.3127973"
       sodipodi:start="0"
       sodipodi:end="6.2768149"
       sodipodi:open="true"
       d="m 406.49493,547.56989 a 2.3127973,2.3127973 0 0 1 -2.30912,2.31279 2.3127973,2.3127973 0 0 1 -2.31647,-2.30543 2.3127973,2.3127973 0 0 1 2.30174,-2.32014 2.3127973,2.3127973 0 0 1 2.3238,2.29804" />
  </g>
</svg>
