<?xml version="1.0" encoding="UTF-8" standalone="no"?>
<!-- Created with Inkscape (http://www.inkscape.org/) -->

<svg
   xmlns:dc="http://purl.org/dc/elements/1.1/"
   xmlns:cc="http://creativecommons.org/ns#"
   xmlns:rdf="http://www.w3.org/1999/02/22-rdf-syntax-ns#"
   xmlns:svg="http://www.w3.org/2000/svg"
   xmlns="http://www.w3.org/2000/svg"
   xmlns:sodipodi="http://sodipodi.sourceforge.net/DTD/sodipodi-0.dtd"
   xmlns:inkscape="http://www.inkscape.org/namespaces/inkscape"
   id="svg4155"
   version="1.1"
   inkscape:version="0.91 r13725"
   xml:space="preserve"
   width="395"
   height="395"
   viewBox="0 0 395 395"
   sodipodi:docname="tadpred_auroc.svg"><metadata
     id="metadata4161"><rdf:RDF><cc:Work
         rdf:about=""><dc:format>image/svg+xml</dc:format><dc:type
           rdf:resource="http://purl.org/dc/dcmitype/StillImage" /><dc:title></dc:title></cc:Work></rdf:RDF></metadata><defs
     id="defs4159"><clipPath
       clipPathUnits="userSpaceOnUse"
       id="clipPath4175"><path
         d="m 0,6.14 316.8,0 0,304.52 L 0,310.66 0,6.14 Z"
         id="path4177"
         inkscape:connector-curvature="0" /></clipPath><clipPath
       clipPathUnits="userSpaceOnUse"
       id="clipPath4189"><path
         d="m 49.56,43.42 252.84,0 0,252.84 -252.84,0 0,-252.84 z"
         id="path4191"
         inkscape:connector-curvature="0" /></clipPath></defs><sodipodi:namedview
     pagecolor="#ffffff"
     bordercolor="#666666"
     borderopacity="1"
     objecttolerance="10"
     gridtolerance="10"
     guidetolerance="10"
     inkscape:pageopacity="0"
     inkscape:pageshadow="2"
     inkscape:window-width="1680"
     inkscape:window-height="1028"
     id="namedview4157"
     showgrid="false"
     inkscape:zoom="2.1822785"
     inkscape:cx="197.5"
     inkscape:cy="197.5"
     inkscape:window-x="1380"
     inkscape:window-y="1050"
     inkscape:window-maximized="1"
     inkscape:current-layer="g4163" /><g
     id="g4163"
     inkscape:groupmode="layer"
     inkscape:label="tad_bounds_auroc_v2"
     transform="matrix(1.25,0,0,-1.25,0,395)"><g
       id="g4165" /><g
       id="g4167" /><g
       id="g4169" /><g
       id="g4171"><g
         id="g4173"
         clip-path="url(#clipPath4175)" /></g><g
       id="g4179" /><g
       id="g4181" /><g
       id="g4183" /><g
       id="g4185"><g
         id="g4187"
         clip-path="url(#clipPath4189)"><path
           d="m 49.56,75.03 252.84,0"
           style="fill:none;stroke:#fafafa;stroke-width:1.05999994;stroke-linecap:butt;stroke-linejoin:round;stroke-miterlimit:10;stroke-dasharray:none;stroke-opacity:1"
           id="path4193"
           inkscape:connector-curvature="0" /><path
           d="m 49.56,138.24 252.84,0"
           style="fill:none;stroke:#fafafa;stroke-width:1.05999994;stroke-linecap:butt;stroke-linejoin:round;stroke-miterlimit:10;stroke-dasharray:none;stroke-opacity:1"
           id="path4195"
           inkscape:connector-curvature="0" /><path
           d="m 49.56,201.45 252.84,0"
           style="fill:none;stroke:#fafafa;stroke-width:1.05999994;stroke-linecap:butt;stroke-linejoin:round;stroke-miterlimit:10;stroke-dasharray:none;stroke-opacity:1"
           id="path4197"
           inkscape:connector-curvature="0" /><path
           d="m 49.56,264.66 252.84,0"
           style="fill:none;stroke:#fafafa;stroke-width:1.05999994;stroke-linecap:butt;stroke-linejoin:round;stroke-miterlimit:10;stroke-dasharray:none;stroke-opacity:1"
           id="path4199"
           inkscape:connector-curvature="0" /><path
           d="m 81.17,43.42 0,252.84"
           style="fill:none;stroke:#fafafa;stroke-width:1.05999994;stroke-linecap:butt;stroke-linejoin:round;stroke-miterlimit:10;stroke-dasharray:none;stroke-opacity:1"
           id="path4201"
           inkscape:connector-curvature="0" /><path
           d="m 144.38,43.42 0,252.84"
           style="fill:none;stroke:#fafafa;stroke-width:1.05999994;stroke-linecap:butt;stroke-linejoin:round;stroke-miterlimit:10;stroke-dasharray:none;stroke-opacity:1"
           id="path4203"
           inkscape:connector-curvature="0" /><path
           d="m 207.59,43.42 0,252.84"
           style="fill:none;stroke:#fafafa;stroke-width:1.05999994;stroke-linecap:butt;stroke-linejoin:round;stroke-miterlimit:10;stroke-dasharray:none;stroke-opacity:1"
           id="path4205"
           inkscape:connector-curvature="0" /><path
           d="m 270.8,43.42 0,252.84"
           style="fill:none;stroke:#fafafa;stroke-width:1.05999994;stroke-linecap:butt;stroke-linejoin:round;stroke-miterlimit:10;stroke-dasharray:none;stroke-opacity:1"
           id="path4207"
           inkscape:connector-curvature="0" /><path
           d="m 49.56,43.42 252.84,0"
           style="fill:none;stroke:#e5e5e5;stroke-width:0.43000001;stroke-linecap:butt;stroke-linejoin:round;stroke-miterlimit:10;stroke-dasharray:none;stroke-opacity:1"
           id="path4209"
           inkscape:connector-curvature="0" /><path
           d="m 49.56,106.63 252.84,0"
           style="fill:none;stroke:#e5e5e5;stroke-width:0.43000001;stroke-linecap:butt;stroke-linejoin:round;stroke-miterlimit:10;stroke-dasharray:none;stroke-opacity:1"
           id="path4211"
           inkscape:connector-curvature="0" /><path
           d="m 49.56,169.84 252.84,0"
           style="fill:none;stroke:#e5e5e5;stroke-width:0.43000001;stroke-linecap:butt;stroke-linejoin:round;stroke-miterlimit:10;stroke-dasharray:none;stroke-opacity:1"
           id="path4213"
           inkscape:connector-curvature="0" /><path
           d="m 49.56,233.05 252.84,0"
           style="fill:none;stroke:#e5e5e5;stroke-width:0.43000001;stroke-linecap:butt;stroke-linejoin:round;stroke-miterlimit:10;stroke-dasharray:none;stroke-opacity:1"
           id="path4215"
           inkscape:connector-curvature="0" /><path
           d="m 49.56,296.26 252.84,0"
           style="fill:none;stroke:#e5e5e5;stroke-width:0.43000001;stroke-linecap:butt;stroke-linejoin:round;stroke-miterlimit:10;stroke-dasharray:none;stroke-opacity:1"
           id="path4217"
           inkscape:connector-curvature="0" /><path
           d="m 49.56,43.42 0,252.84"
           style="fill:none;stroke:#e5e5e5;stroke-width:0.43000001;stroke-linecap:butt;stroke-linejoin:round;stroke-miterlimit:10;stroke-dasharray:none;stroke-opacity:1"
           id="path4219"
           inkscape:connector-curvature="0" /><path
           d="m 112.77,43.42 0,252.84"
           style="fill:none;stroke:#e5e5e5;stroke-width:0.43000001;stroke-linecap:butt;stroke-linejoin:round;stroke-miterlimit:10;stroke-dasharray:none;stroke-opacity:1"
           id="path4221"
           inkscape:connector-curvature="0" /><path
           d="m 175.98,43.42 0,252.84"
           style="fill:none;stroke:#e5e5e5;stroke-width:0.43000001;stroke-linecap:butt;stroke-linejoin:round;stroke-miterlimit:10;stroke-dasharray:none;stroke-opacity:1"
           id="path4223"
           inkscape:connector-curvature="0" /><path
           d="m 239.19,43.42 0,252.84"
           style="fill:none;stroke:#e5e5e5;stroke-width:0.43000001;stroke-linecap:butt;stroke-linejoin:round;stroke-miterlimit:10;stroke-dasharray:none;stroke-opacity:1"
           id="path4225"
           inkscape:connector-curvature="0" /><path
           d="m 302.4,43.42 0,252.84"
           style="fill:none;stroke:#e5e5e5;stroke-width:0.43000001;stroke-linecap:butt;stroke-linejoin:round;stroke-miterlimit:10;stroke-dasharray:none;stroke-opacity:1"
           id="path4227"
           inkscape:connector-curvature="0" /><path
           d="m 49.56,43.42 0,0.77 0.76,0 0.75,0 0.75,0 0.75,0.77 0.76,0 0,0.77 0.75,0 0,0.77 0.75,0.77 0.75,0 0.76,2.3 0.75,0 0.75,0.77 1.51,0 0.75,0 0,0.77 0.75,1.53 0,0.77 0.75,1.54 0,0.77 1.51,0.77 0,0.77 0.75,1.53 0,0.77 0.75,1.54 2.26,0 0,0.77 0,0.77 0,0.76 0,3.08 0,0.77 0.75,0 0,2.3 0,0.77 0,0.77 0,0.77 0.75,0 1.51,0 0,0.77 0,1.53 0.75,0.77 0,1.54 1.51,0.77 0.75,0 0.75,1.53 0,0.77 0,0.77 0,1.54 0.75,1.53 0.76,0.77 1.5,2.31 0,0.77 0,3.07 0.75,0.77 1.51,3.84 0,2.31 1.5,0.77 0.76,0.76 0.75,1.54 2.26,2.31 0.75,2.3 0,0.77 0.75,0.77 0.75,3.84 2.26,1.54 0.75,0.77 0,2.3 0.76,1.54 0,1.54 0,1.53 0,0.77 1.5,0 1.51,1.54 0,2.31 0.75,0.76 0.75,3.85 1.51,3.07 1.5,2.31 2.26,0.76 1.5,0.77 1.51,0 1.5,3.08 0.76,0.77 0.75,1.53 0.75,0 1.51,1.54 1.5,2.3 1.51,0.77 1.5,0 0.75,3.85 1.51,1.53 1.5,1.54 0.76,3.84 2.25,1.54 1.51,2.31 0,0.76 3.01,1.54 0.75,3.07 0,3.85 0,1.53 0,0.77 0.75,1.54 2.26,0 1.51,2.31 0.75,0.76 2.26,1.54 1.5,0.77 2.26,1.54 0.75,1.53 2.26,0.77 1.5,1.54 1.51,0 1.5,1.54 0.76,3.07 2.25,2.31 0,3.07 0,0.77 1.51,0.77 0,1.53 0,0.77 0.75,0 0,1.54 0,2.3 0,0.77 0.75,0.77 0.76,0.77 1.5,0.77 0.75,1.54 0.76,1.53 3.01,3.08 3.01,3.07 1.5,2.31 2.26,0 0.75,0.76 1.51,1.54 1.5,0.77 3.01,1.54 0.75,1.53 0,2.31 3.01,0 2.26,0 2.26,0.77 0.75,1.53 2.26,2.31 2.26,0 0.75,0 0,2.31 2.26,1.53 0.75,1.54 0.75,1.54 1.51,1.53 2.25,0 0,1.54 1.51,0.77 2.26,0.77 0.75,1.53 2.26,0 1.5,1.54 2.26,2.31 0.75,0 0.75,0 0,0.77 0.76,0.76 2.25,0 1.51,0 4.51,1.54 0.76,0.77 0,0.77 0.75,0 1.5,0 2.26,1.54 2.26,0.76 1.5,0.77 0.76,1.54 1.5,1.54 1.51,0.76 0,1.54 0.75,0 2.26,0.77 1.5,1.54 1.51,0 0.75,1.53 1.5,0.77 0,1.54 1.51,0.77 0.75,0 0.75,0 1.51,0 0.75,2.3 2.26,0 0.75,0.77 0.75,0 0,2.31 0.76,0 0.75,0 0.75,0 0.75,0 1.51,0 0.75,0.77 2.26,0 0,0.76 1.5,0.77 2.26,0.77 1.51,1.54 1.5,0 0,1.54 1.51,0 2.25,0 0.76,0.76 2.25,0 3.01,0 0,0.77 2.26,0 2.26,0.77 1.5,0.77 0.76,0 0.75,0 0.75,1.54 1.51,0 0,0.77 0.75,1.53 0,0.77 0.75,0 1.51,1.54 1.5,0 1.51,0 0.75,0.77 0.75,0 0.75,0 1.51,0 0,0.76 0.75,1.54 2.26,0 0,1.54 0.75,0 0,0.77 0,0.77 0.75,0.76 2.26,0 1.51,0 0.75,0 0.75,0 0.75,0 0.76,0 0.75,0 0,0.77 0.75,0.77 0.75,0 0.76,0 0.75,0 0,0.77 0.75,0"
           style="fill:none;stroke:#f8766d;stroke-width:1.05999994;stroke-linecap:butt;stroke-linejoin:round;stroke-miterlimit:1;stroke-dasharray:none;stroke-opacity:1"
           id="path4229"
           inkscape:connector-curvature="0" /><path
           d="m 49.56,43.42 0,0.44 0.46,0 0,0.45 0,0.44 0,0.44 0.46,0 0,0.44 0,0.44 0.46,0 0,0.44 0,0.44 0,0.44 0,0.45 0,0.44 0,0.44 0.46,0.44 0.46,0.44 0,1.32 0.46,0.89 0.45,0.44 0,0.88 0,0.44 0.46,0.88 0,0.45 0,0.44 0.46,0.88 0,0.88 0,0.44 0,0.89 0,0.44 0.46,0 0,0.44 0.46,0 0,0.44 0,0.44 0,0.44 0,0.88 0.46,1.77 0,0.44 0.46,0.44 0.92,1.77 0.45,0.88 0,0.88 0,0.88 0.46,0.45 0.92,0 0.92,1.32 0.46,0.44 0,0.44 0.92,0.88 0,0.89 0,1.32 0,0.88 0.45,1.33 0,1.32 0,0.44 0,0.44 0.46,0.44 0,0.45 0.92,0.88 0.46,1.32 0,0.44 0.46,0.44 0,0.89 0,1.76 0,1.33 0.46,1.32 0.92,0 1.37,0.88 0.46,0.88 0,0.89 0.46,1.76 0,1.77 0.92,3.09 0.46,1.32 0.46,1.76 0,1.33 0.91,1.32 0.46,1.33 0,0.44 0,1.32 0.92,1.32 0.46,0.89 0,1.32 0.46,1.32 0.46,0.89 0.45,0.44 0.46,0.88 0.46,1.32 0,0.89 0.46,0 0,1.32 0,0.88 1.84,1.77 0.46,1.32 0,0.88 0,1.77 0.45,1.32 0.46,1.33 1.38,0.88 0.92,1.32 0.46,1.77 0,1.76 0.91,0.89 0.92,0.88 0,1.76 0.92,0 0.92,1.33 0.46,0.44 0.46,0.44 0.45,0.44 0,3.09 1.38,2.21 0.92,0.88 0,1.32 0.46,0 0.46,0.88 1.37,1.33 0.92,0.88 0,0.44 0.92,1.33 0.46,2.2 1.37,0.44 0.92,1.33 0.46,0.44 1.38,2.2 0.46,3.09 0.91,0.89 2.3,1.32 0.46,0.44 0.46,1.32 0.91,1.33 0.46,1.32 0,1.33 0.46,0.88 0.92,1.76 0.46,0.44 0.46,1.33 0.91,1.32 0.92,2.21 2.76,0.44 0.91,0.88 0.92,1.77 0.46,0 0,2.2 0.46,1.77 0.46,0.88 0.92,0.88 0.45,0.44 0.92,0.45 0.46,1.76 1.38,0.44 0.92,0.88 2.29,1.33 0,0.88 0.46,0 0,0.88 0,1.77 0,0.44 0.92,0.88 0.46,0.88 1.37,1.77 1.38,1.32 1.38,0.44 0.45,1.33 0.46,0.88 0,0.88 0.46,0.44 0,0.89 0,1.76 2.3,3.53 0,0.44 0.91,0.44 0.46,1.33 0.46,0.88 0.46,3.09 0.46,1.76 0,1.77 3.21,1.32 2.3,0.89 2.75,1.32 0.92,1.76 1.37,0.89 1.84,0.44 1.38,0.88 0,0.44 1.37,0.44 1.38,1.33 0.92,0.88 0.91,0 0.46,0.44 1.38,0.44 0.92,0 1.83,1.77 0.46,1.32 0.46,0.44 1.38,0.88 0.46,0.89 1.37,0.44 1.38,1.76 1.83,0.89 0.92,0 1.38,1.32 1.38,0 0.45,0.44 0.92,1.32 0,0.45 1.38,0.88 2.75,0 0.46,0 0.92,2.2 0,0.89 1.83,0.44 0.46,0.88 2.3,0.88 1.37,0.44 1.38,0.89 1.38,0.88 0.91,1.32 1.38,0.44 0.92,0.45 0,0.88 0.92,0.88 1.37,0.44 1.38,1.33 0.92,2.2 0.92,1.33 0.45,0.88 0,0.44 0.92,0 1.38,0.44 1.38,1.32 2.29,0.45 1.84,0.88 1.83,1.32 1.38,0 1.83,0 1.38,0 0.92,0.44 1.83,0 0,1.33 0.92,0 0.92,0 0.92,0 1.37,0.44 0.92,0 0,0.44 1.84,0.44 0.45,0.88 0.92,0 1.84,0.44 1.83,0 0.92,0 1.38,0.89 0.92,1.76 0.91,0.44 0.92,0 1.84,0.44 1.37,0.45 0.46,0.44 1.84,0.44 0.46,0.88 0.91,0.44 0.92,0 1.38,0 0.46,0.88 0,0.89 1.37,0 2.76,0 0.46,1.32 0.45,0.44 0.92,0.44 0.92,0.44 1.38,0.45 0.91,0.44 0.46,0 0.46,0 0.92,0 0.46,0 1.38,0.88 1.37,0.44 0.46,0.88 0.46,0 1.38,0.44 0.46,0 0.45,0 1.38,0.45 0.92,0 3.21,0 1.38,0.44 0.46,0.88 0,0.44 0.91,0.44 0.46,0.44 0.46,0 0.46,0.44 0.92,0.45 0.46,0 0.46,0 1.83,0 0.92,0 1.38,0.44 1.83,0.44 0.92,0 0.46,0 1.37,0 0.46,0.44 0,0.44 0.46,0 0.46,0.44 1.38,0 0,0.44 0.46,0.44 1.37,0 0.46,0 1.38,0.45 0.92,0 0.46,0 0.91,0 0.92,0 1.38,0 0.92,0.44 1.37,0 0.46,0 0.92,0.44 0,0.88 0.46,0.44 0.92,0 0.91,0 0.92,0 0.46,0 0.46,0.44 0.46,0 0.91,0 0.46,0 0.46,0 0.46,0 0.46,0 0.46,0 0.46,0 0.46,0.44 0.46,0.89 0.45,0 0.46,0 0.92,0 0.46,0 0.46,0 0,0.44 0.46,0 0.46,0 0.46,0.44 0.45,0 0.92,0 0.46,0 0.46,0"
           style="fill:none;stroke:#00ba38;stroke-width:1.05999994;stroke-linecap:butt;stroke-linejoin:round;stroke-miterlimit:1;stroke-dasharray:none;stroke-opacity:1"
           id="path4231"
           inkscape:connector-curvature="0" /><path
           d="m 49.56,43.42 0,0.89 0,0.89 0,0.89 0.86,0 0.85,0.89 0,0.89 0.86,0 0,0.89 0,0.89 0.85,0.89 0.85,0 0.86,0 0,1.79 0.85,0 0.86,0 0,0.89 0.85,0.89 0,0.89 0.85,0.89 0,0.89 0,0.89 0.86,1.78 0.85,0 0,0.89 0.86,0.89 0,0.89 0,1.78 0,0.89 0,1.78 0,1.78 0,0.89 0.85,1.78 0,1.78 1.71,0.89 0.85,0.89 0,0.89 0,0.89 0,1.78 0,0.89 0,1.78 0,0.89 0,1.78 0,1.79 0,0.89 0.86,0 0,2.67 0.85,0 0.86,0 0,0.89 0.85,1.78 0,0.89 0,1.78 0,0.89 0.85,0.89 0.86,0.89 0.85,0 3.42,1.78 0.85,1.78 0.86,1.78 0.85,0.89 1.71,0 0,1.78 0.85,0.89 0.86,0 0.85,1.78 0.86,0 0.85,1.78 1.71,0.89 0.85,0.89 2.57,0.89 2.56,0 0,1.78 0.85,0.89 0.86,1.78 0,0.9 0.85,2.67 1.71,1.78 0,0.89 0.85,0.89 1.71,1.78 2.57,0.89 0.85,0.89 0.85,0.89 0,1.78 0,1.78 0.86,0 0,1.78 0,0.89 0.85,0.89 0.86,1.78 0,1.78 0,1.78 0,0.89 0,1.78 0,1.78 1.7,0 0.86,0.89 2.56,1.78 0,0.89 1.71,3.57 0,1.78 0,1.78 1.71,1.78 0,2.67 3.41,0 0.86,1.78 1.71,0 1.71,1.78 0.85,0 2.56,2.67 2.56,0.89 1.71,0 0.86,1.78 0,0.89 0,3.56 2.56,1.78 0.85,0.89 1.71,0.89 2.56,0.89 1.71,1.78 0,0.89 0.86,0.89 0,0.9 0,0.89 1.71,1.78 2.56,0 0.85,0.89 1.71,0.89 1.71,0.89 1.71,1.78 1.71,0 0.85,0.89 0.85,3.56 2.57,1.78 0.85,1.78 0,2.67 0.86,1.78 0.85,0 0,0.89 0,0.89 0.85,0 0.86,1.78 0.85,1.78 0.86,0.89 0,0.89 2.56,0.89 0.85,1.78 0.86,0.89 1.71,0.89 0.85,0.89 2.56,3.57 1.71,0.89 1.71,0 0.85,0.89 0.86,0 0,5.34 1.71,0.89 0.85,0.89 0.85,0 1.71,1.78 2.56,0 0.86,0 2.56,0.89 0.86,1.78 0.85,0.89 5.12,0 1.71,1.78 0.86,0.89 0,0.89 0,0.89 0.85,0.89 0.86,0 1.7,0.89 0,0.89 1.71,0 0.86,0.89 2.56,0.89 0.85,0 0,0.89 0,0.89 0.86,0.89 5.12,0 0.86,0.89 0.85,1.78 1.71,0 0.85,0 0.86,0 0.85,0.9 0,1.78 0,1.78 0.86,0 1.7,1.78 0.86,0 1.71,0 1.71,0 0,0.89 0.85,0 1.71,2.67 1.71,1.78 1.7,0.89 2.57,0.89 2.56,0.89 0.85,0 0.86,0.89 0,0.89 1.71,0.89 2.56,0 2.56,0.89 0,0.89 1.71,0 1.71,0 1.71,0 0,0.89 0,1.78 0.85,0 0.85,0 1.71,0.89 0.86,0 0,0.89 0.85,0.89 0.86,0.89 0.85,0.89 1.71,0.89 0,0.89 0.85,0.89 0.86,0 1.71,0.89 0.85,0 0.85,0 0,0.89 0.86,0.89 1.71,0 1.7,0 0.86,0.89 2.56,0.89 0.86,0 0,0.9 0.85,0.89 2.56,0 0,0.89 0.86,0 0,1.78 0.85,0 0.85,0 0.86,0 0.85,0.89 0.86,0 1.71,0 0,0.89 0.85,0 1.71,2.67 0.85,0 0.86,0 0.85,0 0,0.89 0.85,0 0,0.89 0,0.89 1.71,0 0,0.89 0.86,0 1.71,0 0.85,0 0,0.89 0.85,0 0.86,0 0,0.89 0.85,0 0.86,0 0.85,0 0.85,0 0,1.78 0.86,0 0,0.89 0.85,0 0.86,0 0.85,0 0.86,0 0.85,0"
           style="fill:none;stroke:#619cff;stroke-width:1.05999994;stroke-linecap:butt;stroke-linejoin:round;stroke-miterlimit:1;stroke-dasharray:none;stroke-opacity:1"
           id="path4233"
           inkscape:connector-curvature="0" /><path
           d="M 49.56,43.42 302.4,296.26"
           style="fill:none;stroke:#333333;stroke-width:1.05999994;stroke-linecap:butt;stroke-linejoin:round;stroke-miterlimit:10;stroke-dasharray:4.25, 4.25;stroke-dashoffset:0;stroke-opacity:1"
           id="path4235"
           inkscape:connector-curvature="0" /></g></g><g
       id="g4237" /><g
       id="g4239" /><g
       id="g4241"><text
         transform="matrix(1,0,0,-1,23.02,39.83)"
         style="font-variant:normal;font-weight:normal;font-size:10px;font-family:Helvetica;-inkscape-font-specification:Helvetica;writing-mode:lr-tb;fill:#000000;fill-opacity:1;fill-rule:nonzero;stroke:none"
         id="text4243"><tspan
           x="0 5.5599999 8.3400002 13.9"
           y="0"
           sodipodi:role="line"
           id="tspan4245">0.00</tspan></text>
<text
         transform="matrix(1,0,0,-1,23.02,103.04)"
         style="font-variant:normal;font-weight:normal;font-size:10px;font-family:Helvetica;-inkscape-font-specification:Helvetica;writing-mode:lr-tb;fill:#000000;fill-opacity:1;fill-rule:nonzero;stroke:none"
         id="text4247"><tspan
           x="0 5.5599999 8.3400002 13.9"
           y="0"
           sodipodi:role="line"
           id="tspan4249">0.25</tspan></text>
<text
         transform="matrix(1,0,0,-1,23.02,166.25)"
         style="font-variant:normal;font-weight:normal;font-size:10px;font-family:Helvetica;-inkscape-font-specification:Helvetica;writing-mode:lr-tb;fill:#000000;fill-opacity:1;fill-rule:nonzero;stroke:none"
         id="text4251"><tspan
           x="0 5.5599999 8.3400002 13.9"
           y="0"
           sodipodi:role="line"
           id="tspan4253">0.50</tspan></text>
<text
         transform="matrix(1,0,0,-1,23.02,229.46)"
         style="font-variant:normal;font-weight:normal;font-size:10px;font-family:Helvetica;-inkscape-font-specification:Helvetica;writing-mode:lr-tb;fill:#000000;fill-opacity:1;fill-rule:nonzero;stroke:none"
         id="text4255"><tspan
           x="0 5.5599999 8.3400002 13.9"
           y="0"
           sodipodi:role="line"
           id="tspan4257">0.75</tspan></text>
<text
         transform="matrix(1,0,0,-1,23.02,292.67)"
         style="font-variant:normal;font-weight:normal;font-size:10px;font-family:Helvetica;-inkscape-font-specification:Helvetica;writing-mode:lr-tb;fill:#000000;fill-opacity:1;fill-rule:nonzero;stroke:none"
         id="text4259"><tspan
           x="0 5.5599999 8.3400002 13.9"
           y="0"
           sodipodi:role="line"
           id="tspan4261">1.00</tspan></text>
</g><g
       id="g4263" /><g
       id="g4265"><path
         d="m 45.31,43.42 4.25,0"
         style="fill:none;stroke:#000000;stroke-width:1.05999994;stroke-linecap:butt;stroke-linejoin:round;stroke-miterlimit:10;stroke-dasharray:none;stroke-opacity:1"
         id="path4267"
         inkscape:connector-curvature="0" /><path
         d="m 45.31,106.63 4.25,0"
         style="fill:none;stroke:#000000;stroke-width:1.05999994;stroke-linecap:butt;stroke-linejoin:round;stroke-miterlimit:10;stroke-dasharray:none;stroke-opacity:1"
         id="path4269"
         inkscape:connector-curvature="0" /><path
         d="m 45.31,169.84 4.25,0"
         style="fill:none;stroke:#000000;stroke-width:1.05999994;stroke-linecap:butt;stroke-linejoin:round;stroke-miterlimit:10;stroke-dasharray:none;stroke-opacity:1"
         id="path4271"
         inkscape:connector-curvature="0" /><path
         d="m 45.31,233.05 4.25,0"
         style="fill:none;stroke:#000000;stroke-width:1.05999994;stroke-linecap:butt;stroke-linejoin:round;stroke-miterlimit:10;stroke-dasharray:none;stroke-opacity:1"
         id="path4273"
         inkscape:connector-curvature="0" /><path
         d="m 45.31,296.26 4.25,0"
         style="fill:none;stroke:#000000;stroke-width:1.05999994;stroke-linecap:butt;stroke-linejoin:round;stroke-miterlimit:10;stroke-dasharray:none;stroke-opacity:1"
         id="path4275"
         inkscape:connector-curvature="0" /></g><g
       id="g4277" /><g
       id="g4279" /><g
       id="g4281" /><g
       id="g4283" /><g
       id="g4285" /><g
       id="g4287"><path
         d="m 49.56,39.17 0,4.25"
         style="fill:none;stroke:#000000;stroke-width:1.05999994;stroke-linecap:butt;stroke-linejoin:round;stroke-miterlimit:10;stroke-dasharray:none;stroke-opacity:1"
         id="path4289"
         inkscape:connector-curvature="0" /><path
         d="m 112.77,39.17 0,4.25"
         style="fill:none;stroke:#000000;stroke-width:1.05999994;stroke-linecap:butt;stroke-linejoin:round;stroke-miterlimit:10;stroke-dasharray:none;stroke-opacity:1"
         id="path4291"
         inkscape:connector-curvature="0" /><path
         d="m 175.98,39.17 0,4.25"
         style="fill:none;stroke:#000000;stroke-width:1.05999994;stroke-linecap:butt;stroke-linejoin:round;stroke-miterlimit:10;stroke-dasharray:none;stroke-opacity:1"
         id="path4293"
         inkscape:connector-curvature="0" /><path
         d="m 239.19,39.17 0,4.25"
         style="fill:none;stroke:#000000;stroke-width:1.05999994;stroke-linecap:butt;stroke-linejoin:round;stroke-miterlimit:10;stroke-dasharray:none;stroke-opacity:1"
         id="path4295"
         inkscape:connector-curvature="0" /><path
         d="m 302.4,39.17 0,4.25"
         style="fill:none;stroke:#000000;stroke-width:1.05999994;stroke-linecap:butt;stroke-linejoin:round;stroke-miterlimit:10;stroke-dasharray:none;stroke-opacity:1"
         id="path4297"
         inkscape:connector-curvature="0" /></g><g
       id="g4299" /><g
       id="g4301"><text
         transform="matrix(1,0,0,-1,39.83,29.16)"
         style="font-variant:normal;font-weight:normal;font-size:10px;font-family:Helvetica;-inkscape-font-specification:Helvetica;writing-mode:lr-tb;fill:#000000;fill-opacity:1;fill-rule:nonzero;stroke:none"
         id="text4303"><tspan
           x="0 5.5599999 8.3400002 13.9"
           y="0"
           sodipodi:role="line"
           id="tspan4305">0.00</tspan></text>
<text
         transform="matrix(1,0,0,-1,103.04,29.16)"
         style="font-variant:normal;font-weight:normal;font-size:10px;font-family:Helvetica;-inkscape-font-specification:Helvetica;writing-mode:lr-tb;fill:#000000;fill-opacity:1;fill-rule:nonzero;stroke:none"
         id="text4307"><tspan
           x="0 5.5599999 8.3400002 13.9"
           y="0"
           sodipodi:role="line"
           id="tspan4309">0.25</tspan></text>
<text
         transform="matrix(1,0,0,-1,166.25,29.16)"
         style="font-variant:normal;font-weight:normal;font-size:10px;font-family:Helvetica;-inkscape-font-specification:Helvetica;writing-mode:lr-tb;fill:#000000;fill-opacity:1;fill-rule:nonzero;stroke:none"
         id="text4311"><tspan
           x="0 5.5599999 8.3400002 13.9"
           y="0"
           sodipodi:role="line"
           id="tspan4313">0.50</tspan></text>
<text
         transform="matrix(1,0,0,-1,229.46,29.16)"
         style="font-variant:normal;font-weight:normal;font-size:10px;font-family:Helvetica;-inkscape-font-specification:Helvetica;writing-mode:lr-tb;fill:#000000;fill-opacity:1;fill-rule:nonzero;stroke:none"
         id="text4315"><tspan
           x="0 5.5599999 8.3400002 13.9"
           y="0"
           sodipodi:role="line"
           id="tspan4317">0.75</tspan></text>
<text
         transform="matrix(1,0,0,-1,292.67,29.16)"
         style="font-variant:normal;font-weight:normal;font-size:10px;font-family:Helvetica;-inkscape-font-specification:Helvetica;writing-mode:lr-tb;fill:#000000;fill-opacity:1;fill-rule:nonzero;stroke:none"
         id="text4319"><tspan
           x="0 5.5599999 8.3400002 13.9"
           y="0"
           sodipodi:role="line"
           id="tspan4321">1.00</tspan></text>
</g><g
       id="g4323" /><g
       id="g4325" /><g
       id="g4327" /><g
       id="g4329" /><g
       id="g4331"><text
         transform="matrix(1,0,0,-1,127.81,16.94)"
         style="font-variant:normal;font-weight:normal;font-size:12px;font-family:Helvetica;-inkscape-font-specification:Helvetica;writing-mode:lr-tb;fill:#000000;fill-opacity:1;fill-rule:nonzero;stroke:none"
         id="text4333"><tspan
           x="0 6.7319999 13.404 16.068001 22.068001 28.74 32.076 38.748001 45.419998 51.419998 54.084 57.419998 60.084 65.783997 72.456001 75.792 79.667999 86.339996 89.676003"
           y="0"
           sodipodi:role="line"
           id="tspan4335">False positive rate</tspan></text>
</g><g
       id="g4337" /><g
       id="g4339"><text
         transform="matrix(0,1,1,0,19.42,124.33)"
         style="font-variant:normal;font-weight:normal;font-size:12px;font-family:Helvetica;-inkscape-font-specification:Helvetica;writing-mode:lr-tb;fill:#000000;fill-opacity:1;fill-rule:nonzero;stroke:none"
         id="text4341"><tspan
           x="0 5.8920002 10.068 16.74 23.412001 26.747999 33.419998 40.091999 46.091999 48.756001 52.091999 54.756001 60.456001 67.127998 70.463997 74.339996 81.012001 84.348"
           y="0"
           sodipodi:role="line"
           id="tspan4343">True positive rate</tspan></text>
</g><g
       id="g4345" /><g
       id="g4347" /><g
       id="g4349" /><g
       id="g4351" /><g
       id="g4353" /><g
       id="g4355" /><g
       id="g4357" /><g
       id="g4359"
       transform="translate(-11.2,0)"><text
         transform="scale(1,-1)"
         style="font-variant:normal;font-weight:bold;font-size:10px;font-family:Helvetica;-inkscape-font-specification:Helvetica-Bold;writing-mode:lr-tb;fill:#000000;fill-opacity:1;fill-rule:nonzero;stroke:none"
         id="text4361"
         x="232.79999"
         y="-105.84"><tspan
           x="232.79999 240.01999 245.57999 248.35999 251.13998 253.91998 257.25 262.81 268.91998"
           y="-105.84"
           sodipodi:role="line"
           id="tspan4363">Cell type (AUC)</tspan></text>
</g><g
       id="g4365" /><g
       id="g4367" /><g
       id="g4369" /><g
       id="g4371"
       transform="translate(-22.4,0)"><path
         d="m 234.53,92.88 13.82,0"
         style="fill:none;stroke:#f8766d;stroke-width:1.05999994;stroke-linecap:butt;stroke-linejoin:round;stroke-miterlimit:10;stroke-dasharray:none;stroke-opacity:1"
         id="path4373"
         inkscape:connector-curvature="0" /></g><g
       id="g4375" /><g
       id="g4377" /><g
       id="g4379" /><g
       id="g4381"
       transform="translate(-22.4,0)"><path
         d="m 234.53,75.6 13.82,0"
         style="fill:none;stroke:#00ba38;stroke-width:1.05999994;stroke-linecap:butt;stroke-linejoin:round;stroke-miterlimit:10;stroke-dasharray:none;stroke-opacity:1"
         id="path4383"
         inkscape:connector-curvature="0" /></g><g
       id="g4385" /><g
       id="g4387" /><g
       id="g4389" /><g
       id="g4391"
       transform="translate(-22.4,0)"><path
         d="m 234.53,58.32 13.82,0"
         style="fill:none;stroke:#619cff;stroke-width:1.05999994;stroke-linecap:butt;stroke-linejoin:round;stroke-miterlimit:10;stroke-dasharray:none;stroke-opacity:1"
         id="path4393"
         inkscape:connector-curvature="0" /></g><g
       id="g4395" /><g
       id="g4397"
       transform="translate(-22.4,0)"><text
         transform="matrix(1,0,0,-1,252.24,89.29)"
         style="font-variant:normal;font-weight:normal;font-size:10px;font-family:Helvetica;-inkscape-font-specification:Helvetica;writing-mode:lr-tb;fill:#000000;fill-opacity:1;fill-rule:nonzero;stroke:none"
         id="text4399"><tspan
           x="0 7.7800002 16.110001 21.67 27.23 32.790001 38.349998"
           y="0"
           sodipodi:role="line"
           id="tspan4401">GM12878 (0.64)</tspan></text>
</g><g
       id="g4403" /><g
       id="g4405"
       transform="translate(-22.4,0)"><text
         transform="matrix(1,0,0,-1,252.24,72.01)"
         style="font-variant:normal;font-weight:normal;font-size:10px;font-family:Helvetica;-inkscape-font-specification:Helvetica;writing-mode:lr-tb;fill:#000000;fill-opacity:1;fill-rule:nonzero;stroke:none"
         id="text4407"><tspan
           x="0 7.2199998 12.78 15.56 21.120001 27.790001 34.459999"
           y="0"
           sodipodi:role="line"
           id="tspan4409">H1 hESC (0.72)</tspan></text>
</g><g
       id="g4411" /><g
       id="g4413"
       transform="translate(-22.4,0)"><text
         transform="matrix(1,0,0,-1,252.24,54.73)"
         style="font-variant:normal;font-weight:normal;font-size:10px;font-family:Helvetica;-inkscape-font-specification:Helvetica;writing-mode:lr-tb;fill:#000000;fill-opacity:1;fill-rule:nonzero;stroke:none"
         id="text4415"><tspan
           x="0 6.6700001 12.23 17.790001"
           y="0"
           sodipodi:role="line"
           id="tspan4417">K562 (0.64)</tspan></text>
</g><g
       id="g4419" /><g
       id="g4421" /><g
       id="g4423" /><g
       id="g4425" /><g
       id="g4427" /><g
       id="g4429" /><g
       id="g4431" /><g
       id="g4433" /><g
       id="g4435" /><g
       id="g4437" /><g
       id="g4439" /><g
       id="g4441" /></g></svg>